SplineFontDB: 3.2
FontName: Kilroy1-Regular
FullName: Kilroy1 Regular
FamilyName: Kilroy1
Weight: Regular
Copyright: Copyright 2020 The Roboto Serif Project Authors (https://github.com/googlefonts/RobotoSerif) OFL license
Version: 1.008
ItalicAngle: 0
UnderlinePosition: -200
UnderlineWidth: 100
Ascent: 800
Descent: 200
InvalidEm: 0
sfntRevision: 0x0001020c
LayerCount: 2
Layer: 0 1 "Back" 1
Layer: 1 1 "Fore" 0
XUID: [1021 1018 -1064020043 25804]
StyleMap: 0x0040
FSType: 0
OS2Version: 4
OS2_WeightWidthSlopeOnly: 0
OS2_UseTypoMetrics: 1
CreationTime: 1586430965
ModificationTime: 1751681666
PfmFamily: 81
TTFWeight: 400
TTFWidth: 5
LineGap: 0
VLineGap: 0
Panose: 0 0 0 0 0 0 0 0 0 0
OS2TypoAscent: 927
OS2TypoAOffset: 0
OS2TypoDescent: -244
OS2TypoDOffset: 0
OS2TypoLinegap: 0
OS2WinAscent: 1048
OS2WinAOffset: 0
OS2WinDescent: 251
OS2WinDOffset: 0
HheadAscent: 927
HheadAOffset: 0
HheadDescent: -244
HheadDOffset: 0
OS2SubXSize: 650
OS2SubYSize: 600
OS2SubXOff: 0
OS2SubYOff: 75
OS2SupXSize: 650
OS2SupYSize: 600
OS2SupXOff: 0
OS2SupYOff: 350
OS2StrikeYSize: 100
OS2StrikeYPos: 311
OS2CapHeight: 710
OS2XHeight: 518
OS2Vendor: 'COMM'
OS2CodePages: 20000193.00000000
OS2UnicodeRanges: a10000ef.4000267a.00000000.00000000
Lookup: 5 0 0 "'locl' Localized Forms in Latin lookup 0" { "'locl' Localized Forms in Latin lookup 0 subtable"  } ['locl' ('latn' <'AZE ' 'CRT ' 'TRK ' > ) ]
Lookup: 1 0 0 "Single Substitution lookup 1" { "Single Substitution lookup 1 subtable"  } []
Lookup: 5 0 0 "'locl' Localized Forms in Latin lookup 2" { "'locl' Localized Forms in Latin lookup 2 subtable"  } ['locl' ('latn' <'PLK ' > ) ]
Lookup: 1 0 0 "Single Substitution lookup 3" { "Single Substitution lookup 3 subtable"  } []
Lookup: 6 0 0 "'locl' Localized Forms in Latin lookup 4" { "'locl' Localized Forms in Latin lookup 4 subtable"  } ['locl' ('latn' <'CAT ' > ) ]
Lookup: 4 0 0 "Ligature Substitution lookup 5" { "Ligature Substitution lookup 5 subtable"  } []

StartChar: .notdef
Encoding: 65536 -1 0
Width: 400
GlyphClass: 1
Flags: W
LayerCount: 2
Fore
SplineSet
0 0 m 1,0,-1
 0 700 l 1,1,-1
 400 700 l 1,2,-1
 400 0 l 1,3,-1
 0 0 l 1,0,-1
50 650 m 1,4,-1
 50 50 l 1,5,-1
 350 50 l 1,6,-1
 350 650 l 1,7,-1
 50 650 l 1,4,-1
EndSplineSet
EndChar

StartChar: A
Encoding: 65 65 6
Width: 714
GlyphClass: 2
Flags: W
AnchorPoint: "Anchor-2" 565 0 basechar 0
AnchorPoint: "Anchor-1" 357 0 basechar 0
AnchorPoint: "Anchor-0" 357 721 basechar 0
LayerCount: 2
Fore
SplineSet
202 297 m 1,0,-1
 488 297 l 1,1,-1
 498 239 l 1,2,-1
 189 239 l 1,3,-1
 202 297 l 1,0,-1
333 676 m 1,4,-1
 349 657 l 1,5,-1
 155 75 l 2,6,7
 155 70 155 70 167 65 c 128,-1,8
 179 60 179 60 199 57.5 c 128,-1,9
 219 55 219 55 242 55 c 2,10,-1
 255 55 l 1,11,-1
 255 0 l 1,12,-1
 14 0 l 1,13,-1
 14 55 l 1,14,-1
 20 55 l 2,15,16
 49 55 49 55 67.5 64.5 c 128,-1,17
 86 74 86 74 98 108 c 2,18,-1
 302 716 l 1,19,-1
 409 716 l 1,20,-1
 619 101 l 2,21,22
 630 71 630 71 648.5 63 c 128,-1,23
 667 55 667 55 695 55 c 2,24,-1
 700 55 l 1,25,-1
 700 0 l 1,26,-1
 436 0 l 1,27,-1
 436 55 l 1,28,-1
 450 55 l 2,29,30
 473 55 473 55 493 56 c 128,-1,31
 513 57 513 57 525.5 59.5 c 128,-1,32
 538 62 538 62 538 65 c 2,33,-1
 333 676 l 1,4,-1
EndSplineSet
EndChar

StartChar: Aogonek
Encoding: 260 260 15
Width: 714
GlyphClass: 1
Flags: W
LayerCount: 2
Fore
SplineSet
202 297 m 1,0,-1
 488 297 l 1,1,-1
 498 239 l 1,2,-1
 189 239 l 1,3,-1
 202 297 l 1,0,-1
573 41 m 1,4,-1
 600 6 l 1,5,6
 552 -26 552 -26 527 -51 c 128,-1,7
 502 -76 502 -76 492.5 -96.5 c 128,-1,8
 483 -117 483 -117 483 -139 c 0,9,10
 483 -165 483 -165 495.5 -177 c 128,-1,11
 508 -189 508 -189 529 -189 c 0,12,13
 553 -189 553 -189 571 -176 c 128,-1,14
 589 -163 589 -163 600 -149 c 1,15,-1
 635 -183 l 1,16,17
 613 -210 613 -210 583.5 -227 c 128,-1,18
 554 -244 554 -244 508 -244 c 0,19,20
 457 -244 457 -244 422 -221 c 128,-1,21
 387 -198 387 -198 387 -150 c 0,22,23
 387 -124 387 -124 397.5 -102 c 128,-1,24
 408 -80 408 -80 430 -58.5 c 128,-1,25
 452 -37 452 -37 488 -13 c 128,-1,26
 524 11 524 11 573 41 c 1,4,-1
700 0 m 1,27,-1
 559 0 l 1,28,-1
 333 676 l 1,29,-1
 351 668 l 1,30,-1
 154 75 l 2,31,32
 154 70 154 70 166 65 c 128,-1,33
 178 60 178 60 197.5 57.5 c 128,-1,34
 217 55 217 55 241 55 c 2,35,-1
 253 55 l 1,36,-1
 253 0 l 1,37,-1
 14 0 l 1,38,-1
 14 55 l 1,39,-1
 20 55 l 2,40,41
 49 55 49 55 67.5 64.5 c 128,-1,42
 86 74 86 74 98 108 c 2,43,-1
 302 716 l 1,44,-1
 409 716 l 1,45,-1
 619 101 l 2,46,47
 630 71 630 71 648.5 63 c 128,-1,48
 667 55 667 55 695 55 c 2,49,-1
 700 55 l 1,50,-1
 700 0 l 1,27,-1
EndSplineSet
EndChar

StartChar: Acaron
Encoding: 461 461 16
Width: 714
GlyphClass: 1
Flags: W
LayerCount: 2
Fore
SplineSet
309 782 m 1,0,-1
 391 782 l 1,1,-1
 512 927 l 1,2,-1
 512 943 l 1,3,-1
 472 943 l 1,4,-1
 323 829 l 1,5,-1
 384 831 l 1,6,-1
 237 943 l 1,7,-1
 187 943 l 1,8,-1
 187 927 l 1,9,-1
 309 782 l 1,0,-1
202 297 m 1,10,-1
 488 297 l 1,11,-1
 498 239 l 1,12,-1
 189 239 l 1,13,-1
 202 297 l 1,10,-1
333 676 m 1,14,-1
 349 657 l 1,15,-1
 155 75 l 2,16,17
 155 70 155 70 167 65 c 128,-1,18
 179 60 179 60 199 57.5 c 128,-1,19
 219 55 219 55 242 55 c 2,20,-1
 255 55 l 1,21,-1
 255 0 l 1,22,-1
 14 0 l 1,23,-1
 14 55 l 1,24,-1
 20 55 l 2,25,26
 49 55 49 55 67.5 64.5 c 128,-1,27
 86 74 86 74 98 108 c 2,28,-1
 302 716 l 1,29,-1
 409 716 l 1,30,-1
 619 101 l 2,31,32
 630 71 630 71 648.5 63 c 128,-1,33
 667 55 667 55 695 55 c 2,34,-1
 700 55 l 1,35,-1
 700 0 l 1,36,-1
 436 0 l 1,37,-1
 436 55 l 1,38,-1
 450 55 l 2,39,40
 473 55 473 55 493 56 c 128,-1,41
 513 57 513 57 525.5 59.5 c 128,-1,42
 538 62 538 62 538 65 c 2,43,-1
 333 676 l 1,14,-1
EndSplineSet
EndChar

StartChar: Adblgrave
Encoding: 512 512 18
Width: 714
GlyphClass: 1
Flags: W
LayerCount: 2
Fore
SplineSet
441 889 m 2,0,-1
 475 800 l 1,1,-1
 475 776 l 1,2,-1
 441 776 l 1,3,-1
 382 829 l 2,4,5
 361 848 361 848 348 863.5 c 128,-1,6
 335 879 335 879 335 899 c 0,7,8
 335 918 335 918 348 930 c 128,-1,9
 361 942 361 942 383 942 c 0,10,11
 397 942 397 942 407.5 936.5 c 128,-1,12
 418 931 418 931 426.5 919.5 c 128,-1,13
 435 908 435 908 441 889 c 2,0,-1
260 889 m 2,14,-1
 292 800 l 1,15,-1
 292 776 l 1,16,-1
 258 776 l 1,17,-1
 199 829 l 2,18,19
 178 848 178 848 165 863.5 c 128,-1,20
 152 879 152 879 152 899 c 0,21,22
 152 918 152 918 165 930 c 128,-1,23
 178 942 178 942 200 942 c 0,24,25
 214 942 214 942 225 936.5 c 128,-1,26
 236 931 236 931 244.5 919.5 c 128,-1,27
 253 908 253 908 260 889 c 2,14,-1
202 297 m 1,28,-1
 488 297 l 1,29,-1
 498 239 l 1,30,-1
 189 239 l 1,31,-1
 202 297 l 1,28,-1
333 676 m 1,32,-1
 349 657 l 1,33,-1
 155 75 l 2,34,35
 155 70 155 70 167 65 c 128,-1,36
 179 60 179 60 199 57.5 c 128,-1,37
 219 55 219 55 242 55 c 2,38,-1
 255 55 l 1,39,-1
 255 0 l 1,40,-1
 14 0 l 1,41,-1
 14 55 l 1,42,-1
 20 55 l 2,43,44
 49 55 49 55 67.5 64.5 c 128,-1,45
 86 74 86 74 98 108 c 2,46,-1
 302 716 l 1,47,-1
 409 716 l 1,48,-1
 619 101 l 2,49,50
 630 71 630 71 648.5 63 c 128,-1,51
 667 55 667 55 695 55 c 2,52,-1
 700 55 l 1,53,-1
 700 0 l 1,54,-1
 436 0 l 1,55,-1
 436 55 l 1,56,-1
 450 55 l 2,57,58
 473 55 473 55 493 56 c 128,-1,59
 513 57 513 57 525.5 59.5 c 128,-1,60
 538 62 538 62 538 65 c 2,61,-1
 333 676 l 1,32,-1
EndSplineSet
EndChar

StartChar: Ainvertedbreve
Encoding: 514 514 19
Width: 714
GlyphClass: 1
Flags: W
LayerCount: 2
Fore
SplineSet
361 914 m 0,0,1
 312 914 312 914 277.5 897.5 c 128,-1,2
 243 881 243 881 224 846.5 c 128,-1,3
 205 812 205 812 202 758 c 1,4,-1
 264 758 l 1,5,6
 267 790 267 790 277 807.5 c 128,-1,7
 287 825 287 825 307 832 c 128,-1,8
 327 839 327 839 360 839 c 0,9,10
 391 839 391 839 410.5 832 c 128,-1,11
 430 825 430 825 440.5 807.5 c 128,-1,12
 451 790 451 790 455 758 c 1,13,-1
 521 758 l 1,14,15
 518 812 518 812 498.5 846.5 c 128,-1,16
 479 881 479 881 444 897.5 c 128,-1,17
 409 914 409 914 361 914 c 0,0,1
202 297 m 1,18,-1
 488 297 l 1,19,-1
 498 239 l 1,20,-1
 189 239 l 1,21,-1
 202 297 l 1,18,-1
333 676 m 1,22,-1
 349 657 l 1,23,-1
 155 75 l 2,24,25
 155 70 155 70 167 65 c 128,-1,26
 179 60 179 60 199 57.5 c 128,-1,27
 219 55 219 55 242 55 c 2,28,-1
 255 55 l 1,29,-1
 255 0 l 1,30,-1
 14 0 l 1,31,-1
 14 55 l 1,32,-1
 20 55 l 2,33,34
 49 55 49 55 67.5 64.5 c 128,-1,35
 86 74 86 74 98 108 c 2,36,-1
 302 716 l 1,37,-1
 409 716 l 1,38,-1
 619 101 l 2,39,40
 630 71 630 71 648.5 63 c 128,-1,41
 667 55 667 55 695 55 c 2,42,-1
 700 55 l 1,43,-1
 700 0 l 1,44,-1
 436 0 l 1,45,-1
 436 55 l 1,46,-1
 450 55 l 2,47,48
 473 55 473 55 493 56 c 128,-1,49
 513 57 513 57 525.5 59.5 c 128,-1,50
 538 62 538 62 538 65 c 2,51,-1
 333 676 l 1,22,-1
EndSplineSet
EndChar

StartChar: B
Encoding: 66 66 32
Width: 696
GlyphClass: 2
Flags: W
AnchorPoint: "Anchor-0" 319 741 basechar 0
LayerCount: 2
Fore
SplineSet
374 710 m 2,0,1
 429 710 429 710 472 698.5 c 128,-1,2
 515 687 515 687 544 664 c 128,-1,3
 573 641 573 641 588.5 607 c 128,-1,4
 604 573 604 573 604 530 c 0,5,6
 604 483 604 483 579.5 446 c 128,-1,7
 555 409 555 409 506 388.5 c 128,-1,8
 457 368 457 368 385 368 c 1,9,-1
 430 396 l 1,10,-1
 430 351 l 1,11,-1
 389 379 l 1,12,13
 469 378 469 378 523.5 355.5 c 128,-1,14
 578 333 578 333 606.5 293.5 c 128,-1,15
 635 254 635 254 635 199 c 0,16,17
 635 151 635 151 618 114 c 128,-1,18
 601 77 601 77 569 51.5 c 128,-1,19
 537 26 537 26 490.5 13 c 128,-1,20
 444 0 444 0 384 0 c 2,21,-1
 53 0 l 1,22,-1
 53 55 l 1,23,-1
 64 55 l 2,24,25
 101 55 101 55 125 62 c 128,-1,26
 149 69 149 69 149 91 c 2,27,-1
 149 620 l 2,28,29
 149 642 149 642 125 649 c 128,-1,30
 101 656 101 656 64 656 c 2,31,-1
 53 656 l 1,32,-1
 53 710 l 1,33,-1
 374 710 l 2,0,1
211 401 m 1,34,-1
 372 401 l 2,35,36
 421 401 421 401 451.5 416 c 128,-1,37
 482 431 482 431 495.5 460 c 128,-1,38
 509 489 509 489 509 529 c 0,39,40
 509 568 509 568 494.5 595 c 128,-1,41
 480 622 480 622 450.5 636.5 c 128,-1,42
 421 651 421 651 372 651 c 2,43,-1
 242 651 l 1,44,-1
 242 60 l 1,45,-1
 382 60 l 2,46,47
 436 60 436 60 470.5 76 c 128,-1,48
 505 92 505 92 521.5 123.5 c 128,-1,49
 538 155 538 155 538 200 c 256,50,51
 538 245 538 245 521 277 c 128,-1,52
 504 309 504 309 468.5 326 c 128,-1,53
 433 343 433 343 376 343 c 2,54,-1
 211 343 l 1,55,-1
 211 401 l 1,34,-1
EndSplineSet
EndChar

StartChar: C
Encoding: 67 67 33
Width: 756
GlyphClass: 2
Flags: W
AnchorPoint: "Anchor-1" 400 0 basechar 0
AnchorPoint: "Anchor-0" 400 741 basechar 0
LayerCount: 2
Fore
SplineSet
393 665 m 0,0,1
 339 665 339 665 295.5 645 c 128,-1,2
 252 625 252 625 220.5 586 c 128,-1,3
 189 547 189 547 172 489 c 128,-1,4
 155 431 155 431 155 355 c 256,5,6
 155 279 155 279 171.5 221.5 c 128,-1,7
 188 164 188 164 220 125 c 128,-1,8
 252 86 252 86 298.5 66 c 128,-1,9
 345 46 345 46 405 46 c 0,10,11
 471 46 471 46 519 73 c 128,-1,12
 567 100 567 100 598.5 146.5 c 128,-1,13
 630 193 630 193 647 250 c 1,14,-1
 709 225 l 1,15,16
 688 152 688 152 646 97.5 c 128,-1,17
 604 43 604 43 542 13 c 128,-1,18
 480 -17 480 -17 400 -17 c 0,19,20
 323 -17 323 -17 259.5 8 c 128,-1,21
 196 33 196 33 150 81.5 c 128,-1,22
 104 130 104 130 79.5 199 c 128,-1,23
 55 268 55 268 55 355 c 0,24,25
 55 443 55 443 80.5 512 c 128,-1,26
 106 581 106 581 152 629 c 128,-1,27
 198 677 198 677 259.5 702.5 c 128,-1,28
 321 728 321 728 392 728 c 0,29,30
 462 728 462 728 513 704.5 c 128,-1,31
 564 681 564 681 597 636 c 128,-1,32
 630 591 630 591 643 525 c 1,33,-1
 614 551 l 1,34,-1
 628 715 l 1,35,-1
 693 715 l 1,36,-1
 693 477 l 1,37,-1
 623 477 l 1,38,39
 606 535 606 535 575 577 c 128,-1,40
 544 619 544 619 498.5 642 c 128,-1,41
 453 665 453 665 393 665 c 0,0,1
EndSplineSet
EndChar

StartChar: Ccaron
Encoding: 268 268 38
Width: 756
GlyphClass: 1
Flags: W
LayerCount: 2
Fore
SplineSet
349 782 m 1,0,-1
 431 782 l 1,1,-1
 553 927 l 1,2,-1
 553 943 l 1,3,-1
 513 943 l 1,4,-1
 363 829 l 1,5,-1
 425 831 l 1,6,-1
 277 943 l 1,7,-1
 227 943 l 1,8,-1
 227 927 l 1,9,-1
 349 782 l 1,0,-1
393 665 m 0,10,11
 339 665 339 665 295.5 645 c 128,-1,12
 252 625 252 625 220.5 586 c 128,-1,13
 189 547 189 547 172 489 c 128,-1,14
 155 431 155 431 155 355 c 256,15,16
 155 279 155 279 171.5 221.5 c 128,-1,17
 188 164 188 164 220 125 c 128,-1,18
 252 86 252 86 298.5 66 c 128,-1,19
 345 46 345 46 405 46 c 0,20,21
 471 46 471 46 519 73 c 128,-1,22
 567 100 567 100 598.5 146.5 c 128,-1,23
 630 193 630 193 647 250 c 1,24,-1
 709 225 l 1,25,26
 688 152 688 152 646 97.5 c 128,-1,27
 604 43 604 43 542 13 c 128,-1,28
 480 -17 480 -17 400 -17 c 0,29,30
 323 -17 323 -17 259.5 8 c 128,-1,31
 196 33 196 33 150 81.5 c 128,-1,32
 104 130 104 130 79.5 199 c 128,-1,33
 55 268 55 268 55 355 c 0,34,35
 55 443 55 443 80.5 512 c 128,-1,36
 106 581 106 581 152 629 c 128,-1,37
 198 677 198 677 259.5 702.5 c 128,-1,38
 321 728 321 728 392 728 c 0,39,40
 462 728 462 728 513 704.5 c 128,-1,41
 564 681 564 681 597 636 c 128,-1,42
 630 591 630 591 643 525 c 1,43,-1
 614 551 l 1,44,-1
 628 715 l 1,45,-1
 693 715 l 1,46,-1
 693 477 l 1,47,-1
 623 477 l 1,48,49
 606 535 606 535 575 577 c 128,-1,50
 544 619 544 619 498.5 642 c 128,-1,51
 453 665 453 665 393 665 c 0,10,11
EndSplineSet
EndChar

StartChar: D
Encoding: 68 68 40
Width: 794
GlyphClass: 2
Flags: W
AnchorPoint: "Anchor-1" 400 0 basechar 0
AnchorPoint: "Anchor-0" 400 741 basechar 0
LayerCount: 2
Fore
SplineSet
53 656 m 1,0,-1
 53 710 l 1,1,-1
 360 710 l 2,2,3
 448 710 448 710 518 687 c 128,-1,4
 588 664 588 664 637.5 619.5 c 128,-1,5
 687 575 687 575 713.5 509 c 128,-1,6
 740 443 740 443 740 358 c 0,7,8
 740 274 740 274 713.5 207.5 c 128,-1,9
 687 141 687 141 637.5 94.5 c 128,-1,10
 588 48 588 48 518 24 c 128,-1,11
 448 0 448 0 360 0 c 2,12,-1
 53 0 l 1,13,-1
 53 55 l 1,14,-1
 64 55 l 2,15,16
 101 55 101 55 125 62 c 128,-1,17
 149 69 149 69 149 91 c 2,18,-1
 149 620 l 2,19,20
 149 641 149 641 125 648.5 c 128,-1,21
 101 656 101 656 64 656 c 2,22,-1
 53 656 l 1,0,-1
360 650 m 2,23,-1
 242 650 l 1,24,-1
 242 61 l 1,25,-1
 360 61 l 2,26,27
 428 61 428 61 480 79.5 c 128,-1,28
 532 98 532 98 567.5 135.5 c 128,-1,29
 603 173 603 173 621.5 229 c 128,-1,30
 640 285 640 285 640 358 c 0,31,32
 640 432 640 432 621.5 487 c 128,-1,33
 603 542 603 542 567.5 578 c 128,-1,34
 532 614 532 614 480 632 c 128,-1,35
 428 650 428 650 360 650 c 2,23,-1
EndSplineSet
EndChar

StartChar: Dcaron
Encoding: 270 270 41
Width: 794
GlyphClass: 1
Flags: W
LayerCount: 2
Fore
SplineSet
350 782 m 1,0,-1
 432 782 l 1,1,-1
 553 927 l 1,2,-1
 553 943 l 1,3,-1
 513 943 l 1,4,-1
 364 829 l 1,5,-1
 425 831 l 1,6,-1
 278 943 l 1,7,-1
 228 943 l 1,8,-1
 228 927 l 1,9,-1
 350 782 l 1,0,-1
53 656 m 1,10,-1
 53 710 l 1,11,-1
 360 710 l 2,12,13
 448 710 448 710 518 687 c 128,-1,14
 588 664 588 664 637.5 619.5 c 128,-1,15
 687 575 687 575 713.5 509 c 128,-1,16
 740 443 740 443 740 358 c 0,17,18
 740 274 740 274 713.5 207.5 c 128,-1,19
 687 141 687 141 637.5 94.5 c 128,-1,20
 588 48 588 48 518 24 c 128,-1,21
 448 0 448 0 360 0 c 2,22,-1
 53 0 l 1,23,-1
 53 55 l 1,24,-1
 64 55 l 2,25,26
 101 55 101 55 125 62 c 128,-1,27
 149 69 149 69 149 91 c 2,28,-1
 149 620 l 2,29,30
 149 641 149 641 125 648.5 c 128,-1,31
 101 656 101 656 64 656 c 2,32,-1
 53 656 l 1,10,-1
360 650 m 2,33,-1
 242 650 l 1,34,-1
 242 61 l 1,35,-1
 360 61 l 2,36,37
 428 61 428 61 480 79.5 c 128,-1,38
 532 98 532 98 567.5 135.5 c 128,-1,39
 603 173 603 173 621.5 229 c 128,-1,40
 640 285 640 285 640 358 c 0,41,42
 640 432 640 432 621.5 487 c 128,-1,43
 603 542 603 542 567.5 578 c 128,-1,44
 532 614 532 614 480 632 c 128,-1,45
 428 650 428 650 360 650 c 2,33,-1
EndSplineSet
EndChar

StartChar: E
Encoding: 69 69 44
Width: 680
GlyphClass: 2
Flags: W
AnchorPoint: "Anchor-2" 470 0 basechar 0
AnchorPoint: "Anchor-1" 402 0 basechar 0
AnchorPoint: "Anchor-0" 377 741 basechar 0
LayerCount: 2
Fore
SplineSet
613 222 m 1,0,-1
 613 0 l 1,1,-1
 53 0 l 1,2,-1
 53 55 l 1,3,-1
 64 55 l 2,4,5
 101 55 101 55 125 62 c 128,-1,6
 149 69 149 69 149 91 c 2,7,-1
 149 620 l 2,8,9
 149 642 149 642 125 649 c 128,-1,10
 101 656 101 656 64 656 c 2,11,-1
 53 656 l 1,12,-1
 53 710 l 1,13,-1
 588 710 l 1,14,-1
 588 513 l 1,15,-1
 528 513 l 1,16,-1
 517 606 l 2,17,18
 515 624 515 624 502 633.5 c 128,-1,19
 489 643 489 643 462 646.5 c 128,-1,20
 435 650 435 650 392 650 c 2,21,-1
 241 650 l 1,22,-1
 241 61 l 1,23,-1
 414 61 l 2,24,25
 446 61 446 61 469.5 62.5 c 128,-1,26
 493 64 493 64 508 69 c 128,-1,27
 523 74 523 74 530.5 83 c 128,-1,28
 538 92 538 92 539 105 c 2,29,-1
 551 222 l 1,30,-1
 613 222 l 1,0,-1
218 392 m 1,31,32
 263 395 263 395 308 396.5 c 128,-1,33
 353 398 353 398 398 400 c 128,-1,34
 443 402 443 402 488 404 c 1,35,-1
 488 325 l 1,36,37
 443 327 443 327 398 329 c 128,-1,38
 353 331 353 331 308 333 c 128,-1,39
 263 335 263 335 218 337 c 1,40,-1
 218 392 l 1,31,32
EndSplineSet
Substitution2: "'ss01' Style Set 1 lookup 61 subtable" E.alt
EndChar

StartChar: Ecaron
Encoding: 282 282 53
Width: 680
GlyphClass: 1
Flags: W
LayerCount: 2
Fore
SplineSet
299 782 m 1,0,-1
 381 782 l 1,1,-1
 502 927 l 1,2,-1
 502 943 l 1,3,-1
 462 943 l 1,4,-1
 313 829 l 1,5,-1
 374 831 l 1,6,-1
 227 943 l 1,7,-1
 177 943 l 1,8,-1
 177 927 l 1,9,-1
 299 782 l 1,0,-1
613 222 m 1,10,-1
 613 0 l 1,11,-1
 53 0 l 1,12,-1
 53 55 l 1,13,-1
 64 55 l 2,14,15
 101 55 101 55 125 62 c 128,-1,16
 149 69 149 69 149 91 c 2,17,-1
 149 620 l 2,18,19
 149 642 149 642 125 649 c 128,-1,20
 101 656 101 656 64 656 c 2,21,-1
 53 656 l 1,22,-1
 53 710 l 1,23,-1
 588 710 l 1,24,-1
 588 513 l 1,25,-1
 528 513 l 1,26,-1
 517 606 l 2,27,28
 515 624 515 624 502 633.5 c 128,-1,29
 489 643 489 643 462 646.5 c 128,-1,30
 435 650 435 650 392 650 c 2,31,-1
 241 650 l 1,32,-1
 241 61 l 1,33,-1
 414 61 l 2,34,35
 446 61 446 61 469.5 62.5 c 128,-1,36
 493 64 493 64 508 69 c 128,-1,37
 523 74 523 74 530.5 83 c 128,-1,38
 538 92 538 92 539 105 c 2,39,-1
 551 222 l 1,40,-1
 613 222 l 1,10,-1
218 392 m 1,41,42
 263 395 263 395 308 396.5 c 128,-1,43
 353 398 353 398 398 400 c 128,-1,44
 443 402 443 402 488 404 c 1,45,-1
 488 325 l 1,46,47
 443 327 443 327 398 329 c 128,-1,48
 353 331 353 331 308 333 c 128,-1,49
 263 335 263 335 218 337 c 1,50,-1
 218 392 l 1,41,42
EndSplineSet
Substitution2: "'ss01' Style Set 1 lookup 61 subtable" Ecaron.alt
EndChar

StartChar: Edblgrave
Encoding: 516 516 54
Width: 680
GlyphClass: 1
Flags: W
LayerCount: 2
Fore
SplineSet
437 889 m 2,0,-1
 471 800 l 1,1,-1
 471 776 l 1,2,-1
 436 776 l 1,3,-1
 378 829 l 2,4,5
 357 848 357 848 343.5 863.5 c 128,-1,6
 330 879 330 879 330 899 c 0,7,8
 330 918 330 918 343.5 930 c 128,-1,9
 357 942 357 942 378 942 c 0,10,11
 393 942 393 942 403.5 936.5 c 128,-1,12
 414 931 414 931 422.5 919.5 c 128,-1,13
 431 908 431 908 437 889 c 2,0,-1
255 889 m 2,14,-1
 288 800 l 1,15,-1
 288 776 l 1,16,-1
 253 776 l 1,17,-1
 195 829 l 2,18,19
 174 848 174 848 160.5 863.5 c 128,-1,20
 147 879 147 879 147 899 c 0,21,22
 147 918 147 918 160.5 930 c 128,-1,23
 174 942 174 942 195 942 c 0,24,25
 210 942 210 942 221 936.5 c 128,-1,26
 232 931 232 931 240.5 919.5 c 128,-1,27
 249 908 249 908 255 889 c 2,14,-1
613 222 m 1,28,-1
 613 0 l 1,29,-1
 53 0 l 1,30,-1
 53 55 l 1,31,-1
 64 55 l 2,32,33
 101 55 101 55 125 62 c 128,-1,34
 149 69 149 69 149 91 c 2,35,-1
 149 620 l 2,36,37
 149 642 149 642 125 649 c 128,-1,38
 101 656 101 656 64 656 c 2,39,-1
 53 656 l 1,40,-1
 53 710 l 1,41,-1
 588 710 l 1,42,-1
 588 513 l 1,43,-1
 528 513 l 1,44,-1
 517 606 l 2,45,46
 515 624 515 624 502 633.5 c 128,-1,47
 489 643 489 643 462 646.5 c 128,-1,48
 435 650 435 650 392 650 c 2,49,-1
 241 650 l 1,50,-1
 241 61 l 1,51,-1
 414 61 l 2,52,53
 446 61 446 61 469.5 62.5 c 128,-1,54
 493 64 493 64 508 69 c 128,-1,55
 523 74 523 74 530.5 83 c 128,-1,56
 538 92 538 92 539 105 c 2,57,-1
 551 222 l 1,58,-1
 613 222 l 1,28,-1
218 392 m 1,59,60
 263 395 263 395 308 396.5 c 128,-1,61
 353 398 353 398 398.5 400 c 128,-1,62
 444 402 444 402 488 404 c 1,63,-1
 488 325 l 1,64,65
 444 327 444 327 398.5 329 c 128,-1,66
 353 331 353 331 308 333 c 128,-1,67
 263 335 263 335 218 337 c 1,68,-1
 218 392 l 1,59,60
EndSplineSet
Substitution2: "'ss01' Style Set 1 lookup 61 subtable" Edblgrave.alt
EndChar

StartChar: Einvertedbreve
Encoding: 518 518 55
Width: 680
GlyphClass: 1
Flags: W
LayerCount: 2
Fore
SplineSet
337 914 m 0,0,1
 288 914 288 914 253.5 897.5 c 128,-1,2
 219 881 219 881 199.5 846.5 c 128,-1,3
 180 812 180 812 178 758 c 1,4,-1
 239 758 l 1,5,6
 243 790 243 790 253 807.5 c 128,-1,7
 263 825 263 825 283 832 c 128,-1,8
 303 839 303 839 335 839 c 256,9,10
 367 839 367 839 386.5 832 c 128,-1,11
 406 825 406 825 416.5 807.5 c 128,-1,12
 427 790 427 790 430 758 c 1,13,-1
 497 758 l 1,14,15
 494 812 494 812 474.5 846.5 c 128,-1,16
 455 881 455 881 420 897.5 c 128,-1,17
 385 914 385 914 337 914 c 0,0,1
613 222 m 1,18,-1
 613 0 l 1,19,-1
 53 0 l 1,20,-1
 53 55 l 1,21,-1
 64 55 l 2,22,23
 101 55 101 55 125 62 c 128,-1,24
 149 69 149 69 149 91 c 2,25,-1
 149 620 l 2,26,27
 149 642 149 642 125 649 c 128,-1,28
 101 656 101 656 64 656 c 2,29,-1
 53 656 l 1,30,-1
 53 710 l 1,31,-1
 588 710 l 1,32,-1
 588 513 l 1,33,-1
 528 513 l 1,34,-1
 517 606 l 2,35,36
 515 624 515 624 502 633.5 c 128,-1,37
 489 643 489 643 462 646.5 c 128,-1,38
 435 650 435 650 392 650 c 2,39,-1
 241 650 l 1,40,-1
 241 61 l 1,41,-1
 414 61 l 2,42,43
 446 61 446 61 469.5 62.5 c 128,-1,44
 493 64 493 64 508 69 c 128,-1,45
 523 74 523 74 530.5 83 c 128,-1,46
 538 92 538 92 539 105 c 2,47,-1
 551 222 l 1,48,-1
 613 222 l 1,18,-1
218 392 m 1,49,50
 263 395 263 395 308 396.5 c 128,-1,51
 353 398 353 398 398.5 400 c 128,-1,52
 444 402 444 402 488 404 c 1,53,-1
 488 325 l 1,54,55
 444 327 444 327 398.5 329 c 128,-1,56
 353 331 353 331 308 333 c 128,-1,57
 263 335 263 335 218 337 c 1,58,-1
 218 392 l 1,49,50
EndSplineSet
Substitution2: "'ss01' Style Set 1 lookup 61 subtable" Einvertedbreve.alt
EndChar

StartChar: F
Encoding: 70 70 67
Width: 645
GlyphClass: 2
Flags: W
AnchorPoint: "Anchor-0" 312 741 basechar 0
LayerCount: 2
Fore
SplineSet
241 650 m 1,0,-1
 241 78 l 2,1,2
 241 70 241 70 249.5 65.5 c 128,-1,3
 258 61 258 61 271.5 58.5 c 128,-1,4
 285 56 285 56 302 55.5 c 128,-1,5
 319 55 319 55 336 55 c 2,6,-1
 355 55 l 1,7,-1
 355 0 l 1,8,-1
 53 0 l 1,9,-1
 53 55 l 1,10,-1
 64 55 l 2,11,12
 101 55 101 55 125 62 c 128,-1,13
 149 69 149 69 149 91 c 2,14,-1
 149 620 l 2,15,16
 149 642 149 642 125 649 c 128,-1,17
 101 656 101 656 64 656 c 2,18,-1
 53 656 l 1,19,-1
 53 710 l 1,20,-1
 591 710 l 1,21,-1
 591 511 l 1,22,-1
 531 511 l 1,23,-1
 520 606 l 2,24,25
 518 624 518 624 505 633.5 c 128,-1,26
 492 643 492 643 465 646.5 c 128,-1,27
 438 650 438 650 395 650 c 2,28,-1
 241 650 l 1,0,-1
218 384 m 1,29,30
 265 386 265 386 311.5 388 c 128,-1,31
 358 390 358 390 404.5 392 c 128,-1,32
 451 394 451 394 497 395 c 1,33,-1
 497 316 l 1,34,35
 451 319 451 319 404.5 321 c 128,-1,36
 358 323 358 323 311.5 325 c 128,-1,37
 265 327 265 327 218 328 c 1,38,-1
 218 384 l 1,29,30
EndSplineSet
Substitution2: "'ss01' Style Set 1 lookup 61 subtable" F.alt
EndChar

StartChar: G
Encoding: 71 71 68
Width: 810
GlyphClass: 2
Flags: W
AnchorPoint: "Anchor-1" 413 0 basechar 0
AnchorPoint: "Anchor-0" 413 741 basechar 0
LayerCount: 2
Fore
SplineSet
696 254 m 2,0,-1
 696 104 l 1,1,2
 681 85 681 85 654.5 64 c 128,-1,3
 628 43 628 43 590.5 24.5 c 128,-1,4
 553 6 553 6 508 -5.5 c 128,-1,5
 463 -17 463 -17 411 -17 c 0,6,7
 330 -17 330 -17 264.5 8 c 128,-1,8
 199 33 199 33 152 81 c 128,-1,9
 105 129 105 129 80 198 c 128,-1,10
 55 267 55 267 55 355 c 256,11,12
 55 443 55 443 81.5 512 c 128,-1,13
 108 581 108 581 155.5 629 c 128,-1,14
 203 677 203 677 266 702.5 c 128,-1,15
 329 728 329 728 401 728 c 0,16,17
 468 728 468 728 519 705.5 c 128,-1,18
 570 683 570 683 603.5 641 c 128,-1,19
 637 599 637 599 649 540 c 1,20,-1
 621 565 l 1,21,-1
 635 715 l 1,22,-1
 700 715 l 1,23,-1
 700 491 l 1,24,-1
 630 491 l 1,25,26
 613 543 613 543 582 582 c 128,-1,27
 551 621 551 621 506 643 c 128,-1,28
 461 665 461 665 402 665 c 0,29,30
 346 665 346 665 300.5 645 c 128,-1,31
 255 625 255 625 222.5 586 c 128,-1,32
 190 547 190 547 172.5 489 c 128,-1,33
 155 431 155 431 155 355 c 256,34,35
 155 279 155 279 172 220.5 c 128,-1,36
 189 162 189 162 222.5 123.5 c 128,-1,37
 256 85 256 85 303.5 65.5 c 128,-1,38
 351 46 351 46 412 46 c 0,39,40
 470 46 470 46 509 59 c 128,-1,41
 548 72 548 72 571.5 89 c 128,-1,42
 595 106 595 106 606 116 c 1,43,-1
 606 254 l 2,44,45
 606 277 606 277 579.5 284.5 c 128,-1,46
 553 292 553 292 515 292 c 2,47,-1
 494 292 l 1,48,-1
 494 346 l 1,49,-1
 785 346 l 1,50,-1
 785 292 l 1,51,-1
 771 292 l 2,52,53
 736 292 736 292 716 284.5 c 128,-1,54
 696 277 696 277 696 254 c 2,0,-1
EndSplineSet
EndChar

StartChar: Gcaron
Encoding: 486 486 73
Width: 810
GlyphClass: 1
Flags: W
LayerCount: 2
Fore
SplineSet
368 782 m 1,0,-1
 450 782 l 1,1,-1
 572 927 l 1,2,-1
 572 943 l 1,3,-1
 532 943 l 1,4,-1
 382 829 l 1,5,-1
 444 831 l 1,6,-1
 296 943 l 1,7,-1
 246 943 l 1,8,-1
 246 927 l 1,9,-1
 368 782 l 1,0,-1
696 254 m 2,10,-1
 696 104 l 1,11,12
 681 85 681 85 654.5 64 c 128,-1,13
 628 43 628 43 590.5 24.5 c 128,-1,14
 553 6 553 6 508 -5.5 c 128,-1,15
 463 -17 463 -17 411 -17 c 0,16,17
 330 -17 330 -17 264.5 8 c 128,-1,18
 199 33 199 33 152 81 c 128,-1,19
 105 129 105 129 80 198 c 128,-1,20
 55 267 55 267 55 355 c 256,21,22
 55 443 55 443 81.5 512 c 128,-1,23
 108 581 108 581 155.5 629 c 128,-1,24
 203 677 203 677 266 702.5 c 128,-1,25
 329 728 329 728 401 728 c 0,26,27
 468 728 468 728 519 705.5 c 128,-1,28
 570 683 570 683 603.5 641 c 128,-1,29
 637 599 637 599 649 540 c 1,30,-1
 621 565 l 1,31,-1
 635 715 l 1,32,-1
 700 715 l 1,33,-1
 700 491 l 1,34,-1
 630 491 l 1,35,36
 613 543 613 543 582 582 c 128,-1,37
 551 621 551 621 506 643 c 128,-1,38
 461 665 461 665 402 665 c 0,39,40
 346 665 346 665 300.5 645 c 128,-1,41
 255 625 255 625 222.5 586 c 128,-1,42
 190 547 190 547 172.5 489 c 128,-1,43
 155 431 155 431 155 355 c 256,44,45
 155 279 155 279 172 220.5 c 128,-1,46
 189 162 189 162 222.5 123.5 c 128,-1,47
 256 85 256 85 303.5 65.5 c 128,-1,48
 351 46 351 46 412 46 c 0,49,50
 470 46 470 46 509 59 c 128,-1,51
 548 72 548 72 571.5 89 c 128,-1,52
 595 106 595 106 606 116 c 1,53,-1
 606 254 l 2,54,55
 606 277 606 277 579.5 284.5 c 128,-1,56
 553 292 553 292 515 292 c 2,57,-1
 494 292 l 1,58,-1
 494 346 l 1,59,-1
 785 346 l 1,60,-1
 785 292 l 1,61,-1
 771 292 l 2,62,63
 736 292 736 292 716 284.5 c 128,-1,64
 696 277 696 277 696 254 c 2,10,-1
EndSplineSet
EndChar

StartChar: H
Encoding: 72 72 75
Width: 853
GlyphClass: 2
Flags: W
AnchorPoint: "Anchor-1" 427 0 basechar 0
AnchorPoint: "Anchor-0" 427 741 basechar 0
LayerCount: 2
Fore
SplineSet
216 396 m 1,0,-1
 638 396 l 1,1,-1
 638 336 l 1,2,-1
 216 336 l 1,3,-1
 216 396 l 1,0,-1
53 0 m 1,4,-1
 53 55 l 1,5,-1
 64 55 l 2,6,7
 101 55 101 55 125 62 c 128,-1,8
 149 69 149 69 149 91 c 2,9,-1
 149 620 l 2,10,11
 149 642 149 642 125 649 c 128,-1,12
 101 656 101 656 64 656 c 2,13,-1
 53 656 l 1,14,-1
 53 710 l 1,15,-1
 338 710 l 1,16,-1
 338 656 l 1,17,-1
 329 656 l 2,18,19
 315 656 315 656 299.5 655.5 c 128,-1,20
 284 655 284 655 271 653.5 c 128,-1,21
 258 652 258 652 250 650.5 c 128,-1,22
 242 649 242 649 242 646 c 2,23,-1
 242 64 l 2,24,25
 242 61 242 61 250 59.5 c 128,-1,26
 258 58 258 58 271 56.5 c 128,-1,27
 284 55 284 55 299.5 55 c 128,-1,28
 315 55 315 55 329 55 c 2,29,-1
 338 55 l 1,30,-1
 338 0 l 1,31,-1
 53 0 l 1,4,-1
516 0 m 1,32,-1
 516 54 l 1,33,-1
 525 54 l 2,34,35
 539 54 539 54 554.5 55 c 128,-1,36
 570 56 570 56 583 57 c 128,-1,37
 596 58 596 58 604 59.5 c 128,-1,38
 612 61 612 61 612 64 c 2,39,-1
 612 646 l 2,40,41
 612 649 612 649 604 650.5 c 128,-1,42
 596 652 596 652 583 653.5 c 128,-1,43
 570 655 570 655 554.5 655.5 c 128,-1,44
 539 656 539 656 525 656 c 2,45,-1
 516 656 l 1,46,-1
 516 710 l 1,47,-1
 801 710 l 1,48,-1
 801 656 l 1,49,-1
 790 656 l 2,50,51
 753 656 753 656 729 649 c 128,-1,52
 705 642 705 642 705 620 c 2,53,-1
 705 91 l 2,54,55
 705 69 705 69 729 62 c 128,-1,56
 753 55 753 55 790 55 c 2,57,-1
 801 55 l 1,58,-1
 801 0 l 1,59,-1
 516 0 l 1,32,-1
EndSplineSet
EndChar

StartChar: I
Encoding: 73 73 79
Width: 399
GlyphClass: 2
Flags: W
AnchorPoint: "Anchor-2" 263 0 basechar 0
AnchorPoint: "Anchor-1" 200 0 basechar 0
AnchorPoint: "Anchor-0" 200 741 basechar 0
LayerCount: 2
Fore
SplineSet
153 91 m 2,0,-1
 153 620 l 2,1,2
 153 642 153 642 129 649 c 128,-1,3
 105 656 105 656 68 656 c 2,4,-1
 53 656 l 1,5,-1
 53 710 l 1,6,-1
 347 710 l 1,7,-1
 347 656 l 1,8,-1
 331 656 l 2,9,10
 294 656 294 656 270 649 c 128,-1,11
 246 642 246 642 246 620 c 2,12,-1
 246 91 l 2,13,14
 246 69 246 69 270 62 c 128,-1,15
 294 55 294 55 331 55 c 2,16,-1
 347 55 l 1,17,-1
 347 0 l 1,18,-1
 53 0 l 1,19,-1
 53 55 l 1,20,-1
 68 55 l 2,21,22
 105 55 105 55 129 62 c 128,-1,23
 153 69 153 69 153 91 c 2,0,-1
EndSplineSet
EndChar

StartChar: Icaron
Encoding: 463 463 89
Width: 399
GlyphClass: 1
Flags: W
LayerCount: 2
Fore
SplineSet
159 782 m 1,0,-1
 241 782 l 1,1,-1
 362 927 l 1,2,-1
 362 943 l 1,3,-1
 322 943 l 1,4,-1
 173 829 l 1,5,-1
 234 831 l 1,6,-1
 87 943 l 1,7,-1
 37 943 l 1,8,-1
 37 927 l 1,9,-1
 159 782 l 1,0,-1
153 91 m 2,10,-1
 153 620 l 2,11,12
 153 642 153 642 129 649 c 128,-1,13
 105 656 105 656 68 656 c 2,14,-1
 53 656 l 1,15,-1
 53 710 l 1,16,-1
 347 710 l 1,17,-1
 347 656 l 1,18,-1
 331 656 l 2,19,20
 294 656 294 656 270 649 c 128,-1,21
 246 642 246 642 246 620 c 2,22,-1
 246 91 l 2,23,24
 246 69 246 69 270 62 c 128,-1,25
 294 55 294 55 331 55 c 2,26,-1
 347 55 l 1,27,-1
 347 0 l 1,28,-1
 53 0 l 1,29,-1
 53 55 l 1,30,-1
 68 55 l 2,31,32
 105 55 105 55 129 62 c 128,-1,33
 153 69 153 69 153 91 c 2,10,-1
EndSplineSet
EndChar

StartChar: Idblgrave
Encoding: 520 520 90
Width: 399
GlyphClass: 1
Flags: W
LayerCount: 2
Fore
SplineSet
294 889 m 2,0,-1
 328 800 l 1,1,-1
 328 776 l 1,2,-1
 294 776 l 1,3,-1
 235 829 l 2,4,5
 214 848 214 848 201 863.5 c 128,-1,6
 188 879 188 879 188 899 c 0,7,8
 188 918 188 918 201 930 c 128,-1,9
 214 942 214 942 236 942 c 0,10,11
 250 942 250 942 260.5 936.5 c 128,-1,12
 271 931 271 931 279.5 919.5 c 128,-1,13
 288 908 288 908 294 889 c 2,0,-1
113 889 m 2,14,-1
 145 800 l 1,15,-1
 145 776 l 1,16,-1
 111 776 l 1,17,-1
 52 829 l 2,18,19
 31 848 31 848 18 863.5 c 128,-1,20
 5 879 5 879 5 899 c 0,21,22
 5 918 5 918 18 930 c 128,-1,23
 31 942 31 942 53 942 c 0,24,25
 67 942 67 942 78 936.5 c 128,-1,26
 89 931 89 931 97.5 919.5 c 128,-1,27
 106 908 106 908 113 889 c 2,14,-1
153 91 m 2,28,-1
 153 620 l 2,29,30
 153 642 153 642 129 649 c 128,-1,31
 105 656 105 656 68 656 c 2,32,-1
 53 656 l 1,33,-1
 53 710 l 1,34,-1
 347 710 l 1,35,-1
 347 656 l 1,36,-1
 331 656 l 2,37,38
 294 656 294 656 270 649 c 128,-1,39
 246 642 246 642 246 620 c 2,40,-1
 246 91 l 2,41,42
 246 69 246 69 270 62 c 128,-1,43
 294 55 294 55 331 55 c 2,44,-1
 347 55 l 1,45,-1
 347 0 l 1,46,-1
 53 0 l 1,47,-1
 53 55 l 1,48,-1
 68 55 l 2,49,50
 105 55 105 55 129 62 c 128,-1,51
 153 69 153 69 153 91 c 2,28,-1
EndSplineSet
EndChar

StartChar: Iinvertedbreve
Encoding: 522 522 91
Width: 399
GlyphClass: 1
Flags: W
LayerCount: 2
Fore
SplineSet
200 914 m 0,0,1
 151 914 151 914 116 897.5 c 128,-1,2
 81 881 81 881 62 846.5 c 128,-1,3
 43 812 43 812 41 758 c 1,4,-1
 102 758 l 1,5,6
 105 790 105 790 115.5 807.5 c 128,-1,7
 126 825 126 825 146 832 c 128,-1,8
 166 839 166 839 198 839 c 0,9,10
 229 839 229 839 248.5 832 c 128,-1,11
 268 825 268 825 279 807.5 c 128,-1,12
 290 790 290 790 293 758 c 1,13,-1
 360 758 l 1,14,15
 357 812 357 812 337 846.5 c 128,-1,16
 317 881 317 881 282.5 897.5 c 128,-1,17
 248 914 248 914 200 914 c 0,0,1
153 91 m 2,18,-1
 153 620 l 2,19,20
 153 642 153 642 129 649 c 128,-1,21
 105 656 105 656 68 656 c 2,22,-1
 53 656 l 1,23,-1
 53 710 l 1,24,-1
 347 710 l 1,25,-1
 347 656 l 1,26,-1
 331 656 l 2,27,28
 294 656 294 656 270 649 c 128,-1,29
 246 642 246 642 246 620 c 2,30,-1
 246 91 l 2,31,32
 246 69 246 69 270 62 c 128,-1,33
 294 55 294 55 331 55 c 2,34,-1
 347 55 l 1,35,-1
 347 0 l 1,36,-1
 53 0 l 1,37,-1
 53 55 l 1,38,-1
 68 55 l 2,39,40
 105 55 105 55 129 62 c 128,-1,41
 153 69 153 69 153 91 c 2,18,-1
EndSplineSet
EndChar

StartChar: J
Encoding: 74 74 94
Width: 619
GlyphClass: 2
Flags: W
AnchorPoint: "Anchor-0" 416 741 basechar 0
LayerCount: 2
Fore
SplineSet
274 710 m 1,0,-1
 574 710 l 1,1,-1
 574 656 l 1,2,-1
 558 656 l 2,3,4
 521 656 521 656 497 649 c 128,-1,5
 473 642 473 642 473 620 c 2,6,-1
 473 226 l 2,7,8
 473 159 473 159 457 112 c 128,-1,9
 441 65 441 65 410.5 37 c 128,-1,10
 380 9 380 9 337.5 -4 c 128,-1,11
 295 -17 295 -17 243 -17 c 0,12,13
 194 -17 194 -17 155.5 -5.5 c 128,-1,14
 117 6 117 6 89.5 23.5 c 128,-1,15
 62 41 62 41 44 57 c 1,16,-1
 44 195 l 1,17,-1
 143 195 l 1,18,-1
 143 62 l 1,19,20
 125 67 125 67 114 74.5 c 128,-1,21
 103 82 103 82 99.5 88.5 c 128,-1,22
 96 95 96 95 100.5 98 c 128,-1,23
 105 101 105 101 117 97 c 1,24,25
 128 84 128 84 145.5 71.5 c 128,-1,26
 163 59 163 59 187 51.5 c 128,-1,27
 211 44 211 44 243 44 c 0,28,29
 288 44 288 44 318.5 59 c 128,-1,30
 349 74 349 74 365.5 113.5 c 128,-1,31
 382 153 382 153 382 226 c 2,32,-1
 382 620 l 2,33,34
 382 635 382 635 371 642.5 c 128,-1,35
 360 650 360 650 341 653 c 128,-1,36
 322 656 322 656 297 656 c 2,37,-1
 274 656 l 1,38,-1
 274 710 l 1,0,-1
EndSplineSet
EndChar

StartChar: K
Encoding: 75 75 96
Width: 761
GlyphClass: 2
Flags: W
AnchorPoint: "Anchor-1" 392 0 basechar 0
AnchorPoint: "Anchor-0" 392 741 basechar 0
LayerCount: 2
Fore
SplineSet
53 0 m 1,0,-1
 53 55 l 1,1,-1
 64 55 l 2,2,3
 101 55 101 55 125 62 c 128,-1,4
 149 69 149 69 149 91 c 2,5,-1
 149 620 l 2,6,7
 149 642 149 642 125 649 c 128,-1,8
 101 656 101 656 64 656 c 2,9,-1
 53 656 l 1,10,-1
 53 710 l 1,11,-1
 335 710 l 1,12,-1
 335 656 l 1,13,-1
 326 656 l 2,14,15
 313 656 313 656 298 655.5 c 128,-1,16
 283 655 283 655 270.5 653.5 c 128,-1,17
 258 652 258 652 250 650.5 c 128,-1,18
 242 649 242 649 242 646 c 2,19,-1
 242 64 l 2,20,21
 242 61 242 61 250 60 c 128,-1,22
 258 59 258 59 270.5 57.5 c 128,-1,23
 283 56 283 56 298 55.5 c 128,-1,24
 313 55 313 55 326 55 c 2,25,-1
 335 55 l 1,26,-1
 335 0 l 1,27,-1
 53 0 l 1,0,-1
443 0 m 1,28,-1
 443 55 l 1,29,-1
 452 55 l 2,30,31
 472 55 472 55 491.5 56 c 128,-1,32
 511 57 511 57 524 59.5 c 128,-1,33
 537 62 537 62 537 65 c 2,34,-1
 283 345 l 1,35,-1
 283 369 l 1,36,-1
 548 645 l 2,37,38
 548 649 548 649 536 651 c 128,-1,39
 524 653 524 653 505.5 654.5 c 128,-1,40
 487 656 487 656 467 656 c 2,41,-1
 458 656 l 1,42,-1
 458 710 l 1,43,-1
 711 710 l 1,44,-1
 711 656 l 1,45,-1
 687 656 l 2,46,47
 670 656 670 656 656.5 653 c 128,-1,48
 643 650 643 650 632 644 c 128,-1,49
 621 638 621 638 610 627 c 2,50,-1
 348 356 l 1,51,-1
 352 400 l 1,52,-1
 642 82 l 2,53,54
 653 70 653 70 664 64 c 128,-1,55
 675 58 675 58 689.5 56.5 c 128,-1,56
 704 55 704 55 724 55 c 2,57,-1
 738 55 l 1,58,-1
 738 0 l 1,59,-1
 443 0 l 1,28,-1
EndSplineSet
EndChar

StartChar: L
Encoding: 76 76 98
Width: 642
GlyphClass: 2
Flags: W
AnchorPoint: "Anchor-2" 488 710 basechar 0
AnchorPoint: "Anchor-1" 393 0 basechar 0
AnchorPoint: "Anchor-0" 393 741 basechar 0
LayerCount: 2
Fore
SplineSet
345 710 m 1,0,-1
 53 710 l 1,1,-1
 53 656 l 1,2,-1
 64 656 l 2,3,4
 101 656 101 656 125 649 c 128,-1,5
 149 642 149 642 149 620 c 2,6,-1
 149 91 l 2,7,8
 149 69 149 69 125 62 c 128,-1,9
 101 55 101 55 64 55 c 2,10,-1
 53 55 l 1,11,-1
 53 0 l 1,12,-1
 595 0 l 1,13,-1
 595 230 l 1,14,-1
 532 230 l 1,15,-1
 520 105 l 2,16,17
 519 87 519 87 505.5 77.5 c 128,-1,18
 492 68 492 68 465 64.5 c 128,-1,19
 438 61 438 61 395 61 c 2,20,-1
 242 61 l 1,21,-1
 242 620 l 2,22,23
 242 642 242 642 267.5 649 c 128,-1,24
 293 656 293 656 332 656 c 2,25,-1
 345 656 l 1,26,-1
 345 710 l 1,0,-1
EndSplineSet
EndChar

StartChar: M
Encoding: 77 77 104
Width: 979
GlyphClass: 2
Flags: W
AnchorPoint: "Anchor-1" 478 0 basechar 0
LayerCount: 2
Fore
SplineSet
54 0 m 1,0,-1
 54 55 l 1,1,-1
 65 55 l 2,2,3
 90 55 90 55 109 58 c 128,-1,4
 128 61 128 61 139 69 c 128,-1,5
 150 77 150 77 150 91 c 2,6,-1
 150 620 l 2,7,8
 150 635 150 635 139 642.5 c 128,-1,9
 128 650 128 650 109 653 c 128,-1,10
 90 656 90 656 65 656 c 2,11,-1
 54 656 l 1,12,-1
 54 710 l 1,13,-1
 299 710 l 1,14,-1
 498 92 l 1,15,-1
 482 90 l 1,16,-1
 686 710 l 1,17,-1
 925 710 l 1,18,-1
 925 656 l 1,19,-1
 914 656 l 2,20,21
 877 656 877 656 853 649 c 128,-1,22
 829 642 829 642 829 620 c 2,23,-1
 829 91 l 2,24,25
 829 69 829 69 853 62 c 128,-1,26
 877 55 877 55 914 55 c 2,27,-1
 925 55 l 1,28,-1
 925 0 l 1,29,-1
 651 0 l 1,30,-1
 651 55 l 1,31,-1
 660 55 l 2,32,33
 677 55 677 55 694.5 56 c 128,-1,34
 712 57 712 57 724.5 59 c 128,-1,35
 737 61 737 61 737 64 c 2,36,-1
 737 690 l 1,37,-1
 747 694 l 1,38,-1
 508 -2 l 1,39,-1
 446 -2 l 1,40,-1
 207 694 l 1,41,-1
 217 692 l 1,42,-1
 217 64 l 2,43,44
 217 61 217 61 230.5 59 c 128,-1,45
 244 57 244 57 262.5 56 c 128,-1,46
 281 55 281 55 294 55 c 2,47,-1
 298 55 l 1,48,-1
 298 0 l 1,49,-1
 54 0 l 1,0,-1
EndSplineSet
EndChar

StartChar: N
Encoding: 78 78 106
Width: 824
GlyphClass: 2
Flags: W
AnchorPoint: "Anchor-1" 422 0 basechar 0
AnchorPoint: "Anchor-0" 422 741 basechar 0
LayerCount: 2
Fore
SplineSet
54 0 m 1,0,-1
 54 55 l 1,1,-1
 65 55 l 2,2,3
 90 55 90 55 109 58.5 c 128,-1,4
 128 62 128 62 139 70.5 c 128,-1,5
 150 79 150 79 150 93 c 2,6,-1
 150 620 l 2,7,8
 150 635 150 635 139 642.5 c 128,-1,9
 128 650 128 650 109 653 c 128,-1,10
 90 656 90 656 65 656 c 2,11,-1
 54 656 l 1,12,-1
 54 710 l 1,13,-1
 278 710 l 1,14,-1
 629 93 l 1,15,-1
 617 88 l 1,16,-1
 617 643 l 2,17,18
 617 647 617 647 603.5 649.5 c 128,-1,19
 590 652 590 652 570 654 c 128,-1,20
 550 656 550 656 530 656 c 2,21,-1
 516 656 l 1,22,-1
 516 710 l 1,23,-1
 781 710 l 1,24,-1
 781 656 l 1,25,-1
 769 656 l 2,26,27
 745 656 745 656 725.5 652 c 128,-1,28
 706 648 706 648 695 640 c 128,-1,29
 684 632 684 632 684 617 c 2,30,-1
 684 0 l 1,31,-1
 584 0 l 1,32,-1
 203 668 l 1,33,-1
 217 672 l 1,34,-1
 217 67 l 2,35,36
 217 64 217 64 231 61 c 128,-1,37
 245 58 245 58 265.5 56.5 c 128,-1,38
 286 55 286 55 304 55 c 2,39,-1
 318 55 l 1,40,-1
 318 0 l 1,41,-1
 54 0 l 1,0,-1
EndSplineSet
EndChar

StartChar: Ncaron
Encoding: 327 327 110
Width: 824
GlyphClass: 1
Flags: W
LayerCount: 2
Fore
SplineSet
376 782 m 1,0,-1
 458 782 l 1,1,-1
 579 927 l 1,2,-1
 579 943 l 1,3,-1
 539 943 l 1,4,-1
 390 829 l 1,5,-1
 451 831 l 1,6,-1
 304 943 l 1,7,-1
 254 943 l 1,8,-1
 254 927 l 1,9,-1
 376 782 l 1,0,-1
54 0 m 1,10,-1
 54 55 l 1,11,-1
 65 55 l 2,12,13
 90 55 90 55 109 58.5 c 128,-1,14
 128 62 128 62 139 70.5 c 128,-1,15
 150 79 150 79 150 93 c 2,16,-1
 150 620 l 2,17,18
 150 635 150 635 139 642.5 c 128,-1,19
 128 650 128 650 109 653 c 128,-1,20
 90 656 90 656 65 656 c 2,21,-1
 54 656 l 1,22,-1
 54 710 l 1,23,-1
 278 710 l 1,24,-1
 629 93 l 1,25,-1
 617 88 l 1,26,-1
 617 643 l 2,27,28
 617 647 617 647 603.5 649.5 c 128,-1,29
 590 652 590 652 570 654 c 128,-1,30
 550 656 550 656 530 656 c 2,31,-1
 516 656 l 1,32,-1
 516 710 l 1,33,-1
 781 710 l 1,34,-1
 781 656 l 1,35,-1
 769 656 l 2,36,37
 745 656 745 656 725.5 652 c 128,-1,38
 706 648 706 648 695 640 c 128,-1,39
 684 632 684 632 684 617 c 2,40,-1
 684 0 l 1,41,-1
 584 0 l 1,42,-1
 203 668 l 1,43,-1
 217 672 l 1,44,-1
 217 67 l 2,45,46
 217 64 217 64 231 61 c 128,-1,47
 245 58 245 58 265.5 56.5 c 128,-1,48
 286 55 286 55 304 55 c 2,49,-1
 318 55 l 1,50,-1
 318 0 l 1,51,-1
 54 0 l 1,10,-1
EndSplineSet
EndChar

StartChar: O
Encoding: 79 79 114
Width: 813
GlyphClass: 2
Flags: W
AnchorPoint: "Anchor-2" 448 0 basechar 0
AnchorPoint: "Anchor-1" 407 0 basechar 0
AnchorPoint: "Anchor-0" 407 741 basechar 0
LayerCount: 2
Fore
SplineSet
407 -17 m 256,0,1
 330 -17 330 -17 266 8.5 c 128,-1,2
 202 34 202 34 154.5 82.5 c 128,-1,3
 107 131 107 131 81 200 c 128,-1,4
 55 269 55 269 55 355 c 0,5,6
 55 442 55 442 81 511 c 128,-1,7
 107 580 107 580 154.5 628.5 c 128,-1,8
 202 677 202 677 266 702.5 c 128,-1,9
 330 728 330 728 407 728 c 256,10,11
 484 728 484 728 548 702.5 c 128,-1,12
 612 677 612 677 659.5 628.5 c 128,-1,13
 707 580 707 580 733 511 c 128,-1,14
 759 442 759 442 759 355 c 0,15,16
 759 269 759 269 733 200 c 128,-1,17
 707 131 707 131 659.5 82.5 c 128,-1,18
 612 34 612 34 548 8.5 c 128,-1,19
 484 -17 484 -17 407 -17 c 256,0,1
407 45 m 256,20,21
 465 45 465 45 511.5 65 c 128,-1,22
 558 85 558 85 591 124 c 128,-1,23
 624 163 624 163 641.5 221.5 c 128,-1,24
 659 280 659 280 659 355 c 0,25,26
 659 431 659 431 641.5 489 c 128,-1,27
 624 547 624 547 591 586.5 c 128,-1,28
 558 626 558 626 511.5 646 c 128,-1,29
 465 666 465 666 407 666 c 256,30,31
 349 666 349 666 302 646 c 128,-1,32
 255 626 255 626 222.5 586.5 c 128,-1,33
 190 547 190 547 172.5 489 c 128,-1,34
 155 431 155 431 155 355 c 0,35,36
 155 280 155 280 172.5 221.5 c 128,-1,37
 190 163 190 163 222.5 124 c 128,-1,38
 255 85 255 85 302 65 c 128,-1,39
 349 45 349 45 407 45 c 256,20,21
EndSplineSet
EndChar

StartChar: Ohorn
Encoding: 416 416 123
Width: 840
GlyphClass: 2
Flags: W
AnchorPoint: "Anchor-1" 417 -35 basechar 0
AnchorPoint: "Anchor-0" 417 742 basechar 0
LayerCount: 2
Fore
SplineSet
406 45 m 0,0,1
 465 45 465 45 511.5 65 c 128,-1,2
 558 85 558 85 591 124 c 128,-1,3
 624 163 624 163 641.5 221.5 c 128,-1,4
 659 280 659 280 659 355 c 0,5,6
 659 431 659 431 641.5 489 c 128,-1,7
 624 547 624 547 591 586.5 c 128,-1,8
 558 626 558 626 511.5 646 c 128,-1,9
 465 666 465 666 406 666 c 0,10,11
 348 666 348 666 301 646 c 128,-1,12
 254 626 254 626 221.5 586.5 c 128,-1,13
 189 547 189 547 171.5 489 c 128,-1,14
 154 431 154 431 154 355 c 0,15,16
 154 280 154 280 171.5 221.5 c 128,-1,17
 189 163 189 163 221.5 124 c 128,-1,18
 254 85 254 85 301 65 c 128,-1,19
 348 45 348 45 406 45 c 0,0,1
596 641 m 1,20,-1
 570 666 l 1,21,22
 612 646 612 646 646.5 616.5 c 128,-1,23
 681 587 681 587 706 548.5 c 128,-1,24
 731 510 731 510 744.5 461.5 c 128,-1,25
 758 413 758 413 758 355 c 0,26,27
 758 269 758 269 732 200 c 128,-1,28
 706 131 706 131 659 82.5 c 128,-1,29
 612 34 612 34 547.5 8.5 c 128,-1,30
 483 -17 483 -17 406 -17 c 0,31,32
 330 -17 330 -17 266 8.5 c 128,-1,33
 202 34 202 34 154.5 82.5 c 128,-1,34
 107 131 107 131 81 200 c 128,-1,35
 55 269 55 269 55 355 c 0,36,37
 55 442 55 442 81 511 c 128,-1,38
 107 580 107 580 154.5 628.5 c 128,-1,39
 202 677 202 677 266 702.5 c 128,-1,40
 330 728 330 728 406 728 c 0,41,42
 444 728 444 728 472.5 723.5 c 128,-1,43
 501 719 501 719 524.5 713.5 c 128,-1,44
 548 708 548 708 569.5 703.5 c 128,-1,45
 591 699 591 699 613 699 c 0,46,47
 647 699 647 699 672 713 c 128,-1,48
 697 727 697 727 714 752 c 128,-1,49
 731 777 731 777 741.5 811.5 c 128,-1,50
 752 846 752 846 755 888 c 1,51,-1
 841 888 l 1,52,53
 837 825 837 825 821 778.5 c 128,-1,54
 805 732 805 732 780 701.5 c 128,-1,55
 755 671 755 671 724 656.5 c 128,-1,56
 693 642 693 642 659 642 c 0,57,58
 647 642 647 642 635.5 644 c 128,-1,59
 624 646 624 646 613 649.5 c 128,-1,60
 602 653 602 653 590.5 657.5 c 128,-1,61
 579 662 579 662 566 667 c 1,62,-1
 596 664 l 1,63,-1
 596 641 l 1,20,-1
EndSplineSet
EndChar

StartChar: Ocaron
Encoding: 465 465 124
Width: 813
GlyphClass: 1
Flags: W
LayerCount: 2
Fore
SplineSet
366 782 m 1,0,-1
 448 782 l 1,1,-1
 569 927 l 1,2,-1
 569 943 l 1,3,-1
 529 943 l 1,4,-1
 380 829 l 1,5,-1
 441 831 l 1,6,-1
 294 943 l 1,7,-1
 244 943 l 1,8,-1
 244 927 l 1,9,-1
 366 782 l 1,0,-1
407 -17 m 0,10,11
 330 -17 330 -17 265.5 8.5 c 128,-1,12
 201 34 201 34 153.5 82.5 c 128,-1,13
 106 131 106 131 80.5 200 c 128,-1,14
 55 269 55 269 55 355 c 0,15,16
 55 442 55 442 80.5 511 c 128,-1,17
 106 580 106 580 153.5 628.5 c 128,-1,18
 201 677 201 677 265.5 702.5 c 128,-1,19
 330 728 330 728 407 728 c 0,20,21
 483 728 483 728 547.5 702.5 c 128,-1,22
 612 677 612 677 659.5 628.5 c 128,-1,23
 707 580 707 580 733 511 c 128,-1,24
 759 442 759 442 759 355 c 0,25,26
 759 269 759 269 733 200 c 128,-1,27
 707 131 707 131 659.5 82.5 c 128,-1,28
 612 34 612 34 547.5 8.5 c 128,-1,29
 483 -17 483 -17 407 -17 c 0,10,11
407 45 m 256,30,31
 465 45 465 45 511.5 65 c 128,-1,32
 558 85 558 85 591 124 c 128,-1,33
 624 163 624 163 641.5 221.5 c 128,-1,34
 659 280 659 280 659 355 c 0,35,36
 659 431 659 431 641.5 489 c 128,-1,37
 624 547 624 547 591 586.5 c 128,-1,38
 558 626 558 626 511.5 646 c 128,-1,39
 465 666 465 666 407 666 c 256,40,41
 349 666 349 666 302 646 c 128,-1,42
 255 626 255 626 222 586.5 c 128,-1,43
 189 547 189 547 172 489 c 128,-1,44
 155 431 155 431 155 355 c 0,45,46
 155 280 155 280 172 221.5 c 128,-1,47
 189 163 189 163 222 124 c 128,-1,48
 255 85 255 85 302 65 c 128,-1,49
 349 45 349 45 407 45 c 256,30,31
EndSplineSet
EndChar

StartChar: Oogonek
Encoding: 490 490 125
Width: 813
GlyphClass: 1
Flags: W
LayerCount: 2
Fore
SplineSet
407 45 m 256,0,1
 465 45 465 45 511.5 65 c 128,-1,2
 558 85 558 85 591 124 c 128,-1,3
 624 163 624 163 641.5 221.5 c 128,-1,4
 659 280 659 280 659 355 c 0,5,6
 659 431 659 431 641.5 489 c 128,-1,7
 624 547 624 547 591 586.5 c 128,-1,8
 558 626 558 626 511.5 646 c 128,-1,9
 465 666 465 666 407 666 c 0,10,11
 348 666 348 666 301.5 646 c 128,-1,12
 255 626 255 626 222.5 586.5 c 128,-1,13
 190 547 190 547 172.5 489 c 128,-1,14
 155 431 155 431 155 355 c 0,15,16
 155 280 155 280 172.5 221.5 c 128,-1,17
 190 163 190 163 222.5 124 c 128,-1,18
 255 85 255 85 302 65 c 128,-1,19
 349 45 349 45 407 45 c 256,0,1
649 72 m 0,20,21
 627 51 627 51 599.5 31 c 128,-1,22
 572 11 572 11 543.5 -8 c 128,-1,23
 515 -27 515 -27 491.5 -48 c 128,-1,24
 468 -69 468 -69 453.5 -92 c 128,-1,25
 439 -115 439 -115 439 -143 c 0,26,27
 439 -166 439 -166 451.5 -177.5 c 128,-1,28
 464 -189 464 -189 484 -189 c 0,29,30
 509 -189 509 -189 526.5 -176.5 c 128,-1,31
 544 -164 544 -164 556 -151 c 1,32,-1
 589 -186 l 1,33,34
 575 -202 575 -202 557 -215.5 c 128,-1,35
 539 -229 539 -229 516 -236.5 c 128,-1,36
 493 -244 493 -244 462 -244 c 0,37,38
 428 -244 428 -244 401 -233.5 c 128,-1,39
 374 -223 374 -223 358.5 -203 c 128,-1,40
 343 -183 343 -183 343 -153 c 0,41,42
 343 -128 343 -128 354 -107 c 128,-1,43
 365 -86 365 -86 388.5 -65.5 c 128,-1,44
 412 -45 412 -45 449 -21 c 128,-1,45
 486 3 486 3 539 32 c 1,46,-1
 526 1 l 1,47,48
 508 -5 508 -5 488.5 -9 c 128,-1,49
 469 -13 469 -13 448.5 -15 c 128,-1,50
 428 -17 428 -17 407 -17 c 0,51,52
 330 -17 330 -17 266 8.5 c 128,-1,53
 202 34 202 34 154.5 82.5 c 128,-1,54
 107 131 107 131 81 200 c 128,-1,55
 55 269 55 269 55 355 c 0,56,57
 55 442 55 442 81 511 c 128,-1,58
 107 580 107 580 154.5 628.5 c 128,-1,59
 202 677 202 677 266 702.5 c 128,-1,60
 330 728 330 728 407 728 c 256,61,62
 484 728 484 728 548 702.5 c 128,-1,63
 612 677 612 677 659.5 628.5 c 128,-1,64
 707 580 707 580 733 511 c 128,-1,65
 759 442 759 442 759 355 c 0,66,67
 759 296 759 296 746 244 c 128,-1,68
 733 192 733 192 709 149 c 128,-1,69
 685 106 685 106 649 72 c 0,20,21
EndSplineSet
EndChar

StartChar: Odblgrave
Encoding: 524 524 126
Width: 813
GlyphClass: 1
Flags: W
LayerCount: 2
Fore
SplineSet
505 889 m 2,0,-1
 539 800 l 1,1,-1
 539 776 l 1,2,-1
 505 776 l 1,3,-1
 446 829 l 2,4,5
 425 848 425 848 412 863.5 c 128,-1,6
 399 879 399 879 399 899 c 0,7,8
 399 918 399 918 412.5 930 c 128,-1,9
 426 942 426 942 447 942 c 0,10,11
 461 942 461 942 472 936.5 c 128,-1,12
 483 931 483 931 491 919.5 c 128,-1,13
 499 908 499 908 505 889 c 2,0,-1
324 889 m 2,14,-1
 356 800 l 1,15,-1
 356 776 l 1,16,-1
 322 776 l 1,17,-1
 263 829 l 2,18,19
 242 848 242 848 229 863.5 c 128,-1,20
 216 879 216 879 216 899 c 0,21,22
 216 918 216 918 229.5 930 c 128,-1,23
 243 942 243 942 264 942 c 0,24,25
 278 942 278 942 289 936.5 c 128,-1,26
 300 931 300 931 309 919.5 c 128,-1,27
 318 908 318 908 324 889 c 2,14,-1
407 -17 m 256,28,29
 330 -17 330 -17 266 8.5 c 128,-1,30
 202 34 202 34 154.5 82.5 c 128,-1,31
 107 131 107 131 81 200 c 128,-1,32
 55 269 55 269 55 355 c 0,33,34
 55 442 55 442 81 511 c 128,-1,35
 107 580 107 580 154.5 628.5 c 128,-1,36
 202 677 202 677 266 702.5 c 128,-1,37
 330 728 330 728 407 728 c 256,38,39
 484 728 484 728 548 702.5 c 128,-1,40
 612 677 612 677 659.5 628.5 c 128,-1,41
 707 580 707 580 733 511 c 128,-1,42
 759 442 759 442 759 355 c 0,43,44
 759 269 759 269 733 200 c 128,-1,45
 707 131 707 131 659.5 82.5 c 128,-1,46
 612 34 612 34 548 8.5 c 128,-1,47
 484 -17 484 -17 407 -17 c 256,28,29
407 45 m 256,48,49
 465 45 465 45 511.5 65 c 128,-1,50
 558 85 558 85 591 124 c 128,-1,51
 624 163 624 163 641.5 221.5 c 128,-1,52
 659 280 659 280 659 355 c 0,53,54
 659 431 659 431 641.5 489 c 128,-1,55
 624 547 624 547 591 586.5 c 128,-1,56
 558 626 558 626 511.5 646 c 128,-1,57
 465 666 465 666 407 666 c 256,58,59
 349 666 349 666 302 646 c 128,-1,60
 255 626 255 626 222.5 586.5 c 128,-1,61
 190 547 190 547 172.5 489 c 128,-1,62
 155 431 155 431 155 355 c 0,63,64
 155 280 155 280 172.5 221.5 c 128,-1,65
 190 163 190 163 222.5 124 c 128,-1,66
 255 85 255 85 302 65 c 128,-1,67
 349 45 349 45 407 45 c 256,48,49
EndSplineSet
EndChar

StartChar: Oinvertedbreve
Encoding: 526 526 127
Width: 813
GlyphClass: 1
Flags: W
LayerCount: 2
Fore
SplineSet
407 914 m 0,0,1
 358 914 358 914 323.5 897.5 c 128,-1,2
 289 881 289 881 269.5 846.5 c 128,-1,3
 250 812 250 812 248 758 c 1,4,-1
 309 758 l 1,5,6
 313 790 313 790 323 807.5 c 128,-1,7
 333 825 333 825 353 832 c 128,-1,8
 373 839 373 839 405 839 c 256,9,10
 437 839 437 839 456.5 832 c 128,-1,11
 476 825 476 825 486.5 807.5 c 128,-1,12
 497 790 497 790 500 758 c 1,13,-1
 567 758 l 1,14,15
 564 812 564 812 544.5 846.5 c 128,-1,16
 525 881 525 881 490 897.5 c 128,-1,17
 455 914 455 914 407 914 c 0,0,1
407 -17 m 256,18,19
 330 -17 330 -17 266 8.5 c 128,-1,20
 202 34 202 34 154.5 82.5 c 128,-1,21
 107 131 107 131 81 200 c 128,-1,22
 55 269 55 269 55 355 c 0,23,24
 55 442 55 442 81 511 c 128,-1,25
 107 580 107 580 154.5 628.5 c 128,-1,26
 202 677 202 677 266 702.5 c 128,-1,27
 330 728 330 728 407 728 c 256,28,29
 484 728 484 728 548 702.5 c 128,-1,30
 612 677 612 677 659.5 628.5 c 128,-1,31
 707 580 707 580 733 511 c 128,-1,32
 759 442 759 442 759 355 c 0,33,34
 759 269 759 269 733 200 c 128,-1,35
 707 131 707 131 659.5 82.5 c 128,-1,36
 612 34 612 34 548 8.5 c 128,-1,37
 484 -17 484 -17 407 -17 c 256,18,19
407 45 m 256,38,39
 465 45 465 45 511.5 65 c 128,-1,40
 558 85 558 85 591 124 c 128,-1,41
 624 163 624 163 641.5 221.5 c 128,-1,42
 659 280 659 280 659 355 c 0,43,44
 659 431 659 431 641.5 489 c 128,-1,45
 624 547 624 547 591 586.5 c 128,-1,46
 558 626 558 626 511.5 646 c 128,-1,47
 465 666 465 666 407 666 c 256,48,49
 349 666 349 666 302 646 c 128,-1,50
 255 626 255 626 222.5 586.5 c 128,-1,51
 190 547 190 547 172.5 489 c 128,-1,52
 155 431 155 431 155 355 c 0,53,54
 155 280 155 280 172.5 221.5 c 128,-1,55
 190 163 190 163 222.5 124 c 128,-1,56
 255 85 255 85 302 65 c 128,-1,57
 349 45 349 45 407 45 c 256,38,39
EndSplineSet
EndChar

StartChar: P
Encoding: 80 80 147
Width: 674
GlyphClass: 2
Flags: W
AnchorPoint: "Anchor-0" 319 741 basechar 0
LayerCount: 2
Fore
SplineSet
243 64 m 2,0,-1
 243 650 l 1,1,-1
 370 650 l 2,2,3
 423 650 423 650 457.5 632.5 c 128,-1,4
 492 615 492 615 509 582 c 128,-1,5
 526 549 526 549 526 499 c 256,6,7
 526 449 526 449 509 414 c 128,-1,8
 492 379 492 379 457 360.5 c 128,-1,9
 422 342 422 342 368 342 c 2,10,-1
 215 342 l 1,11,-1
 215 283 l 1,12,-1
 369 283 l 2,13,14
 447 283 447 283 504.5 309 c 128,-1,15
 562 335 562 335 593.5 383.5 c 128,-1,16
 625 432 625 432 625 500 c 0,17,18
 625 602 625 602 558 656 c 128,-1,19
 491 710 491 710 371 710 c 2,20,-1
 54 710 l 1,21,-1
 54 656 l 1,22,-1
 65 656 l 2,23,24
 102 656 102 656 126 649 c 128,-1,25
 150 642 150 642 150 620 c 2,26,-1
 150 91 l 2,27,28
 150 69 150 69 126 62 c 128,-1,29
 102 55 102 55 65 55 c 2,30,-1
 54 55 l 1,31,-1
 54 0 l 1,32,-1
 352 0 l 1,33,-1
 352 55 l 1,34,-1
 329 55 l 2,35,36
 313 55 313 55 298 55.5 c 128,-1,37
 283 56 283 56 270.5 57 c 128,-1,38
 258 58 258 58 250.5 59.5 c 128,-1,39
 243 61 243 61 243 64 c 2,0,-1
EndSplineSet
EndChar

StartChar: Q
Encoding: 81 81 148
Width: 813
GlyphClass: 1
Flags: W
LayerCount: 2
Fore
SplineSet
368 0 m 1,0,-1
 438 10 l 1,1,2
 438 -41 438 -41 454 -72 c 128,-1,3
 470 -103 470 -103 502.5 -117.5 c 128,-1,4
 535 -132 535 -132 583 -132 c 0,5,6
 616 -132 616 -132 643 -128 c 128,-1,7
 670 -124 670 -124 695 -117.5 c 128,-1,8
 720 -111 720 -111 744 -105 c 1,9,-1
 744 -196 l 1,10,11
 711 -202 711 -202 672 -206.5 c 128,-1,12
 633 -211 633 -211 593 -211 c 0,13,14
 522 -211 522 -211 471 -188.5 c 128,-1,15
 420 -166 420 -166 393.5 -118.5 c 128,-1,16
 367 -71 367 -71 368 0 c 1,0,-1
407 -17 m 256,17,18
 330 -17 330 -17 266 8.5 c 128,-1,19
 202 34 202 34 154.5 82.5 c 128,-1,20
 107 131 107 131 81 200 c 128,-1,21
 55 269 55 269 55 355 c 0,22,23
 55 442 55 442 81 511 c 128,-1,24
 107 580 107 580 154.5 628.5 c 128,-1,25
 202 677 202 677 266 702.5 c 128,-1,26
 330 728 330 728 407 728 c 256,27,28
 484 728 484 728 548 702.5 c 128,-1,29
 612 677 612 677 659.5 628.5 c 128,-1,30
 707 580 707 580 733 511 c 128,-1,31
 759 442 759 442 759 355 c 0,32,33
 759 269 759 269 733 200 c 128,-1,34
 707 131 707 131 659.5 82.5 c 128,-1,35
 612 34 612 34 548 8.5 c 128,-1,36
 484 -17 484 -17 407 -17 c 256,17,18
407 45 m 256,37,38
 465 45 465 45 511.5 65 c 128,-1,39
 558 85 558 85 590.5 124 c 128,-1,40
 623 163 623 163 640.5 221.5 c 128,-1,41
 658 280 658 280 659 355 c 0,42,43
 660 431 660 431 642.5 489 c 128,-1,44
 625 547 625 547 592 586.5 c 128,-1,45
 559 626 559 626 512 646 c 128,-1,46
 465 666 465 666 407 666 c 256,47,48
 349 666 349 666 302 646 c 128,-1,49
 255 626 255 626 222.5 586.5 c 128,-1,50
 190 547 190 547 172.5 489 c 128,-1,51
 155 431 155 431 155 355 c 0,52,53
 155 280 155 280 172.5 221.5 c 128,-1,54
 190 163 190 163 222.5 124 c 128,-1,55
 255 85 255 85 302 65 c 128,-1,56
 349 45 349 45 407 45 c 256,37,38
EndSplineSet
EndChar

StartChar: R
Encoding: 82 82 149
Width: 733
GlyphClass: 2
Flags: W
AnchorPoint: "Anchor-1" 411 0 basechar 0
AnchorPoint: "Anchor-0" 376 741 basechar 0
LayerCount: 2
Fore
SplineSet
378 321 m 1,0,-1
 554 0 l 1,1,-1
 704 0 l 1,2,-1
 704 55 l 1,3,-1
 695 55 l 2,4,5
 675 55 675 55 659 58 c 128,-1,6
 643 61 643 61 630.5 71 c 128,-1,7
 618 81 618 81 606 99 c 2,8,-1
 465 343 l 1,9,-1
 378 321 l 1,0,-1
241 65 m 2,10,-1
 241 650 l 1,11,-1
 364 650 l 2,12,13
 416 650 416 650 450 633.5 c 128,-1,14
 484 617 484 617 500.5 585 c 128,-1,15
 517 553 517 553 517 507 c 256,16,17
 517 461 517 461 500.5 427.5 c 128,-1,18
 484 394 484 394 449 376 c 128,-1,19
 414 358 414 358 359 358 c 2,20,-1
 226 358 l 1,21,-1
 226 301 l 1,22,-1
 380 301 l 2,23,24
 390 301 390 301 399.5 303 c 128,-1,25
 409 305 409 305 419 308 c 128,-1,26
 429 311 429 311 439 315 c 0,27,28
 494 328 494 328 533.5 355.5 c 128,-1,29
 573 383 573 383 595 422.5 c 128,-1,30
 617 462 617 462 617 513 c 0,31,32
 617 575 617 575 587 619 c 128,-1,33
 557 663 557 663 501 686.5 c 128,-1,34
 445 710 445 710 366 710 c 2,35,-1
 53 710 l 1,36,-1
 53 656 l 1,37,-1
 64 656 l 2,38,39
 101 656 101 656 125 649 c 128,-1,40
 149 642 149 642 149 620 c 2,41,-1
 149 91 l 2,42,43
 149 69 149 69 125 62 c 128,-1,44
 101 55 101 55 64 55 c 2,45,-1
 53 55 l 1,46,-1
 53 0 l 1,47,-1
 344 0 l 1,48,-1
 344 55 l 1,49,-1
 327 55 l 2,50,51
 312 55 312 55 296.5 55.5 c 128,-1,52
 281 56 281 56 268.5 57.5 c 128,-1,53
 256 59 256 59 248.5 60.5 c 128,-1,54
 241 62 241 62 241 65 c 2,10,-1
EndSplineSet
EndChar

StartChar: Rcaron
Encoding: 344 344 152
Width: 733
GlyphClass: 1
Flags: W
LayerCount: 2
Fore
SplineSet
313 782 m 1,0,-1
 395 782 l 1,1,-1
 516 927 l 1,2,-1
 516 943 l 1,3,-1
 476 943 l 1,4,-1
 327 829 l 1,5,-1
 388 831 l 1,6,-1
 241 943 l 1,7,-1
 191 943 l 1,8,-1
 191 927 l 1,9,-1
 313 782 l 1,0,-1
378 321 m 1,10,-1
 554 0 l 1,11,-1
 704 0 l 1,12,-1
 704 55 l 1,13,-1
 695 55 l 2,14,15
 675 55 675 55 659 58 c 128,-1,16
 643 61 643 61 630.5 71 c 128,-1,17
 618 81 618 81 606 99 c 2,18,-1
 465 343 l 1,19,-1
 378 321 l 1,10,-1
241 65 m 2,20,-1
 241 650 l 1,21,-1
 364 650 l 2,22,23
 416 650 416 650 450 633.5 c 128,-1,24
 484 617 484 617 500.5 585 c 128,-1,25
 517 553 517 553 517 507 c 256,26,27
 517 461 517 461 500.5 427.5 c 128,-1,28
 484 394 484 394 449 376 c 128,-1,29
 414 358 414 358 359 358 c 2,30,-1
 226 358 l 1,31,-1
 226 301 l 1,32,-1
 380 301 l 2,33,34
 390 301 390 301 399.5 303 c 128,-1,35
 409 305 409 305 419 308 c 128,-1,36
 429 311 429 311 439 315 c 0,37,38
 494 328 494 328 533.5 355.5 c 128,-1,39
 573 383 573 383 595 422.5 c 128,-1,40
 617 462 617 462 617 513 c 0,41,42
 617 575 617 575 587 619 c 128,-1,43
 557 663 557 663 501 686.5 c 128,-1,44
 445 710 445 710 366 710 c 2,45,-1
 53 710 l 1,46,-1
 53 656 l 1,47,-1
 64 656 l 2,48,49
 101 656 101 656 125 649 c 128,-1,50
 149 642 149 642 149 620 c 2,51,-1
 149 91 l 2,52,53
 149 69 149 69 125 62 c 128,-1,54
 101 55 101 55 64 55 c 2,55,-1
 53 55 l 1,56,-1
 53 0 l 1,57,-1
 344 0 l 1,58,-1
 344 55 l 1,59,-1
 327 55 l 2,60,61
 312 55 312 55 296.5 55.5 c 128,-1,62
 281 56 281 56 268.5 57.5 c 128,-1,63
 256 59 256 59 248.5 60.5 c 128,-1,64
 241 62 241 62 241 65 c 2,20,-1
EndSplineSet
EndChar

StartChar: Rdblgrave
Encoding: 528 528 153
Width: 733
GlyphClass: 1
Flags: W
LayerCount: 2
Fore
SplineSet
452 889 m 2,0,-1
 486 800 l 1,1,-1
 486 776 l 1,2,-1
 452 776 l 1,3,-1
 393 829 l 2,4,5
 372 848 372 848 359 863.5 c 128,-1,6
 346 879 346 879 346 899 c 0,7,8
 346 918 346 918 359.5 930 c 128,-1,9
 373 942 373 942 394 942 c 0,10,11
 408 942 408 942 419 936.5 c 128,-1,12
 430 931 430 931 438 919.5 c 128,-1,13
 446 908 446 908 452 889 c 2,0,-1
271 889 m 2,14,-1
 303 800 l 1,15,-1
 303 776 l 1,16,-1
 269 776 l 1,17,-1
 210 829 l 2,18,19
 189 848 189 848 176 863.5 c 128,-1,20
 163 879 163 879 163 899 c 0,21,22
 163 918 163 918 176.5 930 c 128,-1,23
 190 942 190 942 211 942 c 0,24,25
 225 942 225 942 236 936.5 c 128,-1,26
 247 931 247 931 256 919.5 c 128,-1,27
 265 908 265 908 271 889 c 2,14,-1
378 321 m 1,28,-1
 554 0 l 1,29,-1
 704 0 l 1,30,-1
 704 55 l 1,31,-1
 695 55 l 2,32,33
 675 55 675 55 659 58 c 128,-1,34
 643 61 643 61 630.5 71 c 128,-1,35
 618 81 618 81 606 99 c 2,36,-1
 465 343 l 1,37,-1
 378 321 l 1,28,-1
241 65 m 2,38,-1
 241 650 l 1,39,-1
 364 650 l 2,40,41
 416 650 416 650 450 633.5 c 128,-1,42
 484 617 484 617 500.5 585 c 128,-1,43
 517 553 517 553 517 507 c 256,44,45
 517 461 517 461 500.5 427.5 c 128,-1,46
 484 394 484 394 449 376 c 128,-1,47
 414 358 414 358 359 358 c 2,48,-1
 226 358 l 1,49,-1
 226 301 l 1,50,-1
 380 301 l 2,51,52
 390 301 390 301 399.5 303 c 128,-1,53
 409 305 409 305 419 308 c 128,-1,54
 429 311 429 311 439 315 c 0,55,56
 494 328 494 328 533.5 355.5 c 128,-1,57
 573 383 573 383 595 422.5 c 128,-1,58
 617 462 617 462 617 513 c 0,59,60
 617 575 617 575 587 619 c 128,-1,61
 557 663 557 663 501 686.5 c 128,-1,62
 445 710 445 710 366 710 c 2,63,-1
 53 710 l 1,64,-1
 53 656 l 1,65,-1
 64 656 l 2,66,67
 101 656 101 656 125 649 c 128,-1,68
 149 642 149 642 149 620 c 2,69,-1
 149 91 l 2,70,71
 149 69 149 69 125 62 c 128,-1,72
 101 55 101 55 64 55 c 2,73,-1
 53 55 l 1,74,-1
 53 0 l 1,75,-1
 344 0 l 1,76,-1
 344 55 l 1,77,-1
 327 55 l 2,78,79
 312 55 312 55 296.5 55.5 c 128,-1,80
 281 56 281 56 268.5 57.5 c 128,-1,81
 256 59 256 59 248.5 60.5 c 128,-1,82
 241 62 241 62 241 65 c 2,38,-1
EndSplineSet
EndChar

StartChar: Rinvertedbreve
Encoding: 530 530 154
Width: 733
GlyphClass: 1
Flags: W
LayerCount: 2
Fore
SplineSet
355 914 m 0,0,1
 306 914 306 914 271.5 897.5 c 128,-1,2
 237 881 237 881 217.5 846.5 c 128,-1,3
 198 812 198 812 196 758 c 1,4,-1
 257 758 l 1,5,6
 261 790 261 790 271 807.5 c 128,-1,7
 281 825 281 825 301 832 c 128,-1,8
 321 839 321 839 353 839 c 256,9,10
 385 839 385 839 404.5 832 c 128,-1,11
 424 825 424 825 434.5 807.5 c 128,-1,12
 445 790 445 790 448 758 c 1,13,-1
 515 758 l 1,14,15
 512 812 512 812 492.5 846.5 c 128,-1,16
 473 881 473 881 438 897.5 c 128,-1,17
 403 914 403 914 355 914 c 0,0,1
378 321 m 1,18,-1
 554 0 l 1,19,-1
 704 0 l 1,20,-1
 704 55 l 1,21,-1
 695 55 l 2,22,23
 675 55 675 55 659 58 c 128,-1,24
 643 61 643 61 630.5 71 c 128,-1,25
 618 81 618 81 606 99 c 2,26,-1
 465 343 l 1,27,-1
 378 321 l 1,18,-1
241 65 m 2,28,-1
 241 650 l 1,29,-1
 364 650 l 2,30,31
 416 650 416 650 450 633.5 c 128,-1,32
 484 617 484 617 500.5 585 c 128,-1,33
 517 553 517 553 517 507 c 256,34,35
 517 461 517 461 500.5 427.5 c 128,-1,36
 484 394 484 394 449 376 c 128,-1,37
 414 358 414 358 359 358 c 2,38,-1
 226 358 l 1,39,-1
 226 301 l 1,40,-1
 380 301 l 2,41,42
 390 301 390 301 399.5 303 c 128,-1,43
 409 305 409 305 419 308 c 128,-1,44
 429 311 429 311 439 315 c 0,45,46
 494 328 494 328 533.5 355.5 c 128,-1,47
 573 383 573 383 595 422.5 c 128,-1,48
 617 462 617 462 617 513 c 0,49,50
 617 575 617 575 587 619 c 128,-1,51
 557 663 557 663 501 686.5 c 128,-1,52
 445 710 445 710 366 710 c 2,53,-1
 53 710 l 1,54,-1
 53 656 l 1,55,-1
 64 656 l 2,56,57
 101 656 101 656 125 649 c 128,-1,58
 149 642 149 642 149 620 c 2,59,-1
 149 91 l 2,60,61
 149 69 149 69 125 62 c 128,-1,62
 101 55 101 55 64 55 c 2,63,-1
 53 55 l 1,64,-1
 53 0 l 1,65,-1
 344 0 l 1,66,-1
 344 55 l 1,67,-1
 327 55 l 2,68,69
 312 55 312 55 296.5 55.5 c 128,-1,70
 281 56 281 56 268.5 57.5 c 128,-1,71
 256 59 256 59 248.5 60.5 c 128,-1,72
 241 62 241 62 241 65 c 2,28,-1
EndSplineSet
EndChar

StartChar: S
Encoding: 83 83 157
Width: 647
GlyphClass: 2
Flags: W
AnchorPoint: "Anchor-1" 355 0 basechar 0
AnchorPoint: "Anchor-0" 355 741 basechar 0
LayerCount: 2
Fore
SplineSet
356 44 m 0,0,1
 407 44 407 44 440.5 56.5 c 128,-1,2
 474 69 474 69 490.5 97 c 128,-1,3
 507 125 507 125 507 171 c 0,4,5
 507 212 507 212 490 238.5 c 128,-1,6
 473 265 473 265 444 281.5 c 128,-1,7
 415 298 415 298 379 309 c 128,-1,8
 343 320 343 320 305 329 c 0,9,10
 261 341 261 341 220.5 354.5 c 128,-1,11
 180 368 180 368 148 390.5 c 128,-1,12
 116 413 116 413 97.5 449.5 c 128,-1,13
 79 486 79 486 79 542 c 0,14,15
 79 599 79 599 105.5 640.5 c 128,-1,16
 132 682 132 682 181 705 c 128,-1,17
 230 728 230 728 296 728 c 0,18,19
 349 728 349 728 390.5 712 c 128,-1,20
 432 696 432 696 462 658.5 c 128,-1,21
 492 621 492 621 507 555 c 1,22,-1
 483 576 l 1,23,-1
 495 715 l 1,24,-1
 557 715 l 1,25,-1
 557 511 l 1,26,-1
 490 511 l 1,27,28
 475 562 475 562 448.5 597 c 128,-1,29
 422 632 422 632 385 650 c 128,-1,30
 348 668 348 668 300 668 c 256,31,32
 252 668 252 668 221.5 654 c 128,-1,33
 191 640 191 640 177 613.5 c 128,-1,34
 163 587 163 587 163 550 c 256,35,36
 163 513 163 513 178.5 489.5 c 128,-1,37
 194 466 194 466 221 451.5 c 128,-1,38
 248 437 248 437 284 426.5 c 128,-1,39
 320 416 320 416 361 405 c 0,40,41
 404 394 404 394 445.5 380 c 128,-1,42
 487 366 487 366 521.5 343 c 128,-1,43
 556 320 556 320 576 283.5 c 128,-1,44
 596 247 596 247 596 192 c 0,45,46
 596 121 596 121 564.5 74.5 c 128,-1,47
 533 28 533 28 479.5 5.5 c 128,-1,48
 426 -17 426 -17 358 -17 c 0,49,50
 295 -17 295 -17 242.5 2.5 c 128,-1,51
 190 22 190 22 153.5 66.5 c 128,-1,52
 117 111 117 111 103 187 c 1,53,-1
 134 159 l 1,54,-1
 122 -5 l 1,55,-1
 57 -5 l 1,56,-1
 57 230 l 1,57,-1
 125 230 l 1,58,59
 140 169 140 169 172 127 c 128,-1,60
 204 85 204 85 250.5 64.5 c 128,-1,61
 297 44 297 44 356 44 c 0,0,1
EndSplineSet
EndChar

StartChar: Scaron
Encoding: 352 352 161
Width: 647
GlyphClass: 1
Flags: W
LayerCount: 2
Fore
SplineSet
282 782 m 1,0,-1
 364 782 l 1,1,-1
 485 927 l 1,2,-1
 485 943 l 1,3,-1
 445 943 l 1,4,-1
 296 829 l 1,5,-1
 357 831 l 1,6,-1
 210 943 l 1,7,-1
 160 943 l 1,8,-1
 160 927 l 1,9,-1
 282 782 l 1,0,-1
356 44 m 0,10,11
 407 44 407 44 440.5 56.5 c 128,-1,12
 474 69 474 69 490.5 97 c 128,-1,13
 507 125 507 125 507 171 c 0,14,15
 507 212 507 212 490 238.5 c 128,-1,16
 473 265 473 265 444 281.5 c 128,-1,17
 415 298 415 298 379 309 c 128,-1,18
 343 320 343 320 305 329 c 0,19,20
 261 341 261 341 220.5 354.5 c 128,-1,21
 180 368 180 368 148 390.5 c 128,-1,22
 116 413 116 413 97.5 449.5 c 128,-1,23
 79 486 79 486 79 542 c 0,24,25
 79 599 79 599 105.5 640.5 c 128,-1,26
 132 682 132 682 181 705 c 128,-1,27
 230 728 230 728 296 728 c 0,28,29
 349 728 349 728 390.5 712 c 128,-1,30
 432 696 432 696 462 658.5 c 128,-1,31
 492 621 492 621 507 555 c 1,32,-1
 483 576 l 1,33,-1
 495 715 l 1,34,-1
 557 715 l 1,35,-1
 557 511 l 1,36,-1
 490 511 l 1,37,38
 475 562 475 562 448.5 597 c 128,-1,39
 422 632 422 632 385 650 c 128,-1,40
 348 668 348 668 300 668 c 256,41,42
 252 668 252 668 221.5 654 c 128,-1,43
 191 640 191 640 177 613.5 c 128,-1,44
 163 587 163 587 163 550 c 256,45,46
 163 513 163 513 178.5 489.5 c 128,-1,47
 194 466 194 466 221 451.5 c 128,-1,48
 248 437 248 437 284 426.5 c 128,-1,49
 320 416 320 416 361 405 c 0,50,51
 404 394 404 394 445.5 380 c 128,-1,52
 487 366 487 366 521.5 343 c 128,-1,53
 556 320 556 320 576 283.5 c 128,-1,54
 596 247 596 247 596 192 c 0,55,56
 596 121 596 121 564.5 74.5 c 128,-1,57
 533 28 533 28 479.5 5.5 c 128,-1,58
 426 -17 426 -17 358 -17 c 0,59,60
 295 -17 295 -17 242.5 2.5 c 128,-1,61
 190 22 190 22 153.5 66.5 c 128,-1,62
 117 111 117 111 103 187 c 1,63,-1
 134 159 l 1,64,-1
 122 -5 l 1,65,-1
 57 -5 l 1,66,-1
 57 230 l 1,67,-1
 125 230 l 1,68,69
 140 169 140 169 172 127 c 128,-1,70
 204 85 204 85 250.5 64.5 c 128,-1,71
 297 44 297 44 356 44 c 0,10,11
EndSplineSet
EndChar

StartChar: Scarondotaccent
Encoding: 7782 7782 166
Width: 647
GlyphClass: 1
Flags: W
LayerCount: 2
Fore
SplineSet
283 782 m 1,0,-1
 365 782 l 1,1,-1
 486 927 l 1,2,-1
 486 943 l 1,3,-1
 446 943 l 1,4,-1
 297 829 l 1,5,-1
 358 831 l 1,6,-1
 211 943 l 1,7,-1
 161 943 l 1,8,-1
 161 927 l 1,9,-1
 283 782 l 1,0,-1
356 44 m 0,10,11
 407 44 407 44 440.5 56.5 c 128,-1,12
 474 69 474 69 490.5 97 c 128,-1,13
 507 125 507 125 507 171 c 0,14,15
 507 212 507 212 490 238.5 c 128,-1,16
 473 265 473 265 444 281.5 c 128,-1,17
 415 298 415 298 379 309 c 128,-1,18
 343 320 343 320 305 329 c 0,19,20
 261 341 261 341 220.5 354.5 c 128,-1,21
 180 368 180 368 148 390.5 c 128,-1,22
 116 413 116 413 97.5 449.5 c 128,-1,23
 79 486 79 486 79 542 c 0,24,25
 79 599 79 599 105.5 640.5 c 128,-1,26
 132 682 132 682 181 705 c 128,-1,27
 230 728 230 728 296 728 c 0,28,29
 349 728 349 728 390.5 712 c 128,-1,30
 432 696 432 696 462 658.5 c 128,-1,31
 492 621 492 621 507 555 c 1,32,-1
 483 576 l 1,33,-1
 495 715 l 1,34,-1
 557 715 l 1,35,-1
 557 511 l 1,36,-1
 490 511 l 1,37,38
 475 562 475 562 448.5 597 c 128,-1,39
 422 632 422 632 385 650 c 128,-1,40
 348 668 348 668 300 668 c 256,41,42
 252 668 252 668 221.5 654 c 128,-1,43
 191 640 191 640 177 613.5 c 128,-1,44
 163 587 163 587 163 550 c 256,45,46
 163 513 163 513 178.5 489.5 c 128,-1,47
 194 466 194 466 221 451.5 c 128,-1,48
 248 437 248 437 284 426.5 c 128,-1,49
 320 416 320 416 361 405 c 0,50,51
 404 394 404 394 445.5 380 c 128,-1,52
 487 366 487 366 521.5 343 c 128,-1,53
 556 320 556 320 576 283.5 c 128,-1,54
 596 247 596 247 596 192 c 0,55,56
 596 121 596 121 564.5 74.5 c 128,-1,57
 533 28 533 28 479.5 5.5 c 128,-1,58
 426 -17 426 -17 358 -17 c 0,59,60
 295 -17 295 -17 242.5 2.5 c 128,-1,61
 190 22 190 22 153.5 66.5 c 128,-1,62
 117 111 117 111 103 187 c 1,63,-1
 134 159 l 1,64,-1
 122 -5 l 1,65,-1
 57 -5 l 1,66,-1
 57 230 l 1,67,-1
 125 230 l 1,68,69
 140 169 140 169 172 127 c 128,-1,70
 204 85 204 85 250.5 64.5 c 128,-1,71
 297 44 297 44 356 44 c 0,10,11
324 968 m 0,72,73
 295 968 295 968 277 984.5 c 128,-1,74
 259 1001 259 1001 259 1032 c 256,75,76
 259 1063 259 1063 277 1079 c 128,-1,77
 295 1095 295 1095 324 1095 c 0,78,79
 352 1095 352 1095 370.5 1079 c 128,-1,80
 389 1063 389 1063 389 1032 c 256,81,82
 389 1001 389 1001 370.5 984.5 c 128,-1,83
 352 968 352 968 324 968 c 0,72,73
EndSplineSet
EndChar

StartChar: T
Encoding: 84 84 168
Width: 704
GlyphClass: 2
Flags: W
AnchorPoint: "Anchor-1" 357 0 basechar 0
AnchorPoint: "Anchor-0" 357 741 basechar 0
LayerCount: 2
Fore
SplineSet
306 91 m 2,0,-1
 306 651 l 1,1,-1
 249 651 l 2,2,3
 203 651 203 651 175 647 c 128,-1,4
 147 643 147 643 134 632 c 128,-1,5
 121 621 121 621 119 603 c 2,6,-1
 108 491 l 1,7,-1
 48 491 l 1,8,-1
 48 710 l 1,9,-1
 657 710 l 1,10,-1
 657 491 l 1,11,-1
 597 491 l 1,12,-1
 586 603 l 2,13,14
 584 621 584 621 570.5 632 c 128,-1,15
 557 643 557 643 529 647 c 128,-1,16
 501 651 501 651 456 651 c 2,17,-1
 399 651 l 1,18,-1
 399 91 l 2,19,20
 399 69 399 69 424 62 c 128,-1,21
 449 55 449 55 486 55 c 2,22,-1
 504 55 l 1,23,-1
 504 0 l 1,24,-1
 200 0 l 1,25,-1
 200 55 l 1,26,-1
 218 55 l 2,27,28
 255 55 255 55 280.5 62 c 128,-1,29
 306 69 306 69 306 91 c 2,0,-1
EndSplineSet
EndChar

StartChar: Tcaron
Encoding: 356 356 170
Width: 704
GlyphClass: 1
Flags: W
LayerCount: 2
Fore
SplineSet
308 782 m 1,0,-1
 390 782 l 1,1,-1
 512 927 l 1,2,-1
 512 943 l 1,3,-1
 472 943 l 1,4,-1
 322 829 l 1,5,-1
 384 831 l 1,6,-1
 236 943 l 1,7,-1
 186 943 l 1,8,-1
 186 927 l 1,9,-1
 308 782 l 1,0,-1
306 91 m 2,10,-1
 306 651 l 1,11,-1
 249 651 l 2,12,13
 203 651 203 651 175 647 c 128,-1,14
 147 643 147 643 134 632 c 128,-1,15
 121 621 121 621 119 603 c 2,16,-1
 108 491 l 1,17,-1
 48 491 l 1,18,-1
 48 710 l 1,19,-1
 657 710 l 1,20,-1
 657 491 l 1,21,-1
 597 491 l 1,22,-1
 586 603 l 2,23,24
 584 621 584 621 570.5 632 c 128,-1,25
 557 643 557 643 529 647 c 128,-1,26
 501 651 501 651 456 651 c 2,27,-1
 399 651 l 1,28,-1
 399 91 l 2,29,30
 399 69 399 69 424 62 c 128,-1,31
 449 55 449 55 486 55 c 2,32,-1
 504 55 l 1,33,-1
 504 0 l 1,34,-1
 200 0 l 1,35,-1
 200 55 l 1,36,-1
 218 55 l 2,37,38
 255 55 255 55 280.5 62 c 128,-1,39
 306 69 306 69 306 91 c 2,10,-1
EndSplineSet
EndChar

StartChar: U
Encoding: 85 85 174
Width: 821
GlyphClass: 2
Flags: W
AnchorPoint: "Anchor-2" 471 0 basechar 0
AnchorPoint: "Anchor-1" 415 0 basechar 0
AnchorPoint: "Anchor-0" 415 741 basechar 0
LayerCount: 2
Fore
SplineSet
237 264 m 2,0,1
 237 204 237 204 251 164 c 128,-1,2
 265 124 265 124 290 100 c 128,-1,3
 315 76 315 76 349 65 c 128,-1,4
 383 54 383 54 424 54 c 256,5,6
 465 54 465 54 498.5 65 c 128,-1,7
 532 76 532 76 557 100 c 128,-1,8
 582 124 582 124 596 164 c 128,-1,9
 610 204 610 204 610 264 c 2,10,-1
 610 635 l 2,11,12
 610 640 610 640 602 644 c 128,-1,13
 594 648 594 648 581 650.5 c 128,-1,14
 568 653 568 653 552.5 654.5 c 128,-1,15
 537 656 537 656 523 656 c 2,16,-1
 514 656 l 1,17,-1
 514 710 l 1,18,-1
 773 710 l 1,19,-1
 773 656 l 1,20,-1
 762 656 l 2,21,22
 738 656 738 656 718.5 651.5 c 128,-1,23
 699 647 699 647 688 637 c 128,-1,24
 677 627 677 627 677 610 c 2,25,-1
 677 264 l 2,26,27
 677 189 677 189 657 135.5 c 128,-1,28
 637 82 637 82 600.5 48 c 128,-1,29
 564 14 564 14 516.5 -1.5 c 128,-1,30
 469 -17 469 -17 414 -17 c 0,31,32
 356 -17 356 -17 306.5 -1 c 128,-1,33
 257 15 257 15 220.5 48.5 c 128,-1,34
 184 82 184 82 164 135.5 c 128,-1,35
 144 189 144 189 144 264 c 2,36,-1
 144 620 l 2,37,38
 144 642 144 642 120 649 c 128,-1,39
 96 656 96 656 59 656 c 2,40,-1
 48 656 l 1,41,-1
 48 710 l 1,42,-1
 333 710 l 1,43,-1
 333 656 l 1,44,-1
 324 656 l 2,45,46
 310 656 310 656 294.5 655.5 c 128,-1,47
 279 655 279 655 266 653.5 c 128,-1,48
 253 652 253 652 245 650.5 c 128,-1,49
 237 649 237 649 237 646 c 2,50,-1
 237 264 l 2,0,1
EndSplineSet
EndChar

StartChar: Uogonek
Encoding: 370 370 184
Width: 821
GlyphClass: 1
Flags: W
LayerCount: 2
Fore
SplineSet
533 38 m 1,0,-1
 535 6 l 1,1,2
 509 -6 509 -6 478 -11.5 c 128,-1,3
 447 -17 447 -17 415 -17 c 0,4,5
 356 -17 356 -17 306.5 -1 c 128,-1,6
 257 15 257 15 220.5 48.5 c 128,-1,7
 184 82 184 82 164 135.5 c 128,-1,8
 144 189 144 189 144 264 c 2,9,-1
 144 620 l 2,10,11
 144 642 144 642 120 649 c 128,-1,12
 96 656 96 656 59 656 c 2,13,-1
 48 656 l 1,14,-1
 48 710 l 1,15,-1
 333 710 l 1,16,-1
 333 656 l 1,17,-1
 324 656 l 2,18,19
 310 656 310 656 294.5 655.5 c 128,-1,20
 279 655 279 655 266 653.5 c 128,-1,21
 253 652 253 652 245 650.5 c 128,-1,22
 237 649 237 649 237 646 c 2,23,-1
 237 264 l 2,24,25
 237 204 237 204 251 164 c 128,-1,26
 265 124 265 124 290 100 c 128,-1,27
 315 76 315 76 349 65 c 128,-1,28
 383 54 383 54 424 54 c 256,29,30
 465 54 465 54 498.5 65 c 128,-1,31
 532 76 532 76 557 100 c 128,-1,32
 582 124 582 124 596 164 c 128,-1,33
 610 204 610 204 610 264 c 2,34,-1
 610 635 l 2,35,36
 610 640 610 640 602 644 c 128,-1,37
 594 648 594 648 581 650.5 c 128,-1,38
 568 653 568 653 552.5 654.5 c 128,-1,39
 537 656 537 656 523 656 c 2,40,-1
 514 656 l 1,41,-1
 514 710 l 1,42,-1
 773 710 l 1,43,-1
 773 656 l 1,44,-1
 762 656 l 2,45,46
 738 656 738 656 718.5 651.5 c 128,-1,47
 699 647 699 647 688 637 c 128,-1,48
 677 627 677 627 677 610 c 2,49,-1
 677 264 l 2,50,51
 677 215 677 215 668.5 175.5 c 128,-1,52
 660 136 660 136 644 105.5 c 128,-1,53
 628 75 628 75 605 52 c 0,54,55
 589 36 589 36 562 14.5 c 128,-1,56
 535 -7 535 -7 508.5 -32.5 c 128,-1,57
 482 -58 482 -58 464 -85.5 c 128,-1,58
 446 -113 446 -113 446 -143 c 0,59,60
 446 -166 446 -166 458 -177.5 c 128,-1,61
 470 -189 470 -189 491 -189 c 0,62,63
 515 -189 515 -189 533 -176.5 c 128,-1,64
 551 -164 551 -164 562 -151 c 1,65,-1
 596 -186 l 1,66,67
 573 -211 573 -211 544 -227.5 c 128,-1,68
 515 -244 515 -244 468 -244 c 0,69,70
 435 -244 435 -244 408 -233.5 c 128,-1,71
 381 -223 381 -223 365.5 -203 c 128,-1,72
 350 -183 350 -183 350 -153 c 0,73,74
 350 -128 350 -128 360.5 -107.5 c 128,-1,75
 371 -87 371 -87 393.5 -66 c 128,-1,76
 416 -45 416 -45 450.5 -20 c 128,-1,77
 485 5 485 5 533 38 c 1,0,-1
EndSplineSet
EndChar

StartChar: Uhorn
Encoding: 431 431 185
Width: 886
GlyphClass: 2
Flags: W
AnchorPoint: "Anchor-1" 447 -35 basechar 0
AnchorPoint: "Anchor-0" 447 663 basechar 0
LayerCount: 2
Fore
SplineSet
144 264 m 2,0,-1
 144 620 l 2,1,2
 144 642 144 642 120 649 c 128,-1,3
 96 656 96 656 59 656 c 2,4,-1
 48 656 l 1,5,-1
 48 710 l 1,6,-1
 333 710 l 1,7,-1
 333 656 l 1,8,-1
 324 656 l 2,9,10
 310 656 310 656 294.5 655.5 c 128,-1,11
 279 655 279 655 266 653.5 c 128,-1,12
 253 652 253 652 245 650.5 c 128,-1,13
 237 649 237 649 237 646 c 2,14,-1
 237 264 l 2,15,16
 237 204 237 204 251 164 c 128,-1,17
 265 124 265 124 290 100 c 128,-1,18
 315 76 315 76 349 65 c 128,-1,19
 383 54 383 54 424 54 c 0,20,21
 478 54 478 54 520 73.5 c 128,-1,22
 562 93 562 93 586 139 c 128,-1,23
 610 185 610 185 610 264 c 2,24,-1
 610 635 l 2,25,26
 610 640 610 640 602 644 c 128,-1,27
 594 648 594 648 581 650.5 c 128,-1,28
 568 653 568 653 552.5 654.5 c 128,-1,29
 537 656 537 656 523 656 c 2,30,-1
 514 656 l 1,31,-1
 514 710 l 1,32,-1
 694 710 l 2,33,34
 742 710 742 710 770.5 720.5 c 128,-1,35
 799 731 799 731 813.5 753 c 128,-1,36
 828 775 828 775 833 808.5 c 128,-1,37
 838 842 838 842 840 888 c 1,38,-1
 926 888 l 1,39,40
 925 841 925 841 916.5 805 c 128,-1,41
 908 769 908 769 893 742.5 c 128,-1,42
 878 716 878 716 855.5 698.5 c 128,-1,43
 833 681 833 681 804.5 671 c 128,-1,44
 776 661 776 661 741 657 c 0,45,46
 724 655 724 655 709 650.5 c 128,-1,47
 694 646 694 646 685.5 636.5 c 128,-1,48
 677 627 677 627 677 612 c 2,49,-1
 677 264 l 2,50,51
 677 189 677 189 657 135.5 c 128,-1,52
 637 82 637 82 600.5 48 c 128,-1,53
 564 14 564 14 516.5 -1.5 c 128,-1,54
 469 -17 469 -17 415 -17 c 0,55,56
 356 -17 356 -17 306.5 -1 c 128,-1,57
 257 15 257 15 220.5 48.5 c 128,-1,58
 184 82 184 82 164 135.5 c 128,-1,59
 144 189 144 189 144 264 c 2,0,-1
EndSplineSet
EndChar

StartChar: Ucaron
Encoding: 467 467 186
Width: 821
GlyphClass: 1
Flags: W
LayerCount: 2
Fore
SplineSet
381 782 m 1,0,-1
 463 782 l 1,1,-1
 585 927 l 1,2,-1
 585 943 l 1,3,-1
 545 943 l 1,4,-1
 395 829 l 1,5,-1
 457 831 l 1,6,-1
 309 943 l 1,7,-1
 259 943 l 1,8,-1
 259 927 l 1,9,-1
 381 782 l 1,0,-1
237 264 m 2,10,11
 237 204 237 204 251 164 c 128,-1,12
 265 124 265 124 290 100 c 128,-1,13
 315 76 315 76 349 65 c 128,-1,14
 383 54 383 54 424 54 c 256,15,16
 465 54 465 54 498.5 65 c 128,-1,17
 532 76 532 76 557 100 c 128,-1,18
 582 124 582 124 596 164 c 128,-1,19
 610 204 610 204 610 264 c 2,20,-1
 610 635 l 2,21,22
 610 640 610 640 602 644 c 128,-1,23
 594 648 594 648 581 650.5 c 128,-1,24
 568 653 568 653 552.5 654.5 c 128,-1,25
 537 656 537 656 523 656 c 2,26,-1
 514 656 l 1,27,-1
 514 710 l 1,28,-1
 773 710 l 1,29,-1
 773 656 l 1,30,-1
 762 656 l 2,31,32
 738 656 738 656 718.5 651.5 c 128,-1,33
 699 647 699 647 688 637 c 128,-1,34
 677 627 677 627 677 610 c 2,35,-1
 677 264 l 2,36,37
 677 189 677 189 657 135.5 c 128,-1,38
 637 82 637 82 600.5 48 c 128,-1,39
 564 14 564 14 516.5 -1.5 c 128,-1,40
 469 -17 469 -17 414 -17 c 0,41,42
 356 -17 356 -17 306.5 -1 c 128,-1,43
 257 15 257 15 220.5 48.5 c 128,-1,44
 184 82 184 82 164 135.5 c 128,-1,45
 144 189 144 189 144 264 c 2,46,-1
 144 620 l 2,47,48
 144 642 144 642 120 649 c 128,-1,49
 96 656 96 656 59 656 c 2,50,-1
 48 656 l 1,51,-1
 48 710 l 1,52,-1
 333 710 l 1,53,-1
 333 656 l 1,54,-1
 324 656 l 2,55,56
 310 656 310 656 294.5 655.5 c 128,-1,57
 279 655 279 655 266 653.5 c 128,-1,58
 253 652 253 652 245 650.5 c 128,-1,59
 237 649 237 649 237 646 c 2,60,-1
 237 264 l 2,10,11
EndSplineSet
EndChar

StartChar: Udieresiscaron
Encoding: 473 473 187
Width: 821
GlyphClass: 1
Flags: W
LayerCount: 2
Fore
SplineSet
377 965 m 1,0,-1
 459 965 l 1,1,-1
 580 1110 l 1,2,-1
 580 1127 l 1,3,-1
 540 1127 l 1,4,-1
 391 1012 l 1,5,-1
 452 1015 l 1,6,-1
 305 1127 l 1,7,-1
 255 1127 l 1,8,-1
 255 1110 l 1,9,-1
 377 965 l 1,0,-1
237 264 m 2,10,11
 237 204 237 204 251 164 c 128,-1,12
 265 124 265 124 290 100 c 128,-1,13
 315 76 315 76 349 65 c 128,-1,14
 383 54 383 54 424 54 c 256,15,16
 465 54 465 54 498.5 65 c 128,-1,17
 532 76 532 76 557 100 c 128,-1,18
 582 124 582 124 596 164 c 128,-1,19
 610 204 610 204 610 264 c 2,20,-1
 610 635 l 2,21,22
 610 640 610 640 602 644 c 128,-1,23
 594 648 594 648 581 650.5 c 128,-1,24
 568 653 568 653 552.5 654.5 c 128,-1,25
 537 656 537 656 523 656 c 2,26,-1
 514 656 l 1,27,-1
 514 710 l 1,28,-1
 773 710 l 1,29,-1
 773 656 l 1,30,-1
 762 656 l 2,31,32
 738 656 738 656 718.5 651.5 c 128,-1,33
 699 647 699 647 688 637 c 128,-1,34
 677 627 677 627 677 610 c 2,35,-1
 677 264 l 2,36,37
 677 189 677 189 657 135.5 c 128,-1,38
 637 82 637 82 600.5 48 c 128,-1,39
 564 14 564 14 516.5 -1.5 c 128,-1,40
 469 -17 469 -17 414 -17 c 0,41,42
 356 -17 356 -17 306.5 -1 c 128,-1,43
 257 15 257 15 220.5 48.5 c 128,-1,44
 184 82 184 82 164 135.5 c 128,-1,45
 144 189 144 189 144 264 c 2,46,-1
 144 620 l 2,47,48
 144 642 144 642 120 649 c 128,-1,49
 96 656 96 656 59 656 c 2,50,-1
 48 656 l 1,51,-1
 48 710 l 1,52,-1
 333 710 l 1,53,-1
 333 656 l 1,54,-1
 324 656 l 2,55,56
 310 656 310 656 294.5 655.5 c 128,-1,57
 279 655 279 655 266 653.5 c 128,-1,58
 253 652 253 652 245 650.5 c 128,-1,59
 237 649 237 649 237 646 c 2,60,-1
 237 264 l 2,10,11
363 866 m 0,61,62
 363 835 363 835 344.5 819 c 128,-1,63
 326 803 326 803 297 803 c 0,64,65
 269 803 269 803 251 819 c 128,-1,66
 233 835 233 835 233 866 c 0,67,68
 233 898 233 898 251 914 c 128,-1,69
 269 930 269 930 297 930 c 0,70,71
 326 930 326 930 344.5 914 c 128,-1,72
 363 898 363 898 363 866 c 0,61,62
602 866 m 0,73,74
 602 835 602 835 583.5 819 c 128,-1,75
 565 803 565 803 536 803 c 0,76,77
 508 803 508 803 490 819 c 128,-1,78
 472 835 472 835 472 866 c 0,79,80
 472 898 472 898 490 914 c 128,-1,81
 508 930 508 930 536 930 c 0,82,83
 565 930 565 930 583.5 914 c 128,-1,84
 602 898 602 898 602 866 c 0,73,74
EndSplineSet
EndChar

StartChar: Udblgrave
Encoding: 532 532 188
Width: 821
GlyphClass: 1
Flags: W
LayerCount: 2
Fore
SplineSet
514 889 m 2,0,-1
 548 800 l 1,1,-1
 548 776 l 1,2,-1
 514 776 l 1,3,-1
 455 829 l 2,4,5
 434 848 434 848 421 863.5 c 128,-1,6
 408 879 408 879 408 899 c 0,7,8
 408 918 408 918 421.5 930 c 128,-1,9
 435 942 435 942 456 942 c 0,10,11
 470 942 470 942 481 936.5 c 128,-1,12
 492 931 492 931 500 919.5 c 128,-1,13
 508 908 508 908 514 889 c 2,0,-1
333 889 m 2,14,-1
 365 800 l 1,15,-1
 365 776 l 1,16,-1
 331 776 l 1,17,-1
 272 829 l 2,18,19
 251 848 251 848 238 863.5 c 128,-1,20
 225 879 225 879 225 899 c 0,21,22
 225 918 225 918 238.5 930 c 128,-1,23
 252 942 252 942 273 942 c 0,24,25
 287 942 287 942 298 936.5 c 128,-1,26
 309 931 309 931 318 919.5 c 128,-1,27
 327 908 327 908 333 889 c 2,14,-1
237 264 m 2,28,29
 237 204 237 204 251 164 c 128,-1,30
 265 124 265 124 290 100 c 128,-1,31
 315 76 315 76 349 65 c 128,-1,32
 383 54 383 54 424 54 c 256,33,34
 465 54 465 54 498.5 65 c 128,-1,35
 532 76 532 76 557 100 c 128,-1,36
 582 124 582 124 596 164 c 128,-1,37
 610 204 610 204 610 264 c 2,38,-1
 610 635 l 2,39,40
 610 640 610 640 602 644 c 128,-1,41
 594 648 594 648 581 650.5 c 128,-1,42
 568 653 568 653 552.5 654.5 c 128,-1,43
 537 656 537 656 523 656 c 2,44,-1
 514 656 l 1,45,-1
 514 710 l 1,46,-1
 773 710 l 1,47,-1
 773 656 l 1,48,-1
 762 656 l 2,49,50
 738 656 738 656 718.5 651.5 c 128,-1,51
 699 647 699 647 688 637 c 128,-1,52
 677 627 677 627 677 610 c 2,53,-1
 677 264 l 2,54,55
 677 189 677 189 657 135.5 c 128,-1,56
 637 82 637 82 600.5 48 c 128,-1,57
 564 14 564 14 516.5 -1.5 c 128,-1,58
 469 -17 469 -17 414 -17 c 0,59,60
 356 -17 356 -17 306.5 -1 c 128,-1,61
 257 15 257 15 220.5 48.5 c 128,-1,62
 184 82 184 82 164 135.5 c 128,-1,63
 144 189 144 189 144 264 c 2,64,-1
 144 620 l 2,65,66
 144 642 144 642 120 649 c 128,-1,67
 96 656 96 656 59 656 c 2,68,-1
 48 656 l 1,69,-1
 48 710 l 1,70,-1
 333 710 l 1,71,-1
 333 656 l 1,72,-1
 324 656 l 2,73,74
 310 656 310 656 294.5 655.5 c 128,-1,75
 279 655 279 655 266 653.5 c 128,-1,76
 253 652 253 652 245 650.5 c 128,-1,77
 237 649 237 649 237 646 c 2,78,-1
 237 264 l 2,28,29
EndSplineSet
EndChar

StartChar: Uinvertedbreve
Encoding: 534 534 189
Width: 821
GlyphClass: 1
Flags: W
LayerCount: 2
Fore
SplineSet
414 914 m 0,0,1
 366 914 366 914 331 897.5 c 128,-1,2
 296 881 296 881 277 846.5 c 128,-1,3
 258 812 258 812 255 758 c 1,4,-1
 317 758 l 1,5,6
 320 790 320 790 330.5 807.5 c 128,-1,7
 341 825 341 825 360.5 832 c 128,-1,8
 380 839 380 839 413 839 c 0,9,10
 444 839 444 839 463.5 832 c 128,-1,11
 483 825 483 825 493.5 807.5 c 128,-1,12
 504 790 504 790 508 758 c 1,13,-1
 574 758 l 1,14,15
 572 812 572 812 552 846.5 c 128,-1,16
 532 881 532 881 497.5 897.5 c 128,-1,17
 463 914 463 914 414 914 c 0,0,1
237 264 m 2,18,19
 237 204 237 204 251 164 c 128,-1,20
 265 124 265 124 290 100 c 128,-1,21
 315 76 315 76 349 65 c 128,-1,22
 383 54 383 54 424 54 c 256,23,24
 465 54 465 54 498.5 65 c 128,-1,25
 532 76 532 76 557 100 c 128,-1,26
 582 124 582 124 596 164 c 128,-1,27
 610 204 610 204 610 264 c 2,28,-1
 610 635 l 2,29,30
 610 640 610 640 602 644 c 128,-1,31
 594 648 594 648 581 650.5 c 128,-1,32
 568 653 568 653 552.5 654.5 c 128,-1,33
 537 656 537 656 523 656 c 2,34,-1
 514 656 l 1,35,-1
 514 710 l 1,36,-1
 773 710 l 1,37,-1
 773 656 l 1,38,-1
 762 656 l 2,39,40
 738 656 738 656 718.5 651.5 c 128,-1,41
 699 647 699 647 688 637 c 128,-1,42
 677 627 677 627 677 610 c 2,43,-1
 677 264 l 2,44,45
 677 189 677 189 657 135.5 c 128,-1,46
 637 82 637 82 600.5 48 c 128,-1,47
 564 14 564 14 516.5 -1.5 c 128,-1,48
 469 -17 469 -17 414 -17 c 0,49,50
 356 -17 356 -17 306.5 -1 c 128,-1,51
 257 15 257 15 220.5 48.5 c 128,-1,52
 184 82 184 82 164 135.5 c 128,-1,53
 144 189 144 189 144 264 c 2,54,-1
 144 620 l 2,55,56
 144 642 144 642 120 649 c 128,-1,57
 96 656 96 656 59 656 c 2,58,-1
 48 656 l 1,59,-1
 48 710 l 1,60,-1
 333 710 l 1,61,-1
 333 656 l 1,62,-1
 324 656 l 2,63,64
 310 656 310 656 294.5 655.5 c 128,-1,65
 279 655 279 655 266 653.5 c 128,-1,66
 253 652 253 652 245 650.5 c 128,-1,67
 237 649 237 649 237 646 c 2,68,-1
 237 264 l 2,18,19
EndSplineSet
EndChar

StartChar: V
Encoding: 86 86 199
Width: 727
GlyphClass: 2
Flags: W
AnchorPoint: "Anchor-0" 360 741 basechar 0
LayerCount: 2
Fore
SplineSet
388 34 m 1,0,-1
 373 56 l 1,1,-1
 572 635 l 2,2,3
 572 642 572 642 560 646.5 c 128,-1,4
 548 651 548 651 528.5 653.5 c 128,-1,5
 509 656 509 656 485 656 c 2,6,-1
 471 656 l 1,7,-1
 471 710 l 1,8,-1
 713 710 l 1,9,-1
 713 656 l 1,10,-1
 708 656 l 2,11,12
 678 656 678 656 660 646 c 128,-1,13
 642 636 642 636 630 602 c 2,14,-1
 419 -6 l 1,15,-1
 312 -6 l 1,16,-1
 95 610 l 2,17,18
 85 640 85 640 66.5 648 c 128,-1,19
 48 656 48 656 20 656 c 2,20,-1
 14 656 l 1,21,-1
 14 710 l 1,22,-1
 279 710 l 1,23,-1
 279 656 l 1,24,-1
 265 656 l 2,25,26
 241 656 241 656 221 654.5 c 128,-1,27
 201 653 201 653 189 651 c 128,-1,28
 177 649 177 649 177 645 c 2,29,-1
 388 34 l 1,0,-1
EndSplineSet
EndChar

StartChar: W
Encoding: 87 87 200
Width: 1032
GlyphClass: 2
Flags: W
AnchorPoint: "Anchor-0" 530 741 basechar 0
LayerCount: 2
Fore
SplineSet
14 710 m 1,0,-1
 271 710 l 1,1,-1
 271 656 l 1,2,-1
 254 656 l 2,3,4
 237 656 237 656 218.5 654.5 c 128,-1,5
 200 653 200 653 187 651 c 128,-1,6
 174 649 174 649 174 645 c 2,7,-1
 324 50 l 1,8,-1
 312 50 l 1,9,-1
 476 710 l 1,10,-1
 582 710 l 1,11,-1
 752 53 l 1,12,-1
 740 53 l 1,13,-1
 883 635 l 2,14,15
 883 641 883 641 870.5 646 c 128,-1,16
 858 651 858 651 840 653.5 c 128,-1,17
 822 656 822 656 805 656 c 2,18,-1
 790 656 l 1,19,-1
 790 710 l 1,20,-1
 1018 710 l 1,21,-1
 1018 656 l 1,22,-1
 1012 656 l 2,23,24
 985 656 985 656 966.5 646 c 128,-1,25
 948 636 948 636 942 612 c 2,26,-1
 790 0 l 1,27,-1
 682 0 l 1,28,-1
 512 651 l 1,29,-1
 523 651 l 1,30,-1
 362 0 l 1,31,-1
 253 0 l 1,32,-1
 89 621 l 2,33,34
 82 646 82 646 65.5 651 c 128,-1,35
 49 656 49 656 20 656 c 2,36,-1
 14 656 l 1,37,-1
 14 710 l 1,0,-1
EndSplineSet
EndChar

StartChar: X
Encoding: 88 88 205
Width: 756
GlyphClass: 2
Flags: W
AnchorPoint: "Anchor-1" 355 0 basechar 0
AnchorPoint: "Anchor-0" 378 741 basechar 0
LayerCount: 2
Fore
SplineSet
44 656 m 1,0,-1
 44 710 l 1,1,-1
 320 710 l 1,2,-1
 320 656 l 1,3,-1
 303 656 l 2,4,5
 285 656 285 656 266 655 c 128,-1,6
 247 654 247 654 234 652 c 128,-1,7
 221 650 221 650 221 646 c 2,8,-1
 407 390 l 1,9,-1
 414 388 l 1,10,-1
 632 89 l 2,11,12
 649 66 649 66 666.5 60.5 c 128,-1,13
 684 55 684 55 712 55 c 2,14,-1
 728 55 l 1,15,-1
 728 0 l 1,16,-1
 446 0 l 1,17,-1
 446 55 l 1,18,-1
 463 55 l 2,19,20
 481 55 481 55 500 55.5 c 128,-1,21
 519 56 519 56 532 58.5 c 128,-1,22
 545 61 545 61 545 64 c 2,23,-1
 346 337 l 1,24,-1
 339 340 l 1,25,-1
 134 623 l 2,26,27
 117 646 117 646 99.5 651 c 128,-1,28
 82 656 82 656 54 656 c 2,29,-1
 44 656 l 1,0,-1
29 0 m 1,30,-1
 29 55 l 1,31,-1
 44 55 l 2,32,33
 71 55 71 55 90.5 64 c 128,-1,34
 110 73 110 73 130 101 c 2,35,-1
 333 381 l 1,36,-1
 373 336 l 1,37,-1
 184 72 l 2,38,39
 184 67 184 67 197 63 c 128,-1,40
 210 59 210 59 229.5 57 c 128,-1,41
 249 55 249 55 267 55 c 2,42,-1
 284 55 l 1,43,-1
 284 0 l 1,44,-1
 29 0 l 1,30,-1
420 355 m 1,45,-1
 379 397 l 1,46,-1
 555 638 l 2,47,48
 555 644 555 644 542 648 c 128,-1,49
 529 652 529 652 510 654 c 128,-1,50
 491 656 491 656 472 656 c 2,51,-1
 457 656 l 1,52,-1
 457 710 l 1,53,-1
 708 710 l 1,54,-1
 708 656 l 1,55,-1
 698 656 l 2,56,57
 670 656 670 656 650 647 c 128,-1,58
 630 638 630 638 609 611 c 2,59,-1
 420 355 l 1,45,-1
EndSplineSet
EndChar

StartChar: Y
Encoding: 89 89 206
Width: 703
GlyphClass: 2
Flags: W
AnchorPoint: "Anchor-1" 355 0 basechar 0
AnchorPoint: "Anchor-0" 355 741 basechar 0
LayerCount: 2
Fore
SplineSet
308 312 m 1,0,-1
 318 267 l 1,1,-1
 105 626 l 2,2,3
 96 640 96 640 85.5 646.5 c 128,-1,4
 75 653 75 653 61.5 654.5 c 128,-1,5
 48 656 48 656 30 656 c 2,6,-1
 21 656 l 1,7,-1
 21 710 l 1,8,-1
 279 710 l 1,9,-1
 279 656 l 1,10,-1
 262 656 l 2,11,12
 245 656 245 656 228 654.5 c 128,-1,13
 211 653 211 653 198.5 651 c 128,-1,14
 186 649 186 649 186 645 c 2,15,-1
 379 314 l 1,16,-1
 356 316 l 1,17,-1
 535 635 l 2,18,19
 535 642 535 642 523 646.5 c 128,-1,20
 511 651 511 651 493 653.5 c 128,-1,21
 475 656 475 656 458 656 c 2,22,-1
 445 656 l 1,23,-1
 445 710 l 1,24,-1
 682 710 l 1,25,-1
 682 656 l 1,26,-1
 673 656 l 2,27,28
 656 656 656 656 641.5 652.5 c 128,-1,29
 627 649 627 649 615 639.5 c 128,-1,30
 603 630 603 630 592 611 c 2,31,-1
 391 266 l 1,32,-1
 401 312 l 1,33,-1
 401 91 l 2,34,35
 401 69 401 69 425 62 c 128,-1,36
 449 55 449 55 487 55 c 2,37,-1
 506 55 l 1,38,-1
 506 0 l 1,39,-1
 203 0 l 1,40,-1
 203 55 l 1,41,-1
 221 55 l 2,42,43
 259 55 259 55 283.5 62 c 128,-1,44
 308 69 308 69 308 91 c 2,45,-1
 308 312 l 1,0,-1
EndSplineSet
EndChar

StartChar: Z
Encoding: 90 90 216
Width: 654
GlyphClass: 2
Flags: W
AnchorPoint: "Anchor-1" 346 0 basechar 0
AnchorPoint: "Anchor-0" 346 741 basechar 0
LayerCount: 2
Fore
SplineSet
268 650 m 2,0,1
 236 650 236 650 213 648 c 128,-1,2
 190 646 190 646 175 641 c 128,-1,3
 160 636 160 636 152.5 628 c 128,-1,4
 145 620 145 620 143 606 c 2,5,-1
 132 508 l 1,6,-1
 72 508 l 1,7,-1
 72 710 l 1,8,-1
 584 710 l 1,9,-1
 584 642 l 1,10,-1
 122 22 l 1,11,-1
 109 61 l 1,12,-1
 396 61 l 2,13,14
 439 61 439 61 466 64.5 c 128,-1,15
 493 68 493 68 506 77.5 c 128,-1,16
 519 87 519 87 521 105 c 2,17,-1
 533 222 l 1,18,-1
 595 222 l 1,19,-1
 595 0 l 1,20,-1
 57 0 l 1,21,-1
 57 72 l 1,22,-1
 506 676 l 1,23,-1
 524 650 l 1,24,-1
 268 650 l 2,0,1
EndSplineSet
EndChar

StartChar: Zcaron
Encoding: 381 381 219
Width: 654
GlyphClass: 1
Flags: W
LayerCount: 2
Fore
SplineSet
284 782 m 1,0,-1
 366 782 l 1,1,-1
 488 927 l 1,2,-1
 488 943 l 1,3,-1
 448 943 l 1,4,-1
 298 829 l 1,5,-1
 360 831 l 1,6,-1
 212 943 l 1,7,-1
 162 943 l 1,8,-1
 162 927 l 1,9,-1
 284 782 l 1,0,-1
268 650 m 2,10,11
 236 650 236 650 213 648 c 128,-1,12
 190 646 190 646 175 641 c 128,-1,13
 160 636 160 636 152.5 628 c 128,-1,14
 145 620 145 620 143 606 c 2,15,-1
 132 508 l 1,16,-1
 72 508 l 1,17,-1
 72 710 l 1,18,-1
 584 710 l 1,19,-1
 584 642 l 1,20,-1
 122 22 l 1,21,-1
 109 61 l 1,22,-1
 396 61 l 2,23,24
 439 61 439 61 466 64.5 c 128,-1,25
 493 68 493 68 506 77.5 c 128,-1,26
 519 87 519 87 521 105 c 2,27,-1
 533 222 l 1,28,-1
 595 222 l 1,29,-1
 595 0 l 1,30,-1
 57 0 l 1,31,-1
 57 72 l 1,32,-1
 506 676 l 1,33,-1
 524 650 l 1,34,-1
 268 650 l 2,10,11
EndSplineSet
EndChar

StartChar: AE
Encoding: 198 198 221
Width: 1047
GlyphClass: 2
Flags: W
AnchorPoint: "Anchor-0" 646 741 basechar 0
LayerCount: 2
Fore
SplineSet
254 297 m 1,0,-1
 544 297 l 1,1,-1
 554 239 l 1,2,-1
 228 239 l 1,3,-1
 254 297 l 1,0,-1
586 392 m 1,4,5
 630 393 630 393 674.5 394.5 c 128,-1,6
 719 396 719 396 764 398.5 c 128,-1,7
 809 401 809 401 855 403 c 1,8,-1
 855 325 l 1,9,10
 810 327 810 327 765.5 329 c 128,-1,11
 721 331 721 331 676 333 c 128,-1,12
 631 335 631 335 586 337 c 1,13,-1
 586 392 l 1,4,5
422 0 m 1,14,-1
 422 55 l 1,15,-1
 429 55 l 2,16,17
 453 55 453 55 473 57 c 128,-1,18
 493 59 493 59 505.5 63 c 128,-1,19
 518 67 518 67 518 71 c 2,20,-1
 518 655 l 1,21,-1
 507 655 l 1,22,-1
 156 75 l 2,23,24
 156 70 156 70 168 65 c 128,-1,25
 180 60 180 60 200 57.5 c 128,-1,26
 220 55 220 55 243 55 c 2,27,-1
 256 55 l 1,28,-1
 256 0 l 1,29,-1
 8 0 l 1,30,-1
 8 55 l 1,31,-1
 13 55 l 2,32,33
 33 55 33 55 47.5 60 c 128,-1,34
 62 65 62 65 74 76.5 c 128,-1,35
 86 88 86 88 98 108 c 2,36,-1
 413 623 l 1,37,38
 413 636 413 636 400 643 c 128,-1,39
 387 650 387 650 366.5 653 c 128,-1,40
 346 656 346 656 321 656 c 2,41,-1
 310 656 l 1,42,-1
 310 710 l 1,43,-1
 955 710 l 1,44,-1
 955 513 l 1,45,-1
 895 513 l 1,46,-1
 884 606 l 2,47,48
 882 624 882 624 868.5 633.5 c 128,-1,49
 855 643 855 643 828.5 646.5 c 128,-1,50
 802 650 802 650 759 650 c 2,51,-1
 610 650 l 1,52,-1
 610 61 l 1,53,-1
 781 61 l 2,54,55
 813 61 813 61 836 62.5 c 128,-1,56
 859 64 859 64 874 69 c 128,-1,57
 889 74 889 74 896.5 83 c 128,-1,58
 904 92 904 92 906 105 c 2,59,-1
 918 222 l 1,60,-1
 979 222 l 1,61,-1
 979 0 l 1,62,-1
 422 0 l 1,14,-1
EndSplineSet
EndChar

StartChar: Eth
Encoding: 208 208 223
Width: 794
GlyphClass: 1
Flags: W
LayerCount: 2
Fore
SplineSet
48 386 m 1,0,-1
 448 386 l 1,1,-1
 448 329 l 1,2,-1
 48 329 l 1,3,-1
 48 386 l 1,0,-1
53 656 m 1,4,-1
 53 710 l 1,5,-1
 360 710 l 2,6,7
 448 710 448 710 518 687 c 128,-1,8
 588 664 588 664 637.5 619.5 c 128,-1,9
 687 575 687 575 713.5 509 c 128,-1,10
 740 443 740 443 740 358 c 0,11,12
 740 274 740 274 713.5 207.5 c 128,-1,13
 687 141 687 141 637.5 94.5 c 128,-1,14
 588 48 588 48 518 24 c 128,-1,15
 448 0 448 0 360 0 c 2,16,-1
 53 0 l 1,17,-1
 53 55 l 1,18,-1
 64 55 l 2,19,20
 101 55 101 55 125 62 c 128,-1,21
 149 69 149 69 149 91 c 2,22,-1
 149 620 l 2,23,24
 149 641 149 641 125 648.5 c 128,-1,25
 101 656 101 656 64 656 c 2,26,-1
 53 656 l 1,4,-1
360 650 m 2,27,-1
 242 650 l 1,28,-1
 242 61 l 1,29,-1
 360 61 l 2,30,31
 428 61 428 61 480 79.5 c 128,-1,32
 532 98 532 98 567.5 135.5 c 128,-1,33
 603 173 603 173 621.5 229 c 128,-1,34
 640 285 640 285 640 358 c 0,35,36
 640 432 640 432 621.5 487 c 128,-1,37
 603 542 603 542 567.5 578 c 128,-1,38
 532 614 532 614 480 632 c 128,-1,39
 428 650 428 650 360 650 c 2,27,-1
EndSplineSet
EndChar

StartChar: Oslash
Encoding: 216 216 224
Width: 813
GlyphClass: 2
Flags: W
AnchorPoint: "Anchor-0" 406 731 basechar 0
LayerCount: 2
Fore
SplineSet
407 666 m 0,0,1
 348 666 348 666 301.5 646 c 128,-1,2
 255 626 255 626 222.5 586.5 c 128,-1,3
 190 547 190 547 172.5 489 c 128,-1,4
 155 431 155 431 155 355 c 0,5,6
 155 273 155 273 171 214 c 128,-1,7
 187 155 187 155 219 117.5 c 128,-1,8
 251 80 251 80 298.5 62.5 c 128,-1,9
 346 45 346 45 407 45 c 0,10,11
 465 45 465 45 511.5 65 c 128,-1,12
 558 85 558 85 591 124 c 128,-1,13
 624 163 624 163 641.5 221.5 c 128,-1,14
 659 280 659 280 659 355 c 0,15,16
 659 438 659 438 642.5 496.5 c 128,-1,17
 626 555 626 555 594 592.5 c 128,-1,18
 562 630 562 630 515 648 c 128,-1,19
 468 666 468 666 407 666 c 0,0,1
407 -17 m 256,20,21
 330 -17 330 -17 265.5 9.5 c 128,-1,22
 201 36 201 36 154 85.5 c 128,-1,23
 107 135 107 135 81 203.5 c 128,-1,24
 55 272 55 272 55 355 c 0,25,26
 55 442 55 442 81 511 c 128,-1,27
 107 580 107 580 154.5 628.5 c 128,-1,28
 202 677 202 677 266 702.5 c 128,-1,29
 330 728 330 728 407 728 c 256,30,31
 484 728 484 728 548 701 c 128,-1,32
 612 674 612 674 659.5 624.5 c 128,-1,33
 707 575 707 575 733 506.5 c 128,-1,34
 759 438 759 438 759 355 c 0,35,36
 759 269 759 269 733 200 c 128,-1,37
 707 131 707 131 659.5 82.5 c 128,-1,38
 612 34 612 34 548 8.5 c 128,-1,39
 484 -17 484 -17 407 -17 c 256,20,21
4 -20 m 1,40,-1
 720 730 l 1,41,-1
 804 730 l 1,42,-1
 88 -20 l 1,43,-1
 4 -20 l 1,40,-1
EndSplineSet
EndChar

StartChar: Thorn
Encoding: 222 222 226
Width: 686
GlyphClass: 1
Flags: W
LayerCount: 2
Fore
SplineSet
351 710 m 1,0,-1
 53 710 l 1,1,-1
 53 656 l 1,2,-1
 64 656 l 2,3,4
 101 656 101 656 125 649 c 128,-1,5
 149 642 149 642 149 620 c 2,6,-1
 149 91 l 2,7,8
 149 69 149 69 125 62 c 128,-1,9
 101 55 101 55 64 55 c 2,10,-1
 53 55 l 1,11,-1
 53 0 l 1,12,-1
 351 0 l 1,13,-1
 351 55 l 1,14,-1
 328 55 l 2,15,16
 312 55 312 55 297 55.5 c 128,-1,17
 282 56 282 56 269.5 57 c 128,-1,18
 257 58 257 58 249.5 59.5 c 128,-1,19
 242 61 242 61 242 64 c 2,20,-1
 242 646 l 2,21,22
 242 649 242 649 249.5 650.5 c 128,-1,23
 257 652 257 652 269.5 653.5 c 128,-1,24
 282 655 282 655 297 655.5 c 128,-1,25
 312 656 312 656 328 656 c 2,26,-1
 351 656 l 1,27,-1
 351 710 l 1,0,-1
631 365 m 0,28,29
 631 428 631 428 601 471.5 c 128,-1,30
 571 515 571 515 515.5 537 c 128,-1,31
 460 559 460 559 383 559 c 2,32,-1
 206 559 l 1,33,-1
 198 499 l 1,34,-1
 382 499 l 2,35,36
 433 499 433 499 466 483.5 c 128,-1,37
 499 468 499 468 515 438.5 c 128,-1,38
 531 409 531 409 531 364 c 0,39,40
 531 320 531 320 515 289 c 128,-1,41
 499 258 499 258 465 241.5 c 128,-1,42
 431 225 431 225 379 225 c 2,43,-1
 198 225 l 1,44,-1
 198 165 l 1,45,-1
 380 165 l 2,46,47
 457 165 457 165 513 189 c 128,-1,48
 569 213 569 213 600 258 c 128,-1,49
 631 303 631 303 631 365 c 0,28,29
EndSplineSet
EndChar

StartChar: Hbar
Encoding: 294 294 228
Width: 853
GlyphClass: 1
Flags: W
LayerCount: 2
Fore
SplineSet
216 380 m 1,0,-1
 638 380 l 1,1,-1
 638 324 l 1,2,-1
 216 324 l 1,3,-1
 216 380 l 1,0,-1
53 0 m 1,4,-1
 53 55 l 1,5,-1
 64 55 l 2,6,7
 101 55 101 55 125 62 c 128,-1,8
 149 69 149 69 149 91 c 2,9,-1
 149 620 l 2,10,11
 149 642 149 642 125 649 c 128,-1,12
 101 656 101 656 64 656 c 2,13,-1
 53 656 l 1,14,-1
 53 710 l 1,15,-1
 338 710 l 1,16,-1
 338 656 l 1,17,-1
 329 656 l 2,18,19
 315 656 315 656 299.5 655.5 c 128,-1,20
 284 655 284 655 271 653.5 c 128,-1,21
 258 652 258 652 250 650.5 c 128,-1,22
 242 649 242 649 242 646 c 2,23,-1
 242 64 l 2,24,25
 242 61 242 61 250 59.5 c 128,-1,26
 258 58 258 58 271 56.5 c 128,-1,27
 284 55 284 55 299.5 55 c 128,-1,28
 315 55 315 55 329 55 c 2,29,-1
 338 55 l 1,30,-1
 338 0 l 1,31,-1
 53 0 l 1,4,-1
516 0 m 1,32,-1
 516 54 l 1,33,-1
 525 54 l 2,34,35
 539 54 539 54 554.5 55 c 128,-1,36
 570 56 570 56 583 57 c 128,-1,37
 596 58 596 58 604 59.5 c 128,-1,38
 612 61 612 61 612 64 c 2,39,-1
 612 646 l 2,40,41
 612 649 612 649 604 650.5 c 128,-1,42
 596 652 596 652 583 653.5 c 128,-1,43
 570 655 570 655 554.5 655.5 c 128,-1,44
 539 656 539 656 525 656 c 2,45,-1
 516 656 l 1,46,-1
 516 710 l 1,47,-1
 801 710 l 1,48,-1
 801 656 l 1,49,-1
 790 656 l 2,50,51
 753 656 753 656 729 649 c 128,-1,52
 705 642 705 642 705 620 c 2,53,-1
 705 91 l 2,54,55
 705 69 705 69 729 62 c 128,-1,56
 753 55 753 55 790 55 c 2,57,-1
 801 55 l 1,58,-1
 801 0 l 1,59,-1
 516 0 l 1,32,-1
48 490 m 1,60,-1
 48 543 l 1,61,-1
 806 543 l 1,62,-1
 806 490 l 1,63,-1
 48 490 l 1,60,-1
EndSplineSet
EndChar

StartChar: Ldot
Encoding: 319 319 230
Width: 642
GlyphClass: 1
Flags: W
LayerCount: 2
Fore
SplineSet
345 710 m 1,0,-1
 53 710 l 1,1,-1
 53 656 l 1,2,-1
 64 656 l 2,3,4
 101 656 101 656 125 649 c 128,-1,5
 149 642 149 642 149 620 c 2,6,-1
 149 91 l 2,7,8
 149 69 149 69 125 62 c 128,-1,9
 101 55 101 55 64 55 c 2,10,-1
 53 55 l 1,11,-1
 53 0 l 1,12,-1
 595 0 l 1,13,-1
 595 223 l 1,14,-1
 532 223 l 1,15,-1
 520 105 l 2,16,17
 519 87 519 87 505.5 77.5 c 128,-1,18
 492 68 492 68 465 64.5 c 128,-1,19
 438 61 438 61 395 61 c 2,20,-1
 242 61 l 1,21,-1
 242 620 l 2,22,23
 242 642 242 642 267.5 649 c 128,-1,24
 293 656 293 656 332 656 c 2,25,-1
 345 656 l 1,26,-1
 345 710 l 1,0,-1
522 345 m 0,27,28
 489 345 489 345 467.5 365 c 128,-1,29
 446 385 446 385 446 416 c 0,30,31
 446 449 446 449 467.5 468.5 c 128,-1,32
 489 488 489 488 522 488 c 0,33,34
 557 488 557 488 579 468.5 c 128,-1,35
 601 449 601 449 601 416 c 0,36,37
 601 385 601 385 579 365 c 128,-1,38
 557 345 557 345 522 345 c 0,27,28
EndSplineSet
Ligature2: "Ligature Substitution lookup 5 subtable" L periodcentered
EndChar

StartChar: Lslash
Encoding: 321 321 231
Width: 642
GlyphClass: 1
Flags: W
LayerCount: 2
Fore
SplineSet
38 188 m 1,0,-1
 485 466 l 1,1,-1
 485 536 l 1,2,-1
 38 258 l 1,3,-1
 38 188 l 1,0,-1
345 710 m 1,4,-1
 53 710 l 1,5,-1
 53 656 l 1,6,-1
 64 656 l 2,7,8
 101 656 101 656 125 649 c 128,-1,9
 149 642 149 642 149 620 c 2,10,-1
 149 91 l 2,11,12
 149 69 149 69 125 62 c 128,-1,13
 101 55 101 55 64 55 c 2,14,-1
 53 55 l 1,15,-1
 53 0 l 1,16,-1
 595 0 l 1,17,-1
 595 230 l 1,18,-1
 532 230 l 1,19,-1
 520 105 l 2,20,21
 519 87 519 87 505.5 77.5 c 128,-1,22
 492 68 492 68 465 64.5 c 128,-1,23
 438 61 438 61 395 61 c 2,24,-1
 242 61 l 1,25,-1
 242 620 l 2,26,27
 242 642 242 642 267.5 649 c 128,-1,28
 293 656 293 656 332 656 c 2,29,-1
 345 656 l 1,30,-1
 345 710 l 1,4,-1
EndSplineSet
EndChar

StartChar: Eng
Encoding: 330 330 232
Width: 824
GlyphClass: 1
Flags: W
LayerCount: 2
Fore
SplineSet
684 -11 m 2,0,1
 684 -71 684 -71 668 -113 c 128,-1,2
 652 -155 652 -155 623.5 -181 c 128,-1,3
 595 -207 595 -207 558.5 -219 c 128,-1,4
 522 -231 522 -231 481 -231 c 0,5,6
 446 -231 446 -231 416 -226 c 128,-1,7
 386 -221 386 -221 369 -215 c 1,8,-1
 369 -148 l 1,9,10
 383 -153 383 -153 400 -157 c 128,-1,11
 417 -161 417 -161 436.5 -163.5 c 128,-1,12
 456 -166 456 -166 478 -166 c 0,13,14
 521 -166 521 -166 552 -151 c 128,-1,15
 583 -136 583 -136 600 -100.5 c 128,-1,16
 617 -65 617 -65 617 -5 c 2,17,-1
 617 48 l 1,18,-1
 651 -58 l 1,19,-1
 202 668 l 1,20,-1
 217 672 l 1,21,-1
 217 67 l 2,22,23
 217 64 217 64 231 61 c 128,-1,24
 245 58 245 58 265.5 56.5 c 128,-1,25
 286 55 286 55 304 55 c 2,26,-1
 318 55 l 1,27,-1
 318 0 l 1,28,-1
 54 0 l 1,29,-1
 54 55 l 1,30,-1
 65 55 l 2,31,32
 90 55 90 55 109 58.5 c 128,-1,33
 128 62 128 62 139 70.5 c 128,-1,34
 150 79 150 79 150 93 c 2,35,-1
 150 620 l 2,36,37
 150 635 150 635 139 642.5 c 128,-1,38
 128 650 128 650 109 653 c 128,-1,39
 90 656 90 656 65 656 c 2,40,-1
 54 656 l 1,41,-1
 54 710 l 1,42,-1
 278 710 l 1,43,-1
 660 98 l 1,44,-1
 617 88 l 1,45,-1
 617 643 l 2,46,47
 617 647 617 647 603.5 649.5 c 128,-1,48
 590 652 590 652 570 654 c 128,-1,49
 550 656 550 656 530 656 c 2,50,-1
 516 656 l 1,51,-1
 516 710 l 1,52,-1
 781 710 l 1,53,-1
 781 656 l 1,54,-1
 769 656 l 2,55,56
 745 656 745 656 725.5 652.5 c 128,-1,57
 706 649 706 649 695 640.5 c 128,-1,58
 684 632 684 632 684 617 c 2,59,-1
 684 -11 l 2,0,1
EndSplineSet
Substitution2: "'ss07' Style Set 7 lookup 67 subtable" Eng.afr
EndChar

StartChar: OE
Encoding: 338 338 233
Width: 1072
GlyphClass: 1
Flags: W
LayerCount: 2
Fore
SplineSet
615 392 m 1,0,1
 659 395 659 395 703.5 396.5 c 128,-1,2
 748 398 748 398 792 400 c 128,-1,3
 836 402 836 402 880 404 c 1,4,-1
 880 325 l 1,5,6
 836 327 836 327 792 329 c 128,-1,7
 748 331 748 331 703.5 333 c 128,-1,8
 659 335 659 335 615 336 c 1,9,-1
 615 392 l 1,0,1
434 60 m 2,10,-1
 546 60 l 1,11,-1
 546 651 l 1,12,-1
 434 651 l 2,13,14
 366 651 366 651 313.5 632 c 128,-1,15
 261 613 261 613 225.5 575.5 c 128,-1,16
 190 538 190 538 172 482 c 128,-1,17
 154 426 154 426 154 352 c 256,18,19
 154 278 154 278 172 223 c 128,-1,20
 190 168 190 168 225.5 132 c 128,-1,21
 261 96 261 96 313.5 78 c 128,-1,22
 366 60 366 60 434 60 c 2,10,-1
434 0 m 2,23,24
 347 0 347 0 277 23 c 128,-1,25
 207 46 207 46 157 91 c 128,-1,26
 107 136 107 136 81 201.5 c 128,-1,27
 55 267 55 267 55 352 c 256,28,29
 55 437 55 437 81 503.5 c 128,-1,30
 107 570 107 570 157 616 c 128,-1,31
 207 662 207 662 277 686 c 128,-1,32
 347 710 347 710 434 710 c 2,33,-1
 980 710 l 1,34,-1
 980 513 l 1,35,-1
 920 513 l 1,36,-1
 909 606 l 2,37,38
 907 624 907 624 894 633.5 c 128,-1,39
 881 643 881 643 854 646.5 c 128,-1,40
 827 650 827 650 784 650 c 2,41,-1
 638 650 l 1,42,-1
 638 61 l 1,43,-1
 806 61 l 2,44,45
 838 61 838 61 861.5 62.5 c 128,-1,46
 885 64 885 64 900 69 c 128,-1,47
 915 74 915 74 922.5 82.5 c 128,-1,48
 930 91 930 91 931 105 c 2,49,-1
 943 222 l 1,50,-1
 1005 222 l 1,51,-1
 1005 0 l 1,52,-1
 434 0 l 2,23,24
EndSplineSet
EndChar

StartChar: Tbar
Encoding: 358 358 234
Width: 704
GlyphClass: 1
Flags: W
LayerCount: 2
Fore
SplineSet
138 357 m 1,0,-1
 565 357 l 1,1,-1
 565 301 l 1,2,-1
 138 301 l 1,3,-1
 138 357 l 1,0,-1
306 91 m 2,4,-1
 306 651 l 1,5,-1
 249 651 l 2,6,7
 203 651 203 651 175 647 c 128,-1,8
 147 643 147 643 134 632 c 128,-1,9
 121 621 121 621 119 603 c 2,10,-1
 108 491 l 1,11,-1
 48 491 l 1,12,-1
 48 710 l 1,13,-1
 657 710 l 1,14,-1
 657 491 l 1,15,-1
 597 491 l 1,16,-1
 586 603 l 2,17,18
 584 621 584 621 570.5 632 c 128,-1,19
 557 643 557 643 529 647 c 128,-1,20
 501 651 501 651 456 651 c 2,21,-1
 399 651 l 1,22,-1
 399 91 l 2,23,24
 399 69 399 69 424 62 c 128,-1,25
 449 55 449 55 486 55 c 2,26,-1
 504 55 l 1,27,-1
 504 0 l 1,28,-1
 200 0 l 1,29,-1
 200 55 l 1,30,-1
 218 55 l 2,31,32
 255 55 255 55 280.5 62 c 128,-1,33
 306 69 306 69 306 91 c 2,4,-1
EndSplineSet
EndChar

StartChar: Bhook
Encoding: 385 385 235
Width: 755
GlyphClass: 2
Flags: W
AnchorPoint: "Anchor-1" 410 0 basechar 0
AnchorPoint: "Anchor-0" 380 740 basechar 0
LayerCount: 2
Fore
SplineSet
270 401 m 1,0,-1
 431 401 l 2,1,2
 480 401 480 401 510.5 416 c 128,-1,3
 541 431 541 431 554.5 460 c 128,-1,4
 568 489 568 489 568 529 c 0,5,6
 568 568 568 568 554 595 c 128,-1,7
 540 622 540 622 510 636.5 c 128,-1,8
 480 651 480 651 431 651 c 2,9,-1
 301 651 l 1,10,-1
 301 60 l 1,11,-1
 441 60 l 2,12,13
 495 60 495 60 529.5 76 c 128,-1,14
 564 92 564 92 580.5 123.5 c 128,-1,15
 597 155 597 155 597 200 c 256,16,17
 597 245 597 245 580 277 c 128,-1,18
 563 309 563 309 527.5 326 c 128,-1,19
 492 343 492 343 435 343 c 2,20,-1
 270 343 l 1,21,-1
 270 401 l 1,0,-1
191 710 m 2,22,-1
 433 710 l 2,23,24
 488 710 488 710 531 698.5 c 128,-1,25
 574 687 574 687 603 664 c 128,-1,26
 632 641 632 641 647.5 607 c 128,-1,27
 663 573 663 573 663 530 c 0,28,29
 663 483 663 483 638.5 446 c 128,-1,30
 614 409 614 409 565 388.5 c 128,-1,31
 516 368 516 368 444 368 c 1,32,-1
 489 396 l 1,33,-1
 489 351 l 1,34,-1
 448 379 l 1,35,36
 528 378 528 378 582.5 355.5 c 128,-1,37
 637 333 637 333 665.5 293.5 c 128,-1,38
 694 254 694 254 694 199 c 0,39,40
 694 151 694 151 677 114 c 128,-1,41
 660 77 660 77 628 51.5 c 128,-1,42
 596 26 596 26 549.5 13 c 128,-1,43
 503 0 503 0 443 0 c 2,44,-1
 112 0 l 1,45,-1
 112 55 l 1,46,-1
 123 55 l 2,47,48
 160 55 160 55 184 62 c 128,-1,49
 208 69 208 69 208 91 c 2,50,-1
 208 650 l 1,51,-1
 192 650 l 2,52,53
 156 650 156 650 132 641 c 128,-1,54
 108 632 108 632 96.5 610 c 128,-1,55
 85 588 85 588 85 549 c 0,56,57
 85 528 85 528 89 506.5 c 128,-1,58
 93 485 93 485 100 468 c 1,59,-1
 7 468 l 1,60,61
 3 483 3 483 0.5 504.5 c 128,-1,62
 -2 526 -2 526 -2 542 c 0,63,64
 -2 597 -2 597 18.5 634 c 128,-1,65
 39 671 39 671 81.5 690.5 c 128,-1,66
 124 710 124 710 191 710 c 2,22,-1
EndSplineSet
EndChar

StartChar: Dhook
Encoding: 394 394 236
Width: 853
GlyphClass: 2
Flags: W
AnchorPoint: "Anchor-1" 428 0 basechar 0
AnchorPoint: "Anchor-0" 405 741 basechar 0
LayerCount: 2
Fore
SplineSet
191 710 m 2,0,-1
 419 710 l 2,1,2
 507 710 507 710 577 687 c 128,-1,3
 647 664 647 664 696.5 619.5 c 128,-1,4
 746 575 746 575 772.5 509 c 128,-1,5
 799 443 799 443 799 358 c 0,6,7
 799 274 799 274 772.5 207.5 c 128,-1,8
 746 141 746 141 696.5 94.5 c 128,-1,9
 647 48 647 48 577 24 c 128,-1,10
 507 0 507 0 419 0 c 2,11,-1
 112 0 l 1,12,-1
 112 55 l 1,13,-1
 123 55 l 2,14,15
 160 55 160 55 184 62 c 128,-1,16
 208 69 208 69 208 91 c 2,17,-1
 208 650 l 1,18,-1
 192 650 l 2,19,20
 156 650 156 650 132 641 c 128,-1,21
 108 632 108 632 96.5 610 c 128,-1,22
 85 588 85 588 85 549 c 0,23,24
 85 528 85 528 89 506.5 c 128,-1,25
 93 485 93 485 100 468 c 1,26,-1
 7 468 l 1,27,28
 3 483 3 483 0.5 504.5 c 128,-1,29
 -2 526 -2 526 -2 542 c 0,30,31
 -2 597 -2 597 18.5 634 c 128,-1,32
 39 671 39 671 81.5 690.5 c 128,-1,33
 124 710 124 710 191 710 c 2,0,-1
419 650 m 2,34,-1
 301 650 l 1,35,-1
 301 61 l 1,36,-1
 419 61 l 2,37,38
 487 61 487 61 539 79.5 c 128,-1,39
 591 98 591 98 626.5 135.5 c 128,-1,40
 662 173 662 173 680.5 229 c 128,-1,41
 699 285 699 285 699 358 c 0,42,43
 699 432 699 432 680.5 487 c 128,-1,44
 662 542 662 542 626.5 578 c 128,-1,45
 591 614 591 614 539 632 c 128,-1,46
 487 650 487 650 419 650 c 2,34,-1
EndSplineSet
EndChar

StartChar: Schwa
Encoding: 399 399 237
Width: 751
GlyphClass: 1
Flags: W
LayerCount: 2
Fore
SplineSet
367 735 m 0,0,1
 463 735 463 735 537 692 c 128,-1,2
 611 649 611 649 653.5 566 c 128,-1,3
 696 483 696 483 696 364 c 0,4,5
 696 278 696 278 671.5 208 c 128,-1,6
 647 138 647 138 603 88 c 128,-1,7
 559 38 559 38 499.5 10.5 c 128,-1,8
 440 -17 440 -17 371 -17 c 0,9,10
 273 -17 273 -17 205.5 28 c 128,-1,11
 138 73 138 73 103 162 c 128,-1,12
 68 251 68 251 66 383 c 1,13,-1
 640 383 l 1,14,-1
 641 321 l 1,15,-1
 145 321 l 1,16,-1
 165 339 l 1,17,18
 168 260 168 260 182 203.5 c 128,-1,19
 196 147 196 147 221 112.5 c 128,-1,20
 246 78 246 78 283.5 61.5 c 128,-1,21
 321 45 321 45 370 45 c 256,22,23
 419 45 419 45 460.5 65 c 128,-1,24
 502 85 502 85 532.5 124.5 c 128,-1,25
 563 164 563 164 580 223.5 c 128,-1,26
 597 283 597 283 597 363 c 0,27,28
 597 447 597 447 579.5 506.5 c 128,-1,29
 562 566 562 566 531 603 c 128,-1,30
 500 640 500 640 458 656.5 c 128,-1,31
 416 673 416 673 366 673 c 0,32,33
 307 673 307 673 262.5 654 c 128,-1,34
 218 635 218 635 184.5 603 c 128,-1,35
 151 571 151 571 128 532 c 1,36,-1
 71 571 l 1,37,38
 100 618 100 618 142 655 c 128,-1,39
 184 692 184 692 241 713.5 c 128,-1,40
 298 735 298 735 367 735 c 0,0,1
EndSplineSet
EndChar

StartChar: Khook
Encoding: 408 408 238
Width: 764
GlyphClass: 2
Flags: W
AnchorPoint: "Anchor-1" 391 0 basechar 0
AnchorPoint: "Anchor-0" 436 741 basechar 0
LayerCount: 2
Fore
SplineSet
53 0 m 1,0,-1
 53 55 l 1,1,-1
 64 55 l 2,2,3
 101 55 101 55 125 62 c 128,-1,4
 149 69 149 69 149 91 c 2,5,-1
 149 620 l 2,6,7
 149 642 149 642 125 649 c 128,-1,8
 101 656 101 656 64 656 c 2,9,-1
 53 656 l 1,10,-1
 53 710 l 1,11,-1
 335 710 l 1,12,-1
 335 656 l 1,13,-1
 326 656 l 2,14,15
 313 656 313 656 298 655.5 c 128,-1,16
 283 655 283 655 270.5 653.5 c 128,-1,17
 258 652 258 652 250 650.5 c 128,-1,18
 242 649 242 649 242 646 c 2,19,-1
 242 64 l 2,20,21
 242 61 242 61 250 60 c 128,-1,22
 258 59 258 59 270.5 57.5 c 128,-1,23
 283 56 283 56 298 55.5 c 128,-1,24
 313 55 313 55 326 55 c 2,25,-1
 335 55 l 1,26,-1
 335 0 l 1,27,-1
 53 0 l 1,0,-1
669 719 m 0,28,29
 704 719 704 719 726.5 701 c 128,-1,30
 749 683 749 683 759.5 653 c 128,-1,31
 770 623 770 623 770 587 c 256,32,33
 770 551 770 551 764.5 518.5 c 128,-1,34
 759 486 759 486 751 468 c 1,35,-1
 658 468 l 1,36,37
 664 482 664 482 669.5 501 c 128,-1,38
 675 520 675 520 679 542 c 128,-1,39
 683 564 683 564 683 588 c 0,40,41
 683 617 683 617 676 633 c 128,-1,42
 669 649 669 649 652 649 c 0,43,44
 638 649 638 649 622.5 640 c 128,-1,45
 607 631 607 631 584 608 c 128,-1,46
 561 585 561 585 521 542 c 2,47,-1
 348 356 l 1,48,-1
 352 400 l 1,49,-1
 642 82 l 2,50,51
 653 70 653 70 664 64 c 128,-1,52
 675 58 675 58 689.5 56.5 c 128,-1,53
 704 55 704 55 724 55 c 2,54,-1
 738 55 l 1,55,-1
 738 0 l 1,56,-1
 443 0 l 1,57,-1
 443 55 l 1,58,-1
 452 55 l 2,59,60
 472 55 472 55 491.5 56 c 128,-1,61
 511 57 511 57 524 59.5 c 128,-1,62
 537 62 537 62 537 65 c 2,63,-1
 283 345 l 1,64,-1
 283 369 l 1,65,-1
 468 571 l 2,66,67
 504 611 504 611 531.5 639.5 c 128,-1,68
 559 668 559 668 581 685.5 c 128,-1,69
 603 703 603 703 623.5 711 c 128,-1,70
 644 719 644 719 669 719 c 0,28,29
EndSplineSet
EndChar

StartChar: Yhook
Encoding: 435 435 239
Width: 750
GlyphClass: 2
Flags: W
AnchorPoint: "Anchor-1" 354 0 basechar 0
AnchorPoint: "Anchor-0" 385 741 basechar 0
LayerCount: 2
Fore
SplineSet
498 576 m 2,0,1
 527 628 527 628 551.5 659 c 128,-1,2
 576 690 576 690 601.5 704.5 c 128,-1,3
 627 719 627 719 657 719 c 0,4,5
 699 719 699 719 723 700 c 128,-1,6
 747 681 747 681 757 650.5 c 128,-1,7
 767 620 767 620 767 584 c 0,8,9
 767 553 767 553 762 519.5 c 128,-1,10
 757 486 757 486 750 468 c 1,11,-1
 656 468 l 1,12,13
 662 482 662 482 667.5 500.5 c 128,-1,14
 673 519 673 519 676.5 540.5 c 128,-1,15
 680 562 680 562 680 581 c 0,16,17
 680 615 680 615 672 631.5 c 128,-1,18
 664 648 664 648 642 648 c 0,19,20
 629 648 629 648 616 638 c 128,-1,21
 603 628 603 628 587.5 606 c 128,-1,22
 572 584 572 584 552 548 c 2,23,-1
 390 266 l 1,24,-1
 399 312 l 1,25,-1
 399 91 l 2,26,27
 399 69 399 69 423.5 62 c 128,-1,28
 448 55 448 55 486 55 c 2,29,-1
 504 55 l 1,30,-1
 504 0 l 1,31,-1
 201 0 l 1,32,-1
 201 55 l 1,33,-1
 220 55 l 2,34,35
 257 55 257 55 281.5 62 c 128,-1,36
 306 69 306 69 306 91 c 2,37,-1
 306 312 l 1,38,-1
 316 267 l 1,39,-1
 105 626 l 2,40,41
 97 640 97 640 86 646.5 c 128,-1,42
 75 653 75 653 61.5 654.5 c 128,-1,43
 48 656 48 656 30 656 c 2,44,-1
 21 656 l 1,45,-1
 21 710 l 1,46,-1
 279 710 l 1,47,-1
 279 656 l 1,48,-1
 262 656 l 2,49,50
 246 656 246 656 228.5 654.5 c 128,-1,51
 211 653 211 653 198.5 651 c 128,-1,52
 186 649 186 649 186 645 c 2,53,-1
 377 314 l 1,54,-1
 353 316 l 1,55,-1
 498 576 l 2,0,1
EndSplineSet
EndChar

StartChar: Germandbls
Encoding: 7838 7838 240
Width: 863
GlyphClass: 1
Flags: W
LayerCount: 2
Fore
SplineSet
599 49 m 0,0,1
 643 49 643 49 668.5 64 c 128,-1,2
 694 79 694 79 705 108.5 c 128,-1,3
 716 138 716 138 716 182 c 0,4,5
 716 230 716 230 699.5 262 c 128,-1,6
 683 294 683 294 652 314 c 128,-1,7
 621 334 621 334 579 347 c 128,-1,8
 537 360 537 360 487 371 c 1,9,-1
 487 430 l 1,10,-1
 649 670 l 1,11,-1
 674 652 l 1,12,-1
 400 652 l 2,13,14
 347 652 347 652 315 638.5 c 128,-1,15
 283 625 283 625 266.5 601.5 c 128,-1,16
 250 578 250 578 244.5 544.5 c 128,-1,17
 239 511 239 511 239 470 c 2,18,-1
 239 0 l 1,19,-1
 50 0 l 1,20,-1
 50 55 l 1,21,-1
 61 55 l 2,22,23
 98 55 98 55 122 62 c 128,-1,24
 146 69 146 69 146 91 c 2,25,-1
 146 458 l 2,26,27
 146 519 146 519 159 566 c 128,-1,28
 172 613 172 613 201.5 645 c 128,-1,29
 231 677 231 677 280 693.5 c 128,-1,30
 329 710 329 710 400 710 c 2,31,-1
 726 710 l 1,32,-1
 726 640 l 1,33,-1
 562 399 l 1,34,-1
 524 422 l 1,35,36
 576 412 576 412 627 396 c 128,-1,37
 678 380 678 380 719.5 354.5 c 128,-1,38
 761 329 761 329 785 289 c 128,-1,39
 809 249 809 249 809 190 c 0,40,41
 809 128 809 128 784.5 82.5 c 128,-1,42
 760 37 760 37 713.5 12.5 c 128,-1,43
 667 -12 667 -12 602 -12 c 0,44,45
 546 -12 546 -12 505.5 8 c 128,-1,46
 465 28 465 28 441 71 c 128,-1,47
 417 114 417 114 406 182 c 1,48,-1
 434 152 l 1,49,-1
 421 0 l 1,50,-1
 357 0 l 1,51,-1
 357 223 l 1,52,-1
 426 223 l 1,53,54
 434 183 434 183 447.5 151 c 128,-1,55
 461 119 461 119 481.5 96.5 c 128,-1,56
 502 74 502 74 531 61.5 c 128,-1,57
 560 49 560 49 599 49 c 0,0,1
EndSplineSet
EndChar

StartChar: Delta
Encoding: 916 916 241
Width: 750
GlyphClass: 1
Flags: W
LayerCount: 2
Fore
SplineSet
51 0 m 1,0,-1
 51 82 l 1,1,-1
 319 710 l 1,2,-1
 431 710 l 1,3,-1
 700 82 l 1,4,-1
 700 0 l 1,5,-1
 51 0 l 1,0,-1
619 52 m 1,6,-1
 345 700 l 1,7,-1
 379 699 l 1,8,-1
 106 51 l 1,9,-1
 82 82 l 1,10,-1
 639 82 l 1,11,-1
 619 52 l 1,6,-1
EndSplineSet
EndChar

StartChar: Omega
Encoding: 937 937 242
Width: 852
GlyphClass: 1
Flags: W
LayerCount: 2
Fore
SplineSet
426 728 m 256,0,1
 354 728 354 728 294.5 708.5 c 128,-1,2
 235 689 235 689 192.5 652.5 c 128,-1,3
 150 616 150 616 126.5 564.5 c 128,-1,4
 103 513 103 513 103 449 c 0,5,6
 103 407 103 407 115 368 c 128,-1,7
 127 329 127 329 148.5 291.5 c 128,-1,8
 170 254 170 254 199.5 216 c 128,-1,9
 229 178 229 178 264 137.5 c 128,-1,10
 299 97 299 97 336 53 c 1,11,-1
 340 72 l 1,12,-1
 236 72 l 2,13,14
 197 72 197 72 172.5 76.5 c 128,-1,15
 148 81 148 81 136 91 c 128,-1,16
 124 101 124 101 121 119 c 2,17,-1
 109 204 l 1,18,-1
 50 204 l 1,19,-1
 50 0 l 1,20,-1
 368 0 l 1,21,-1
 368 92 l 1,22,23
 337 136 337 136 307 175 c 128,-1,24
 277 214 277 214 252.5 254 c 128,-1,25
 228 294 228 294 213.5 340 c 128,-1,26
 199 386 199 386 199 443 c 0,27,28
 199 522 199 522 226 571 c 128,-1,29
 253 620 253 620 304 643 c 128,-1,30
 355 666 355 666 426 666 c 0,31,32
 498 666 498 666 548.5 643 c 128,-1,33
 599 620 599 620 626 571 c 128,-1,34
 653 522 653 522 653 443 c 0,35,36
 653 386 653 386 638.5 340 c 128,-1,37
 624 294 624 294 599.5 254 c 128,-1,38
 575 214 575 214 545 175 c 128,-1,39
 515 136 515 136 484 92 c 1,40,-1
 484 0 l 1,41,-1
 802 0 l 1,42,-1
 802 204 l 1,43,-1
 743 204 l 1,44,-1
 731 119 l 2,45,46
 729 101 729 101 717 91 c 128,-1,47
 705 81 705 81 680.5 76.5 c 128,-1,48
 656 72 656 72 616 72 c 2,49,-1
 512 72 l 1,50,-1
 516 53 l 1,51,52
 554 97 554 97 589 137.5 c 128,-1,53
 624 178 624 178 653 216 c 128,-1,54
 682 254 682 254 704 291.5 c 128,-1,55
 726 329 726 329 738 368 c 128,-1,56
 750 407 750 407 750 449 c 0,57,58
 750 513 750 513 726.5 564.5 c 128,-1,59
 703 616 703 616 660 652.5 c 128,-1,60
 617 689 617 689 557.5 708.5 c 128,-1,61
 498 728 498 728 426 728 c 256,0,1
EndSplineSet
EndChar

StartChar: Djecyr
Encoding: 1026 1026 244
Width: 849
GlyphClass: 2
Flags: W
AnchorPoint: "Anchor-0" 332 741 basechar 0
LayerCount: 2
Fore
SplineSet
798 194 m 0,0,1
 798 142 798 142 781.5 101.5 c 128,-1,2
 765 61 765 61 733 33.5 c 128,-1,3
 701 6 701 6 655.5 -8 c 128,-1,4
 610 -22 610 -22 553 -22 c 1,5,-1
 553 38 l 1,6,7
 600 38 600 38 632.5 54 c 128,-1,8
 665 70 665 70 682 104.5 c 128,-1,9
 699 139 699 139 699 195 c 0,10,11
 699 263 699 263 659.5 307.5 c 128,-1,12
 620 352 620 352 542 352 c 0,13,14
 483 352 483 352 434 340 c 128,-1,15
 385 328 385 328 332 297 c 1,16,-1
 332 357 l 1,17,18
 380 385 380 385 432 398.5 c 128,-1,19
 484 412 484 412 544 412 c 0,20,21
 631 412 631 412 687 384.5 c 128,-1,22
 743 357 743 357 770.5 308 c 128,-1,23
 798 259 798 259 798 194 c 0,0,1
180 0 m 1,24,-1
 180 55 l 1,25,-1
 198 55 l 2,26,27
 235 55 235 55 260.5 62 c 128,-1,28
 286 69 286 69 286 91 c 2,29,-1
 286 651 l 1,30,-1
 249 651 l 2,31,32
 203 651 203 651 175 647 c 128,-1,33
 147 643 147 643 134 632 c 128,-1,34
 121 621 121 621 119 603 c 2,35,-1
 108 491 l 1,36,-1
 48 491 l 1,37,-1
 48 710 l 1,38,-1
 657 710 l 1,39,-1
 657 506 l 1,40,-1
 597 506 l 1,41,-1
 586 603 l 2,42,43
 584 621 584 621 570.5 632 c 128,-1,44
 557 643 557 643 529 647 c 128,-1,45
 501 651 501 651 456 651 c 2,46,-1
 379 651 l 1,47,-1
 379 64 l 2,48,49
 379 62 379 62 390 59.5 c 128,-1,50
 401 57 401 57 417.5 56 c 128,-1,51
 434 55 434 55 451 55 c 2,52,-1
 459 55 l 1,53,-1
 459 0 l 1,54,-1
 180 0 l 1,24,-1
EndSplineSet
EndChar

StartChar: Eukrcyr
Encoding: 1028 1028 245
Width: 756
GlyphClass: 2
Flags: W
AnchorPoint: "Anchor-1" 396 0 basechar 0
AnchorPoint: "Anchor-0" 396 741 basechar 0
LayerCount: 2
Fore
SplineSet
119 392 m 1,0,1
 149 393 149 393 179.5 394 c 128,-1,2
 210 395 210 395 240.5 396 c 128,-1,3
 271 397 271 397 301.5 398 c 128,-1,4
 332 399 332 399 362.5 400 c 128,-1,5
 393 401 393 401 423.5 402 c 128,-1,6
 454 403 454 403 485 404 c 1,7,-1
 485 325 l 1,8,9
 454 326 454 326 423.5 327 c 128,-1,10
 393 328 393 328 362.5 329 c 128,-1,11
 332 330 332 330 301.5 331 c 128,-1,12
 271 332 271 332 240.5 332.5 c 128,-1,13
 210 333 210 333 179.5 334.5 c 128,-1,14
 149 336 149 336 119 337 c 1,15,-1
 119 392 l 1,0,1
393 665 m 0,16,17
 339 665 339 665 295.5 645 c 128,-1,18
 252 625 252 625 220.5 586 c 128,-1,19
 189 547 189 547 172 489 c 128,-1,20
 155 431 155 431 155 355 c 256,21,22
 155 279 155 279 171.5 221.5 c 128,-1,23
 188 164 188 164 220 125 c 128,-1,24
 252 86 252 86 298.5 66 c 128,-1,25
 345 46 345 46 405 46 c 0,26,27
 471 46 471 46 519 73 c 128,-1,28
 567 100 567 100 598.5 146.5 c 128,-1,29
 630 193 630 193 647 250 c 1,30,-1
 709 225 l 1,31,32
 688 152 688 152 646 97.5 c 128,-1,33
 604 43 604 43 542 13 c 128,-1,34
 480 -17 480 -17 400 -17 c 0,35,36
 323 -17 323 -17 259.5 8 c 128,-1,37
 196 33 196 33 150 81.5 c 128,-1,38
 104 130 104 130 79.5 199 c 128,-1,39
 55 268 55 268 55 355 c 0,40,41
 55 443 55 443 80.5 512 c 128,-1,42
 106 581 106 581 152 629 c 128,-1,43
 198 677 198 677 259.5 702.5 c 128,-1,44
 321 728 321 728 392 728 c 0,45,46
 462 728 462 728 513 704.5 c 128,-1,47
 564 681 564 681 597 636 c 128,-1,48
 630 591 630 591 643 525 c 1,49,-1
 614 551 l 1,50,-1
 628 715 l 1,51,-1
 693 715 l 1,52,-1
 693 477 l 1,53,-1
 623 477 l 1,54,55
 606 535 606 535 575 577 c 128,-1,56
 544 619 544 619 498.5 642 c 128,-1,57
 453 665 453 665 393 665 c 0,16,17
EndSplineSet
Substitution2: "'ss01' Style Set 1 lookup 61 subtable" Ieukran.alt1
EndChar

StartChar: Yukrcyr
Encoding: 1031 1031 248
Width: 399
GlyphClass: 2
Flags: W
AnchorPoint: "Anchor-1" 200 0 basechar 0
AnchorPoint: "Anchor-0" 200 896 basechar 0
LayerCount: 2
Fore
SplineSet
167 849 m 0,0,1
 167 818 167 818 148.5 802 c 128,-1,2
 130 786 130 786 102 786 c 256,3,4
 74 786 74 786 55.5 802 c 128,-1,5
 37 818 37 818 37 849 c 0,6,7
 37 881 37 881 55.5 897 c 128,-1,8
 74 913 74 913 102 913 c 256,9,10
 130 913 130 913 148.5 897 c 128,-1,11
 167 881 167 881 167 849 c 0,0,1
362 849 m 0,12,13
 362 818 362 818 343.5 802 c 128,-1,14
 325 786 325 786 296 786 c 0,15,16
 268 786 268 786 250 802 c 128,-1,17
 232 818 232 818 232 849 c 0,18,19
 232 881 232 881 250 897 c 128,-1,20
 268 913 268 913 296 913 c 0,21,22
 325 913 325 913 343.5 897 c 128,-1,23
 362 881 362 881 362 849 c 0,12,13
153 91 m 2,24,-1
 153 620 l 2,25,26
 153 642 153 642 129 649 c 128,-1,27
 105 656 105 656 68 656 c 2,28,-1
 53 656 l 1,29,-1
 53 710 l 1,30,-1
 347 710 l 1,31,-1
 347 656 l 1,32,-1
 331 656 l 2,33,34
 294 656 294 656 270 649 c 128,-1,35
 246 642 246 642 246 620 c 2,36,-1
 246 91 l 2,37,38
 246 69 246 69 270 62 c 128,-1,39
 294 55 294 55 331 55 c 2,40,-1
 347 55 l 1,41,-1
 347 0 l 1,42,-1
 53 0 l 1,43,-1
 53 55 l 1,44,-1
 68 55 l 2,45,46
 105 55 105 55 129 62 c 128,-1,47
 153 69 153 69 153 91 c 2,24,-1
EndSplineSet
EndChar

StartChar: Ljecyr
Encoding: 1033 1033 250
Width: 1052
GlyphClass: 2
Flags: W
AnchorPoint: "Anchor-0" 423 741 basechar 0
LayerCount: 2
Fore
SplineSet
239 710 m 1,0,-1
 589 710 l 1,1,-1
 589 650 l 1,2,-1
 239 650 l 1,3,-1
 239 710 l 1,0,-1
194 267 m 2,4,-1
 223 620 l 2,5,6
 225 642 225 642 200 649 c 128,-1,7
 175 656 175 656 138 656 c 2,8,-1
 128 656 l 1,9,-1
 128 710 l 1,10,-1
 304 710 l 1,11,-1
 267 266 l 2,12,13
 259 167 259 167 236.5 105 c 128,-1,14
 214 43 214 43 175.5 14 c 128,-1,15
 137 -15 137 -15 80 -15 c 0,16,17
 55 -15 55 -15 38 -10 c 128,-1,18
 21 -5 21 -5 12 0 c 1,19,-1
 12 89 l 1,20,21
 18 86 18 86 35 80 c 128,-1,22
 52 74 52 74 78 74 c 0,23,24
 115 74 115 74 138 93.5 c 128,-1,25
 161 113 161 113 174.5 156 c 128,-1,26
 188 199 188 199 194 267 c 2,4,-1
746 0 m 2,27,-1
 432 0 l 1,28,-1
 432 55 l 1,29,-1
 441 55 l 2,30,31
 464 55 464 55 483.5 56 c 128,-1,32
 503 57 503 57 515.5 59 c 128,-1,33
 528 61 528 61 528 65 c 2,34,-1
 528 710 l 1,35,-1
 725 710 l 1,36,-1
 725 656 l 1,37,-1
 701 656 l 2,38,39
 669 656 669 656 644.5 649 c 128,-1,40
 620 642 620 642 620 620 c 2,41,-1
 620 61 l 1,42,-1
 745 61 l 2,43,44
 799 61 799 61 834 79 c 128,-1,45
 869 97 869 97 886 132 c 128,-1,46
 903 167 903 167 903 217 c 256,47,48
 903 267 903 267 886 300.5 c 128,-1,49
 869 334 869 334 835 351 c 128,-1,50
 801 368 801 368 748 368 c 2,51,-1
 592 368 l 1,52,-1
 592 429 l 1,53,-1
 749 429 l 2,54,55
 828 429 828 429 885 404.5 c 128,-1,56
 942 380 942 380 972.5 333.5 c 128,-1,57
 1003 287 1003 287 1003 218 c 0,58,59
 1003 151 1003 151 971 102 c 128,-1,60
 939 53 939 53 881.5 26.5 c 128,-1,61
 824 0 824 0 746 0 c 2,27,-1
EndSplineSet
EndChar

StartChar: Njecyr
Encoding: 1034 1034 251
Width: 1089
GlyphClass: 2
Flags: W
AnchorPoint: "Anchor-0" 404 741 basechar 0
LayerCount: 2
Fore
SplineSet
216 420 m 1,0,-1
 600 420 l 1,1,-1
 600 360 l 1,2,-1
 216 360 l 1,3,-1
 216 420 l 1,0,-1
53 0 m 1,4,-1
 53 55 l 1,5,-1
 64 55 l 2,6,7
 101 55 101 55 125 62 c 128,-1,8
 149 69 149 69 149 91 c 2,9,-1
 149 620 l 2,10,11
 149 642 149 642 125 649 c 128,-1,12
 101 656 101 656 64 656 c 2,13,-1
 53 656 l 1,14,-1
 53 710 l 1,15,-1
 338 710 l 1,16,-1
 338 656 l 1,17,-1
 329 656 l 2,18,19
 310 656 310 656 290 655 c 128,-1,20
 270 654 270 654 256 652 c 128,-1,21
 242 650 242 650 242 646 c 2,22,-1
 242 64 l 2,23,24
 242 61 242 61 256 58.5 c 128,-1,25
 270 56 270 56 290 55.5 c 128,-1,26
 310 55 310 55 329 55 c 2,27,-1
 338 55 l 1,28,-1
 338 0 l 1,29,-1
 53 0 l 1,4,-1
469 0 m 1,30,-1
 469 55 l 1,31,-1
 478 55 l 2,32,33
 497 55 497 55 517 55.5 c 128,-1,34
 537 56 537 56 551 58.5 c 128,-1,35
 565 61 565 61 565 64 c 2,36,-1
 565 646 l 2,37,38
 565 650 565 650 551 652 c 128,-1,39
 537 654 537 654 517 655 c 128,-1,40
 497 656 497 656 478 656 c 2,41,-1
 469 656 l 1,42,-1
 469 710 l 1,43,-1
 764 710 l 1,44,-1
 764 656 l 1,45,-1
 743 656 l 2,46,47
 719 656 719 656 699.5 653 c 128,-1,48
 680 650 680 650 669 642.5 c 128,-1,49
 658 635 658 635 658 620 c 2,50,-1
 658 60 l 1,51,-1
 783 60 l 2,52,53
 836 60 836 60 871 78 c 128,-1,54
 906 96 906 96 923 130 c 128,-1,55
 940 164 940 164 940 213 c 0,56,57
 940 261 940 261 923.5 293.5 c 128,-1,58
 907 326 907 326 872.5 343 c 128,-1,59
 838 360 838 360 785 360 c 2,60,-1
 635 360 l 1,61,-1
 635 420 l 1,62,-1
 786 420 l 2,63,64
 866 420 866 420 923 396.5 c 128,-1,65
 980 373 980 373 1010 326.5 c 128,-1,66
 1040 280 1040 280 1040 213 c 0,67,68
 1040 148 1040 148 1008.5 100 c 128,-1,69
 977 52 977 52 919.5 26 c 128,-1,70
 862 0 862 0 784 0 c 2,71,-1
 469 0 l 1,30,-1
EndSplineSet
EndChar

StartChar: Tshecyr
Encoding: 1035 1035 252
Width: 908
GlyphClass: 2
Flags: W
AnchorPoint: "Anchor-0" 328 741 basechar 0
LayerCount: 2
Fore
SplineSet
549 412 m 0,0,1
 633 412 633 412 682 389.5 c 128,-1,2
 731 367 731 367 752.5 318.5 c 128,-1,3
 774 270 774 270 774 191 c 2,4,-1
 774 91 l 2,5,6
 774 69 774 69 798 62 c 128,-1,7
 822 55 822 55 859 55 c 2,8,-1
 870 55 l 1,9,-1
 870 0 l 1,10,-1
 681 0 l 1,11,-1
 681 186 l 2,12,13
 681 247 681 247 669 283.5 c 128,-1,14
 657 320 657 320 628 336 c 128,-1,15
 599 352 599 352 549 352 c 0,16,17
 498 352 498 352 441 340.5 c 128,-1,18
 384 329 384 329 332 296 c 1,19,-1
 332 357 l 1,20,21
 383 387 383 387 441 399.5 c 128,-1,22
 499 412 499 412 549 412 c 0,0,1
180 0 m 1,23,-1
 180 55 l 1,24,-1
 198 55 l 2,25,26
 235 55 235 55 260.5 62 c 128,-1,27
 286 69 286 69 286 91 c 2,28,-1
 286 651 l 1,29,-1
 249 651 l 2,30,31
 203 651 203 651 175 647 c 128,-1,32
 147 643 147 643 134 632 c 128,-1,33
 121 621 121 621 119 603 c 2,34,-1
 108 491 l 1,35,-1
 48 491 l 1,36,-1
 48 710 l 1,37,-1
 657 710 l 1,38,-1
 657 506 l 1,39,-1
 597 506 l 1,40,-1
 586 603 l 2,41,42
 584 621 584 621 570.5 632 c 128,-1,43
 557 643 557 643 529 647 c 128,-1,44
 501 651 501 651 456 651 c 2,45,-1
 379 651 l 1,46,-1
 379 65 l 2,47,48
 379 62 379 62 392.5 59.5 c 128,-1,49
 406 57 406 57 426 56 c 128,-1,50
 446 55 446 55 467 55 c 2,51,-1
 484 55 l 1,52,-1
 484 0 l 1,53,-1
 180 0 l 1,23,-1
EndSplineSet
EndChar

StartChar: Dzhecyr
Encoding: 1039 1039 253
Width: 843
GlyphClass: 2
Flags: W
AnchorPoint: "Anchor-0" 423 741 basechar 0
LayerCount: 2
Fore
SplineSet
53 710 m 1,0,-1
 338 710 l 1,1,-1
 338 656 l 1,2,-1
 329 656 l 2,3,4
 310 656 310 656 290 655 c 128,-1,5
 270 654 270 654 256 652 c 128,-1,6
 242 650 242 650 242 646 c 2,7,-1
 242 0 l 1,8,-1
 53 0 l 1,9,-1
 53 55 l 1,10,-1
 64 55 l 2,11,12
 101 55 101 55 125 62 c 128,-1,13
 149 69 149 69 149 91 c 2,14,-1
 149 620 l 2,15,16
 149 642 149 642 125 649 c 128,-1,17
 101 656 101 656 64 656 c 2,18,-1
 53 656 l 1,19,-1
 53 710 l 1,0,-1
506 710 m 1,20,-1
 791 710 l 1,21,-1
 791 656 l 1,22,-1
 780 656 l 2,23,24
 743 656 743 656 719 649 c 128,-1,25
 695 642 695 642 695 620 c 2,26,-1
 695 91 l 2,27,28
 695 69 695 69 719 62 c 128,-1,29
 743 55 743 55 780 55 c 2,30,-1
 791 55 l 1,31,-1
 791 0 l 1,32,-1
 602 0 l 1,33,-1
 602 646 l 2,34,35
 602 650 602 650 588 652 c 128,-1,36
 574 654 574 654 554 655 c 128,-1,37
 534 656 534 656 515 656 c 2,38,-1
 506 656 l 1,39,-1
 506 710 l 1,20,-1
188 0 m 1,40,-1
 188 60 l 1,41,-1
 641 60 l 1,42,-1
 641 0 l 1,43,-1
 578 0 l 2,44,45
 537 0 537 0 512 -4.5 c 128,-1,46
 487 -9 487 -9 475.5 -19.5 c 128,-1,47
 464 -30 464 -30 462 -48 c 2,48,-1
 452 -172 l 1,49,-1
 392 -172 l 1,50,-1
 382 -48 l 2,51,52
 381 -30 381 -30 369 -19.5 c 128,-1,53
 357 -9 357 -9 332 -4.5 c 128,-1,54
 307 0 307 0 266 0 c 2,55,-1
 188 0 l 1,40,-1
EndSplineSet
EndChar

StartChar: Becyr
Encoding: 1041 1041 257
Width: 675
GlyphClass: 2
Flags: W
AnchorPoint: "Anchor-0" 347 741 basechar 0
LayerCount: 2
Fore
SplineSet
53 710 m 1,0,-1
 579 710 l 1,1,-1
 579 511 l 1,2,-1
 519 511 l 1,3,-1
 508 606 l 2,4,5
 505 624 505 624 492 633.5 c 128,-1,6
 479 643 479 643 452 646.5 c 128,-1,7
 425 650 425 650 383 650 c 2,8,-1
 241 650 l 1,9,-1
 241 61 l 1,10,-1
 366 61 l 2,11,12
 420 61 420 61 455 78.5 c 128,-1,13
 490 96 490 96 507 130 c 128,-1,14
 524 164 524 164 524 212 c 256,15,16
 524 260 524 260 507 292.5 c 128,-1,17
 490 325 490 325 456 341.5 c 128,-1,18
 422 358 422 358 369 358 c 2,19,-1
 213 358 l 1,20,-1
 213 419 l 1,21,-1
 370 419 l 2,22,23
 449 419 449 419 506 395.5 c 128,-1,24
 563 372 563 372 593.5 326 c 128,-1,25
 624 280 624 280 624 213 c 0,26,27
 624 147 624 147 592 99 c 128,-1,28
 560 51 560 51 502.5 25.5 c 128,-1,29
 445 0 445 0 367 0 c 2,30,-1
 53 0 l 1,31,-1
 53 55 l 1,32,-1
 64 55 l 2,33,34
 101 55 101 55 125 62 c 128,-1,35
 149 69 149 69 149 91 c 2,36,-1
 149 618 l 2,37,38
 149 641 149 641 125 648.5 c 128,-1,39
 101 656 101 656 64 656 c 2,40,-1
 53 656 l 1,41,-1
 53 710 l 1,0,-1
EndSplineSet
EndChar

StartChar: Gecyr
Encoding: 1043 1043 259
Width: 630
GlyphClass: 2
Flags: W
AnchorPoint: "Anchor-0" 322 741 basechar 0
LayerCount: 2
Fore
SplineSet
241 650 m 1,0,-1
 241 91 l 2,1,2
 241 75 241 75 254 67 c 128,-1,3
 267 59 267 59 288 57 c 128,-1,4
 309 55 309 55 331 55 c 2,5,-1
 355 55 l 1,6,-1
 355 0 l 1,7,-1
 53 0 l 1,8,-1
 53 55 l 1,9,-1
 64 55 l 2,10,11
 101 55 101 55 125 62 c 128,-1,12
 149 69 149 69 149 91 c 2,13,-1
 149 620 l 2,14,15
 149 642 149 642 125 649 c 128,-1,16
 101 656 101 656 64 656 c 2,17,-1
 53 656 l 1,18,-1
 53 710 l 1,19,-1
 581 710 l 1,20,-1
 581 491 l 1,21,-1
 521 491 l 1,22,-1
 511 600 l 2,23,24
 509 620 509 620 495.5 631 c 128,-1,25
 482 642 482 642 455 646 c 128,-1,26
 428 650 428 650 385 650 c 2,27,-1
 241 650 l 1,0,-1
EndSplineSet
EndChar

StartChar: Decyr
Encoding: 1044 1044 261
Width: 820
GlyphClass: 2
Flags: W
AnchorPoint: "Anchor-0" 447 741 basechar 0
LayerCount: 2
Fore
SplineSet
247 710 m 1,0,-1
 640 710 l 1,1,-1
 640 650 l 1,2,-1
 247 650 l 1,3,-1
 247 710 l 1,0,-1
672 17 m 1,4,-1
 579 17 l 1,5,-1
 579 710 l 1,6,-1
 768 710 l 1,7,-1
 768 656 l 1,8,-1
 757 656 l 2,9,10
 720 656 720 656 696 649 c 128,-1,11
 672 642 672 642 672 620 c 2,12,-1
 672 17 l 1,4,-1
704 -51 m 2,13,14
 703 -31 703 -31 691 -20 c 128,-1,15
 679 -9 679 -9 654 -4.5 c 128,-1,16
 629 0 629 0 588 0 c 2,17,-1
 217 0 l 2,18,19
 175 0 175 0 150.5 -4.5 c 128,-1,20
 126 -9 126 -9 114.5 -20.5 c 128,-1,21
 103 -32 103 -32 101 -52 c 2,22,-1
 89 -172 l 1,23,-1
 27 -172 l 1,24,-1
 27 60 l 1,25,-1
 778 60 l 1,26,-1
 778 -172 l 1,27,-1
 716 -172 l 1,28,-1
 704 -51 l 2,13,14
172 29 m 1,29,-1
 85 29 l 1,30,31
 106 56 106 56 122.5 86 c 128,-1,32
 139 116 139 116 151 154.5 c 128,-1,33
 163 193 163 193 172 245.5 c 128,-1,34
 181 298 181 298 187 370 c 2,35,-1
 208 620 l 2,36,37
 210 642 210 642 185 649 c 128,-1,38
 160 656 160 656 123 656 c 2,39,-1
 113 656 l 1,40,-1
 113 710 l 1,41,-1
 288 710 l 1,42,-1
 260 369 l 2,43,44
 253 277 253 277 241 213 c 128,-1,45
 229 149 229 149 212.5 105.5 c 128,-1,46
 196 62 196 62 172 29 c 1,29,-1
EndSplineSet
Substitution2: "'locl' Localized Forms in Cyrillic lookup 12 subtable" De.bgr
EndChar

StartChar: Zhecyr
Encoding: 1046 1046 266
Width: 1093
GlyphClass: 2
Flags: W
AnchorPoint: "Anchor-1" 540 0 basechar 0
AnchorPoint: "Anchor-0" 540 741 basechar 0
LayerCount: 2
Fore
SplineSet
777 0 m 1,0,-1
 777 55 l 1,1,-1
 786 55 l 2,2,3
 806 55 806 55 825.5 56 c 128,-1,4
 845 57 845 57 858 59.5 c 128,-1,5
 871 62 871 62 871 65 c 2,6,-1
 632 345 l 1,7,-1
 632 369 l 1,8,-1
 882 645 l 2,9,10
 882 649 882 649 870 651 c 128,-1,11
 858 653 858 653 839.5 654.5 c 128,-1,12
 821 656 821 656 801 656 c 2,13,-1
 792 656 l 1,14,-1
 792 710 l 1,15,-1
 1044 710 l 1,16,-1
 1044 656 l 1,17,-1
 1020 656 l 2,18,19
 1003 656 1003 656 989.5 653.5 c 128,-1,20
 976 651 976 651 965 644.5 c 128,-1,21
 954 638 954 638 943 626 c 2,22,-1
 697 357 l 1,23,-1
 701 400 l 1,24,-1
 975 82 l 2,25,26
 985 70 985 70 996 64 c 128,-1,27
 1007 58 1007 58 1022 56.5 c 128,-1,28
 1037 55 1037 55 1056 55 c 2,29,-1
 1071 55 l 1,30,-1
 1071 0 l 1,31,-1
 777 0 l 1,0,-1
311 0 m 1,32,-1
 23 0 l 1,33,-1
 23 55 l 1,34,-1
 37 55 l 2,35,36
 58 55 58 55 72 56.5 c 128,-1,37
 86 58 86 58 97 64 c 128,-1,38
 108 70 108 70 119 82 c 2,39,-1
 392 400 l 1,40,-1
 388 357 l 1,41,-1
 142 627 l 2,42,43
 132 638 132 638 120.5 644.5 c 128,-1,44
 109 651 109 651 95.5 653.5 c 128,-1,45
 82 656 82 656 65 656 c 2,46,-1
 42 656 l 1,47,-1
 42 710 l 1,48,-1
 297 710 l 1,49,-1
 297 656 l 1,50,-1
 288 656 l 2,51,52
 268 656 268 656 249.5 654.5 c 128,-1,53
 231 653 231 653 219 651 c 128,-1,54
 207 649 207 649 206 645 c 2,55,-1
 457 369 l 1,56,-1
 457 345 l 1,57,-1
 218 64 l 2,58,59
 218 62 218 62 231 59.5 c 128,-1,60
 244 57 244 57 263.5 56 c 128,-1,61
 283 55 283 55 302 55 c 2,62,-1
 311 55 l 1,63,-1
 311 0 l 1,32,-1
402 0 m 1,64,-1
 402 54 l 1,65,-1
 411 54 l 2,66,67
 425 54 425 54 440.5 55 c 128,-1,68
 456 56 456 56 469 57 c 128,-1,69
 482 58 482 58 490 59.5 c 128,-1,70
 498 61 498 61 498 64 c 2,71,-1
 498 646 l 2,72,73
 498 649 498 649 490 650.5 c 128,-1,74
 482 652 482 652 469 653.5 c 128,-1,75
 456 655 456 655 440.5 655.5 c 128,-1,76
 425 656 425 656 411 656 c 2,77,-1
 402 656 l 1,78,-1
 402 710 l 1,79,-1
 687 710 l 1,80,-1
 687 656 l 1,81,-1
 678 656 l 2,82,83
 664 656 664 656 648.5 655.5 c 128,-1,84
 633 655 633 655 620 653.5 c 128,-1,85
 607 652 607 652 599 650.5 c 128,-1,86
 591 649 591 649 591 646 c 2,87,-1
 591 64 l 2,88,89
 591 61 591 61 599 59.5 c 128,-1,90
 607 58 607 58 620 56.5 c 128,-1,91
 633 55 633 55 648.5 55 c 128,-1,92
 664 55 664 55 678 55 c 2,93,-1
 687 55 l 1,94,-1
 687 0 l 1,95,-1
 402 0 l 1,64,-1
EndSplineSet
EndChar

StartChar: Zecyr
Encoding: 1047 1047 269
Width: 700
GlyphClass: 2
Flags: W
AnchorPoint: "Anchor-1" 380 0 basechar 0
AnchorPoint: "Anchor-0" 380 741 basechar 0
LayerCount: 2
Fore
SplineSet
384 -17 m 0,0,1
 318 -17 318 -17 267.5 6 c 128,-1,2
 217 29 217 29 184.5 73 c 128,-1,3
 152 117 152 117 139 180 c 1,4,-1
 166 155 l 1,5,-1
 152 -5 l 1,6,-1
 87 -5 l 1,7,-1
 87 228 l 1,8,-1
 157 228 l 1,9,10
 175 173 175 173 206 132 c 128,-1,11
 237 91 237 91 281 68.5 c 128,-1,12
 325 46 325 46 384 46 c 0,13,14
 439 46 439 46 474 64 c 128,-1,15
 509 82 509 82 525.5 115 c 128,-1,16
 542 148 542 148 542 194 c 0,17,18
 542 235 542 235 527 266 c 128,-1,19
 512 297 512 297 476.5 314 c 128,-1,20
 441 331 441 331 377 328 c 0,21,22
 363 327 363 327 347.5 326.5 c 128,-1,23
 332 326 332 326 317.5 325.5 c 128,-1,24
 303 325 303 325 290 324 c 1,25,-1
 290 404 l 1,26,27
 304 404 304 404 318.5 403 c 128,-1,28
 333 402 333 402 348 401.5 c 128,-1,29
 363 401 363 401 378 400 c 0,30,31
 431 398 431 398 462.5 415.5 c 128,-1,32
 494 433 494 433 508 464.5 c 128,-1,33
 522 496 522 496 522 535 c 256,34,35
 522 574 522 574 509 603 c 128,-1,36
 496 632 496 632 466.5 649 c 128,-1,37
 437 666 437 666 388 666 c 0,38,39
 329 666 329 666 285.5 643.5 c 128,-1,40
 242 621 242 621 213 580 c 128,-1,41
 184 539 184 539 167 482 c 1,42,-1
 97 482 l 1,43,-1
 97 715 l 1,44,-1
 162 715 l 1,45,-1
 176 556 l 1,46,-1
 149 530 l 1,47,48
 158 577 158 577 178 613.5 c 128,-1,49
 198 650 198 650 228.5 675.5 c 128,-1,50
 259 701 259 701 299 714.5 c 128,-1,51
 339 728 339 728 389 728 c 0,52,53
 467 728 467 728 517.5 703 c 128,-1,54
 568 678 568 678 593 635 c 128,-1,55
 618 592 618 592 618 538 c 0,56,57
 618 488 618 488 590.5 448.5 c 128,-1,58
 563 409 563 409 513 386 c 128,-1,59
 463 363 463 363 395 363 c 1,60,-1
 440 391 l 1,61,-1
 440 346 l 1,62,-1
 399 374 l 1,63,64
 476 374 476 374 529.5 351.5 c 128,-1,65
 583 329 583 329 611 287.5 c 128,-1,66
 639 246 639 246 639 191 c 0,67,68
 639 145 639 145 622 107 c 128,-1,69
 605 69 605 69 572.5 41 c 128,-1,70
 540 13 540 13 492.5 -2 c 128,-1,71
 445 -17 445 -17 384 -17 c 0,0,1
EndSplineSet
EndChar

StartChar: Icyr
Encoding: 1048 1048 270
Width: 873
GlyphClass: 2
Flags: W
AnchorPoint: "Anchor-0" 438 741 basechar 0
LayerCount: 2
Fore
SplineSet
196 145 m 1,0,-1
 640 619 l 1,1,-1
 679 577 l 1,2,-1
 235 103 l 1,3,-1
 196 145 l 1,0,-1
53 0 m 1,4,-1
 53 55 l 1,5,-1
 64 55 l 2,6,7
 101 55 101 55 125 62 c 128,-1,8
 149 69 149 69 149 91 c 2,9,-1
 149 620 l 2,10,11
 149 642 149 642 125 649 c 128,-1,12
 101 656 101 656 64 656 c 2,13,-1
 53 656 l 1,14,-1
 53 710 l 1,15,-1
 338 710 l 1,16,-1
 338 656 l 1,17,-1
 329 656 l 2,18,19
 310 656 310 656 290 655 c 128,-1,20
 270 654 270 654 256 652 c 128,-1,21
 242 650 242 650 242 646 c 2,22,-1
 242 64 l 2,23,24
 242 61 242 61 256 58.5 c 128,-1,25
 270 56 270 56 290 55.5 c 128,-1,26
 310 55 310 55 329 55 c 2,27,-1
 338 55 l 1,28,-1
 338 0 l 1,29,-1
 53 0 l 1,4,-1
536 0 m 1,30,-1
 536 55 l 1,31,-1
 545 55 l 2,32,33
 564 55 564 55 584 55.5 c 128,-1,34
 604 56 604 56 618 58.5 c 128,-1,35
 632 61 632 61 632 64 c 2,36,-1
 632 646 l 2,37,38
 632 650 632 650 618 652 c 128,-1,39
 604 654 604 654 584 655 c 128,-1,40
 564 656 564 656 545 656 c 2,41,-1
 536 656 l 1,42,-1
 536 710 l 1,43,-1
 821 710 l 1,44,-1
 821 656 l 1,45,-1
 810 656 l 2,46,47
 773 656 773 656 749 649 c 128,-1,48
 725 642 725 642 725 620 c 2,49,-1
 725 91 l 2,50,51
 725 69 725 69 749 62 c 128,-1,52
 773 55 773 55 810 55 c 2,53,-1
 821 55 l 1,54,-1
 821 0 l 1,55,-1
 536 0 l 1,30,-1
EndSplineSet
EndChar

StartChar: Elcyr
Encoding: 1051 1051 276
Width: 809
GlyphClass: 2
Flags: W
AnchorPoint: "Anchor-0" 447 741 basechar 0
LayerCount: 2
Fore
SplineSet
239 710 m 1,0,-1
 629 710 l 1,1,-1
 629 650 l 1,2,-1
 239 650 l 1,3,-1
 239 710 l 1,0,-1
472 0 m 1,4,-1
 472 55 l 1,5,-1
 481 55 l 2,6,7
 500 55 500 55 520 55.5 c 128,-1,8
 540 56 540 56 554 58.5 c 128,-1,9
 568 61 568 61 568 64 c 2,10,-1
 568 710 l 1,11,-1
 757 710 l 1,12,-1
 757 656 l 1,13,-1
 746 656 l 2,14,15
 709 656 709 656 685 649 c 128,-1,16
 661 642 661 642 661 620 c 2,17,-1
 661 91 l 2,18,19
 661 69 661 69 685 62 c 128,-1,20
 709 55 709 55 746 55 c 2,21,-1
 757 55 l 1,22,-1
 757 0 l 1,23,-1
 472 0 l 1,4,-1
194 267 m 2,24,-1
 223 620 l 2,25,26
 225 642 225 642 200 649 c 128,-1,27
 175 656 175 656 138 656 c 2,28,-1
 128 656 l 1,29,-1
 128 710 l 1,30,-1
 304 710 l 1,31,-1
 267 266 l 2,32,33
 259 167 259 167 236.5 105 c 128,-1,34
 214 43 214 43 175.5 14 c 128,-1,35
 137 -15 137 -15 80 -15 c 0,36,37
 55 -15 55 -15 38 -10 c 128,-1,38
 21 -5 21 -5 12 0 c 1,39,-1
 12 89 l 1,40,41
 18 86 18 86 35.5 80 c 128,-1,42
 53 74 53 74 79 74 c 0,43,44
 115 74 115 74 138.5 93.5 c 128,-1,45
 162 113 162 113 175 156 c 128,-1,46
 188 199 188 199 194 267 c 2,24,-1
EndSplineSet
Substitution2: "'locl' Localized Forms in Cyrillic lookup 12 subtable" El.bgr
EndChar

StartChar: Pecyr
Encoding: 1055 1055 281
Width: 843
GlyphClass: 2
Flags: W
AnchorPoint: "Anchor-0" 423 741 basechar 0
LayerCount: 2
Fore
SplineSet
204 710 m 1,0,-1
 643 710 l 1,1,-1
 643 650 l 1,2,-1
 204 650 l 1,3,-1
 204 710 l 1,0,-1
53 0 m 1,4,-1
 53 55 l 1,5,-1
 64 55 l 2,6,7
 101 55 101 55 125 62 c 128,-1,8
 149 69 149 69 149 91 c 2,9,-1
 149 620 l 2,10,11
 149 642 149 642 125 649 c 128,-1,12
 101 656 101 656 64 656 c 2,13,-1
 53 656 l 1,14,-1
 53 710 l 1,15,-1
 242 710 l 1,16,-1
 242 64 l 2,17,18
 242 61 242 61 256 58.5 c 128,-1,19
 270 56 270 56 290 55.5 c 128,-1,20
 310 55 310 55 329 55 c 2,21,-1
 338 55 l 1,22,-1
 338 0 l 1,23,-1
 53 0 l 1,4,-1
506 0 m 1,24,-1
 506 55 l 1,25,-1
 515 55 l 2,26,27
 534 55 534 55 554 55.5 c 128,-1,28
 574 56 574 56 588 58.5 c 128,-1,29
 602 61 602 61 602 64 c 2,30,-1
 602 710 l 1,31,-1
 791 710 l 1,32,-1
 791 656 l 1,33,-1
 780 656 l 2,34,35
 743 656 743 656 719 649 c 128,-1,36
 695 642 695 642 695 620 c 2,37,-1
 695 91 l 2,38,39
 695 69 695 69 719 62 c 128,-1,40
 743 55 743 55 780 55 c 2,41,-1
 791 55 l 1,42,-1
 791 0 l 1,43,-1
 506 0 l 1,24,-1
EndSplineSet
EndChar

StartChar: Ucyr
Encoding: 1059 1059 285
Width: 703
GlyphClass: 2
Flags: W
AnchorPoint: "Anchor-1" 235 0 basechar 0
AnchorPoint: "Anchor-0" 359 741 basechar 0
LayerCount: 2
Fore
SplineSet
405 203 m 2,0,1
 378 144 378 144 355 102.5 c 128,-1,2
 332 61 332 61 309.5 35 c 128,-1,3
 287 9 287 9 262 -3.5 c 128,-1,4
 237 -16 237 -16 205 -16 c 0,5,6
 179 -16 179 -16 162 -11 c 128,-1,7
 145 -6 145 -6 134 0 c 1,8,-1
 134 87 l 1,9,10
 140 83 140 83 158 76.5 c 128,-1,11
 176 70 176 70 200 70 c 0,12,13
 236 70 236 70 260.5 84 c 128,-1,14
 285 98 285 98 306.5 131.5 c 128,-1,15
 328 165 328 165 354 224 c 2,16,-1
 535 635 l 2,17,18
 535 642 535 642 523 646.5 c 128,-1,19
 511 651 511 651 493 653.5 c 128,-1,20
 475 656 475 656 458 656 c 2,21,-1
 445 656 l 1,22,-1
 445 710 l 1,23,-1
 682 710 l 1,24,-1
 682 656 l 1,25,-1
 673 656 l 2,26,27
 656 656 656 656 640.5 652.5 c 128,-1,28
 625 649 625 649 613 639.5 c 128,-1,29
 601 630 601 630 592 612 c 2,30,-1
 405 203 l 2,0,1
382 221 m 1,31,-1
 334 136 l 1,32,-1
 104 626 l 2,33,34
 97 640 97 640 86.5 646 c 128,-1,35
 76 652 76 652 62 654 c 128,-1,36
 48 656 48 656 30 656 c 2,37,-1
 21 656 l 1,38,-1
 21 710 l 1,39,-1
 279 710 l 1,40,-1
 279 656 l 1,41,-1
 262 656 l 2,42,43
 246 656 246 656 228 654.5 c 128,-1,44
 210 653 210 653 197.5 651 c 128,-1,45
 185 649 185 649 185 645 c 2,46,-1
 382 221 l 1,31,-1
EndSplineSet
EndChar

StartChar: Efcyr
Encoding: 1060 1060 290
Width: 898
GlyphClass: 2
Flags: W
AnchorPoint: "Anchor-1" 450 0 basechar 0
AnchorPoint: "Anchor-0" 450 741 basechar 0
LayerCount: 2
Fore
SplineSet
403 68 m 2,0,-1
 403 642 l 2,1,2
 403 664 403 664 379 671 c 128,-1,3
 355 678 355 678 318 678 c 2,4,-1
 302 678 l 1,5,-1
 302 733 l 1,6,-1
 596 733 l 1,7,-1
 596 678 l 1,8,-1
 581 678 l 2,9,10
 544 678 544 678 520 671 c 128,-1,11
 496 664 496 664 496 642 c 2,12,-1
 496 68 l 2,13,14
 496 46 496 46 520 39 c 128,-1,15
 544 32 544 32 581 32 c 2,16,-1
 596 32 l 1,17,-1
 596 -22 l 1,18,-1
 302 -22 l 1,19,-1
 302 32 l 1,20,-1
 318 32 l 2,21,22
 355 32 355 32 379 39 c 128,-1,23
 403 46 403 46 403 68 c 2,0,-1
419 613 m 1,24,-1
 419 551 l 1,25,26
 320 551 320 551 259.5 529 c 128,-1,27
 199 507 199 507 171.5 464.5 c 128,-1,28
 144 422 144 422 144 360 c 256,29,30
 144 298 144 298 171.5 256 c 128,-1,31
 199 214 199 214 259.5 192 c 128,-1,32
 320 170 320 170 419 170 c 1,33,-1
 419 108 l 1,34,35
 295 108 295 108 211.5 138 c 128,-1,36
 128 168 128 168 86 225 c 128,-1,37
 44 282 44 282 44 360 c 0,38,39
 44 439 44 439 86 495.5 c 128,-1,40
 128 552 128 552 211.5 582.5 c 128,-1,41
 295 613 295 613 419 613 c 1,24,-1
480 108 m 1,42,-1
 480 170 l 1,43,44
 579 170 579 170 639.5 192 c 128,-1,45
 700 214 700 214 727.5 256 c 128,-1,46
 755 298 755 298 755 360 c 256,47,48
 755 422 755 422 727.5 464.5 c 128,-1,49
 700 507 700 507 639.5 529 c 128,-1,50
 579 551 579 551 480 551 c 1,51,-1
 480 613 l 1,52,53
 604 613 604 613 687.5 582.5 c 128,-1,54
 771 552 771 552 813 495.5 c 128,-1,55
 855 439 855 439 855 360 c 0,56,57
 855 282 855 282 813 225 c 128,-1,58
 771 168 771 168 687.5 138 c 128,-1,59
 604 108 604 108 480 108 c 1,42,-1
EndSplineSet
EndChar

StartChar: Tsecyr
Encoding: 1062 1062 292
Width: 843
GlyphClass: 2
Flags: W
AnchorPoint: "Anchor-0" 423 741 basechar 0
LayerCount: 2
Fore
SplineSet
204 0 m 1,0,-1
 204 60 l 1,1,-1
 651 60 l 1,2,-1
 651 0 l 1,3,-1
 204 0 l 1,0,-1
53 710 m 1,4,-1
 338 710 l 1,5,-1
 338 656 l 1,6,-1
 329 656 l 2,7,8
 310 656 310 656 290 655 c 128,-1,9
 270 654 270 654 256 652 c 128,-1,10
 242 650 242 650 242 646 c 2,11,-1
 242 0 l 1,12,-1
 53 0 l 1,13,-1
 53 55 l 1,14,-1
 64 55 l 2,15,16
 101 55 101 55 125 62 c 128,-1,17
 149 69 149 69 149 91 c 2,18,-1
 149 620 l 2,19,20
 149 642 149 642 125 649 c 128,-1,21
 101 656 101 656 64 656 c 2,22,-1
 53 656 l 1,23,-1
 53 710 l 1,4,-1
506 710 m 1,24,-1
 791 710 l 1,25,-1
 791 656 l 1,26,-1
 780 656 l 2,27,28
 743 656 743 656 719 649 c 128,-1,29
 695 642 695 642 695 620 c 2,30,-1
 695 0 l 1,31,-1
 602 0 l 1,32,-1
 602 646 l 2,33,34
 602 650 602 650 588 652 c 128,-1,35
 574 654 574 654 554 655 c 128,-1,36
 534 656 534 656 515 656 c 2,37,-1
 506 656 l 1,38,-1
 506 710 l 1,24,-1
572 0 m 1,39,-1
 572 60 l 1,40,-1
 801 60 l 1,41,-1
 801 -172 l 1,42,-1
 740 -172 l 1,43,-1
 727 -51 l 2,44,45
 726 -32 726 -32 714 -20.5 c 128,-1,46
 702 -9 702 -9 677.5 -4.5 c 128,-1,47
 653 0 653 0 613 0 c 2,48,-1
 572 0 l 1,39,-1
EndSplineSet
EndChar

StartChar: Checyr
Encoding: 1063 1063 293
Width: 798
GlyphClass: 2
Flags: W
AnchorPoint: "Anchor-0" 393 741 basechar 0
LayerCount: 2
Fore
SplineSet
461 0 m 1,0,-1
 461 55 l 1,1,-1
 470 55 l 2,2,3
 489 55 489 55 509 55.5 c 128,-1,4
 529 56 529 56 543 58.5 c 128,-1,5
 557 61 557 61 557 64 c 2,6,-1
 557 646 l 2,7,8
 557 650 557 650 543 652 c 128,-1,9
 529 654 529 654 509 655 c 128,-1,10
 489 656 489 656 470 656 c 2,11,-1
 461 656 l 1,12,-1
 461 710 l 1,13,-1
 746 710 l 1,14,-1
 746 656 l 1,15,-1
 735 656 l 2,16,17
 698 656 698 656 674 649 c 128,-1,18
 650 642 650 642 650 620 c 2,19,-1
 650 91 l 2,20,21
 650 69 650 69 674 62 c 128,-1,22
 698 55 698 55 735 55 c 2,23,-1
 746 55 l 1,24,-1
 746 0 l 1,25,-1
 461 0 l 1,0,-1
369 280 m 0,26,27
 282 280 282 280 230.5 302.5 c 128,-1,28
 179 325 179 325 156.5 374 c 128,-1,29
 134 423 134 423 134 502 c 2,30,-1
 134 620 l 2,31,32
 134 642 134 642 110 649 c 128,-1,33
 86 656 86 656 49 656 c 2,34,-1
 38 656 l 1,35,-1
 38 710 l 1,36,-1
 323 710 l 1,37,-1
 323 656 l 1,38,-1
 314 656 l 2,39,40
 295 656 295 656 275 655 c 128,-1,41
 255 654 255 654 241 652 c 128,-1,42
 227 650 227 650 227 646 c 2,43,-1
 227 507 l 2,44,45
 227 446 227 446 240.5 409.5 c 128,-1,46
 254 373 254 373 285 356.5 c 128,-1,47
 316 340 316 340 369 340 c 0,48,49
 427 340 427 340 488.5 353 c 128,-1,50
 550 366 550 366 604 399 c 1,51,-1
 604 339 l 1,52,53
 550 308 550 308 488 294 c 128,-1,54
 426 280 426 280 369 280 c 0,26,27
EndSplineSet
EndChar

StartChar: Shacyr
Encoding: 1064 1064 294
Width: 1168
GlyphClass: 2
Flags: W
AnchorPoint: "Anchor-0" 578 741 basechar 0
LayerCount: 2
Fore
SplineSet
965 0 m 1,0,-1
 201 0 l 1,1,-1
 201 60 l 1,2,-1
 965 60 l 1,3,-1
 965 0 l 1,0,-1
1116 710 m 1,4,-1
 1116 656 l 1,5,-1
 1105 656 l 2,6,7
 1068 656 1068 656 1044 649 c 128,-1,8
 1020 642 1020 642 1020 620 c 2,9,-1
 1020 91 l 2,10,11
 1020 69 1020 69 1044 62 c 128,-1,12
 1068 55 1068 55 1105 55 c 2,13,-1
 1116 55 l 1,14,-1
 1116 0 l 1,15,-1
 927 0 l 1,16,-1
 927 646 l 2,17,18
 927 650 927 650 913 652 c 128,-1,19
 899 654 899 654 879 655 c 128,-1,20
 859 656 859 656 840 656 c 2,21,-1
 831 656 l 1,22,-1
 831 710 l 1,23,-1
 1116 710 l 1,4,-1
338 710 m 1,24,-1
 338 656 l 1,25,-1
 329 656 l 2,26,27
 310 656 310 656 290 655 c 128,-1,28
 270 654 270 654 256 652 c 128,-1,29
 242 650 242 650 242 646 c 2,30,-1
 242 0 l 1,31,-1
 53 0 l 1,32,-1
 53 55 l 1,33,-1
 64 55 l 2,34,35
 101 55 101 55 125 62 c 128,-1,36
 149 69 149 69 149 91 c 2,37,-1
 149 620 l 2,38,39
 149 642 149 642 125 649 c 128,-1,40
 101 656 101 656 64 656 c 2,41,-1
 53 656 l 1,42,-1
 53 710 l 1,43,-1
 338 710 l 1,24,-1
442 710 m 1,44,-1
 727 710 l 1,45,-1
 727 656 l 1,46,-1
 718 656 l 2,47,48
 699 656 699 656 679 655 c 128,-1,49
 659 654 659 654 645 652 c 128,-1,50
 631 650 631 650 631 646 c 2,51,-1
 631 0 l 1,52,-1
 538 0 l 1,53,-1
 538 646 l 2,54,55
 538 650 538 650 524 652 c 128,-1,56
 510 654 510 654 490 655 c 128,-1,57
 470 656 470 656 451 656 c 2,58,-1
 442 656 l 1,59,-1
 442 710 l 1,44,-1
EndSplineSet
EndChar

StartChar: Shchacyr
Encoding: 1065 1065 295
Width: 1168
GlyphClass: 2
Flags: W
AnchorPoint: "Anchor-0" 578 741 basechar 0
LayerCount: 2
Fore
SplineSet
973 0 m 1,0,-1
 201 0 l 1,1,-1
 201 60 l 1,2,-1
 973 60 l 1,3,-1
 973 0 l 1,0,-1
338 710 m 1,4,-1
 338 656 l 1,5,-1
 329 656 l 2,6,7
 310 656 310 656 290 655 c 128,-1,8
 270 654 270 654 256 652 c 128,-1,9
 242 650 242 650 242 646 c 2,10,-1
 242 0 l 1,11,-1
 53 0 l 1,12,-1
 53 55 l 1,13,-1
 64 55 l 2,14,15
 101 55 101 55 125 62 c 128,-1,16
 149 69 149 69 149 91 c 2,17,-1
 149 620 l 2,18,19
 149 642 149 642 125 649 c 128,-1,20
 101 656 101 656 64 656 c 2,21,-1
 53 656 l 1,22,-1
 53 710 l 1,23,-1
 338 710 l 1,4,-1
831 710 m 1,24,-1
 1116 710 l 1,25,-1
 1116 656 l 1,26,-1
 1105 656 l 2,27,28
 1068 656 1068 656 1044 649 c 128,-1,29
 1020 642 1020 642 1020 620 c 2,30,-1
 1020 0 l 1,31,-1
 927 0 l 1,32,-1
 927 646 l 2,33,34
 927 650 927 650 913 652 c 128,-1,35
 899 654 899 654 879 655 c 128,-1,36
 859 656 859 656 840 656 c 2,37,-1
 831 656 l 1,38,-1
 831 710 l 1,24,-1
936 0 m 2,39,-1
 897 0 l 1,40,-1
 897 60 l 1,41,-1
 1126 60 l 1,42,-1
 1126 -172 l 1,43,-1
 1064 -172 l 1,44,-1
 1052 -51 l 2,45,46
 1051 -31 1051 -31 1039 -20 c 128,-1,47
 1027 -9 1027 -9 1002 -4.5 c 128,-1,48
 977 0 977 0 936 0 c 2,39,-1
442 710 m 1,49,-1
 727 710 l 1,50,-1
 727 656 l 1,51,-1
 718 656 l 2,52,53
 699 656 699 656 679 655 c 128,-1,54
 659 654 659 654 645 652 c 128,-1,55
 631 650 631 650 631 646 c 2,56,-1
 631 0 l 1,57,-1
 538 0 l 1,58,-1
 538 646 l 2,59,60
 538 650 538 650 524 652 c 128,-1,61
 510 654 510 654 490 655 c 128,-1,62
 470 656 470 656 451 656 c 2,63,-1
 442 656 l 1,64,-1
 442 710 l 1,49,-1
EndSplineSet
EndChar

StartChar: Hardcyr
Encoding: 1066 1066 296
Width: 790
GlyphClass: 2
Flags: W
AnchorPoint: "Anchor-0" 278 741 basechar 0
LayerCount: 2
Fore
SplineSet
484 0 m 2,0,-1
 170 0 l 1,1,-1
 170 55 l 1,2,-1
 181 55 l 2,3,4
 218 55 218 55 242 62 c 128,-1,5
 266 69 266 69 266 91 c 2,6,-1
 266 651 l 1,7,-1
 249 651 l 2,8,9
 203 651 203 651 175 647 c 128,-1,10
 147 643 147 643 134 632 c 128,-1,11
 121 621 121 621 119 603 c 2,12,-1
 108 491 l 1,13,-1
 48 491 l 1,14,-1
 48 710 l 1,15,-1
 468 710 l 1,16,-1
 468 656 l 1,17,-1
 444 656 l 2,18,19
 424 656 424 656 404 655 c 128,-1,20
 384 654 384 654 371 652 c 128,-1,21
 358 650 358 650 358 646 c 2,22,-1
 358 61 l 1,23,-1
 483 61 l 2,24,25
 537 61 537 61 572 79 c 128,-1,26
 607 97 607 97 624 132 c 128,-1,27
 641 167 641 167 641 217 c 256,28,29
 641 267 641 267 624 300.5 c 128,-1,30
 607 334 607 334 573 351 c 128,-1,31
 539 368 539 368 486 368 c 2,32,-1
 330 368 l 1,33,-1
 330 429 l 1,34,-1
 487 429 l 2,35,36
 567 429 567 429 623.5 404.5 c 128,-1,37
 680 380 680 380 710.5 333.5 c 128,-1,38
 741 287 741 287 741 218 c 0,39,40
 741 151 741 151 709 102 c 128,-1,41
 677 53 677 53 619.5 26.5 c 128,-1,42
 562 0 562 0 484 0 c 2,0,-1
EndSplineSet
EndChar

StartChar: Ylongcyr
Encoding: 1067 1067 297
Width: 996
GlyphClass: 2
Flags: W
AnchorPoint: "Anchor-1" 492 0 basechar 0
AnchorPoint: "Anchor-0" 492 741 basechar 0
LayerCount: 2
Fore
SplineSet
755 64 m 2,0,-1
 755 646 l 2,1,2
 755 650 755 650 741 652 c 128,-1,3
 727 654 727 654 707 655 c 128,-1,4
 687 656 687 656 668 656 c 2,5,-1
 659 656 l 1,6,-1
 659 710 l 1,7,-1
 944 710 l 1,8,-1
 944 656 l 1,9,-1
 933 656 l 2,10,11
 896 656 896 656 872 649 c 128,-1,12
 848 642 848 642 848 620 c 2,13,-1
 848 91 l 2,14,15
 848 69 848 69 872 62 c 128,-1,16
 896 55 896 55 933 55 c 2,17,-1
 944 55 l 1,18,-1
 944 0 l 1,19,-1
 659 0 l 1,20,-1
 659 55 l 1,21,-1
 668 55 l 2,22,23
 687 55 687 55 707 55.5 c 128,-1,24
 727 56 727 56 741 58.5 c 128,-1,25
 755 61 755 61 755 64 c 2,0,-1
367 0 m 2,26,-1
 53 0 l 1,27,-1
 53 55 l 1,28,-1
 64 55 l 2,29,30
 101 55 101 55 125 62 c 128,-1,31
 149 69 149 69 149 91 c 2,32,-1
 149 620 l 2,33,34
 149 642 149 642 125 649 c 128,-1,35
 101 656 101 656 64 656 c 2,36,-1
 53 656 l 1,37,-1
 53 710 l 1,38,-1
 351 710 l 1,39,-1
 351 656 l 1,40,-1
 327 656 l 2,41,42
 307 656 307 656 287 655 c 128,-1,43
 267 654 267 654 254 652 c 128,-1,44
 241 650 241 650 241 646 c 2,45,-1
 241 61 l 1,46,-1
 366 61 l 2,47,48
 420 61 420 61 455 79 c 128,-1,49
 490 97 490 97 507 132 c 128,-1,50
 524 167 524 167 524 217 c 256,51,52
 524 267 524 267 507.5 300.5 c 128,-1,53
 491 334 491 334 456 351 c 128,-1,54
 421 368 421 368 369 368 c 2,55,-1
 213 368 l 1,56,-1
 213 429 l 1,57,-1
 370 429 l 2,58,59
 449 429 449 429 506 404.5 c 128,-1,60
 563 380 563 380 593.5 333.5 c 128,-1,61
 624 287 624 287 624 218 c 0,62,63
 624 151 624 151 592 102 c 128,-1,64
 560 53 560 53 502.5 26.5 c 128,-1,65
 445 0 445 0 367 0 c 2,26,-1
EndSplineSet
EndChar

StartChar: Softcyr
Encoding: 1068 1068 298
Width: 673
GlyphClass: 2
Flags: W
AnchorPoint: "Anchor-0" 198 741 basechar 0
LayerCount: 2
Fore
SplineSet
367 0 m 2,0,-1
 53 0 l 1,1,-1
 53 55 l 1,2,-1
 64 55 l 2,3,4
 101 55 101 55 125 62 c 128,-1,5
 149 69 149 69 149 91 c 2,6,-1
 149 620 l 2,7,8
 149 642 149 642 125 649 c 128,-1,9
 101 656 101 656 64 656 c 2,10,-1
 53 656 l 1,11,-1
 53 710 l 1,12,-1
 351 710 l 1,13,-1
 351 656 l 1,14,-1
 327 656 l 2,15,16
 307 656 307 656 287 655 c 128,-1,17
 267 654 267 654 254 652 c 128,-1,18
 241 650 241 650 241 646 c 2,19,-1
 241 61 l 1,20,-1
 366 61 l 2,21,22
 420 61 420 61 455 79 c 128,-1,23
 490 97 490 97 507 132 c 128,-1,24
 524 167 524 167 524 217 c 256,25,26
 524 267 524 267 507.5 300.5 c 128,-1,27
 491 334 491 334 456 351 c 128,-1,28
 421 368 421 368 369 368 c 2,29,-1
 213 368 l 1,30,-1
 213 429 l 1,31,-1
 370 429 l 2,32,33
 449 429 449 429 506 404.5 c 128,-1,34
 563 380 563 380 593.5 333.5 c 128,-1,35
 624 287 624 287 624 218 c 0,36,37
 624 151 624 151 592 102 c 128,-1,38
 560 53 560 53 502.5 26.5 c 128,-1,39
 445 0 445 0 367 0 c 2,0,-1
EndSplineSet
EndChar

StartChar: Ereversedcyr
Encoding: 1069 1069 299
Width: 780
GlyphClass: 2
Flags: W
AnchorPoint: "Anchor-1" 378 0 basechar 0
AnchorPoint: "Anchor-0" 378 741 basechar 0
LayerCount: 2
Fore
SplineSet
662 392 m 1,0,-1
 662 336 l 1,1,2
 616 335 616 335 570.5 333 c 128,-1,3
 525 331 525 331 479.5 330 c 128,-1,4
 434 329 434 329 388.5 327.5 c 128,-1,5
 343 326 343 326 297 324 c 1,6,-1
 297 403 l 1,7,8
 343 402 343 402 388.5 400.5 c 128,-1,9
 434 399 434 399 479.5 397.5 c 128,-1,10
 525 396 525 396 570.5 395 c 128,-1,11
 616 394 616 394 662 392 c 1,0,-1
392 -17 m 0,12,13
 321 -17 321 -17 268.5 6 c 128,-1,14
 216 29 216 29 183.5 72.5 c 128,-1,15
 151 116 151 116 137 180 c 1,16,-1
 166 155 l 1,17,-1
 152 -5 l 1,18,-1
 87 -5 l 1,19,-1
 87 228 l 1,20,-1
 157 228 l 1,21,22
 175 173 175 173 206.5 132 c 128,-1,23
 238 91 238 91 284 68.5 c 128,-1,24
 330 46 330 46 391 46 c 0,25,26
 444 46 444 46 487 66 c 128,-1,27
 530 86 530 86 561 125 c 128,-1,28
 592 164 592 164 609 221.5 c 128,-1,29
 626 279 626 279 626 355 c 256,30,31
 626 431 626 431 610.5 489 c 128,-1,32
 595 547 595 547 565 586 c 128,-1,33
 535 625 535 625 491 645 c 128,-1,34
 447 665 447 665 389 665 c 0,35,36
 329 665 329 665 283 642.5 c 128,-1,37
 237 620 237 620 205.5 579 c 128,-1,38
 174 538 174 538 157 482 c 1,39,-1
 87 482 l 1,40,-1
 87 715 l 1,41,-1
 152 715 l 1,42,-1
 166 556 l 1,43,-1
 137 530 l 1,44,45
 151 594 151 594 184 638 c 128,-1,46
 217 682 217 682 269.5 705 c 128,-1,47
 322 728 322 728 392 728 c 0,48,49
 466 728 466 728 527.5 703 c 128,-1,50
 589 678 589 678 633.5 630 c 128,-1,51
 678 582 678 582 702 513 c 128,-1,52
 726 444 726 444 726 355 c 0,53,54
 726 269 726 269 700.5 200.5 c 128,-1,55
 675 132 675 132 629 83 c 128,-1,56
 583 34 583 34 522.5 8.5 c 128,-1,57
 462 -17 462 -17 392 -17 c 0,12,13
EndSplineSet
Substitution2: "'ss01' Style Set 1 lookup 61 subtable" Ecyr.alt1
EndChar

StartChar: Yucyr
Encoding: 1070 1070 300
Width: 1125
GlyphClass: 2
Flags: W
AnchorPoint: "Anchor-1" 587 0 basechar 0
AnchorPoint: "Anchor-0" 587 741 basechar 0
LayerCount: 2
Fore
SplineSet
211 396 m 1,0,-1
 432 396 l 1,1,-1
 432 336 l 1,2,-1
 211 336 l 1,3,-1
 211 396 l 1,0,-1
53 0 m 1,4,-1
 53 55 l 1,5,-1
 64 55 l 2,6,7
 101 55 101 55 125 62 c 128,-1,8
 149 69 149 69 149 91 c 2,9,-1
 149 620 l 2,10,11
 149 642 149 642 125 649 c 128,-1,12
 101 656 101 656 64 656 c 2,13,-1
 53 656 l 1,14,-1
 53 710 l 1,15,-1
 338 710 l 1,16,-1
 338 656 l 1,17,-1
 329 656 l 2,18,19
 315 656 315 656 299.5 655.5 c 128,-1,20
 284 655 284 655 271 653.5 c 128,-1,21
 258 652 258 652 250 650.5 c 128,-1,22
 242 649 242 649 242 646 c 2,23,-1
 242 64 l 2,24,25
 242 61 242 61 250 59.5 c 128,-1,26
 258 58 258 58 271 56.5 c 128,-1,27
 284 55 284 55 299.5 55 c 128,-1,28
 315 55 315 55 329 55 c 2,29,-1
 338 55 l 1,30,-1
 338 0 l 1,31,-1
 53 0 l 1,4,-1
728 -17 m 0,32,33
 654 -17 654 -17 591.5 8.5 c 128,-1,34
 529 34 529 34 483 82.5 c 128,-1,35
 437 131 437 131 411.5 200 c 128,-1,36
 386 269 386 269 386 355 c 0,37,38
 386 442 386 442 411.5 511 c 128,-1,39
 437 580 437 580 483 628.5 c 128,-1,40
 529 677 529 677 591.5 702.5 c 128,-1,41
 654 728 654 728 728 728 c 0,42,43
 803 728 803 728 865.5 702.5 c 128,-1,44
 928 677 928 677 974 628.5 c 128,-1,45
 1020 580 1020 580 1045 511 c 128,-1,46
 1070 442 1070 442 1070 355 c 0,47,48
 1070 269 1070 269 1045 200 c 128,-1,49
 1020 131 1020 131 974 82.5 c 128,-1,50
 928 34 928 34 865.5 8.5 c 128,-1,51
 803 -17 803 -17 728 -17 c 0,32,33
728 45 m 256,52,53
 784 45 784 45 829 65 c 128,-1,54
 874 85 874 85 905.5 124 c 128,-1,55
 937 163 937 163 953.5 221.5 c 128,-1,56
 970 280 970 280 970 355 c 0,57,58
 970 431 970 431 953.5 489 c 128,-1,59
 937 547 937 547 905.5 586.5 c 128,-1,60
 874 626 874 626 829 646 c 128,-1,61
 784 666 784 666 728 666 c 256,62,63
 672 666 672 666 627.5 646 c 128,-1,64
 583 626 583 626 551.5 586.5 c 128,-1,65
 520 547 520 547 503 489 c 128,-1,66
 486 431 486 431 486 355 c 0,67,68
 486 280 486 280 503 221.5 c 128,-1,69
 520 163 520 163 551.5 124 c 128,-1,70
 583 85 583 85 627.5 65 c 128,-1,71
 672 45 672 45 728 45 c 256,52,53
EndSplineSet
EndChar

StartChar: Yacyr
Encoding: 1071 1071 301
Width: 732
GlyphClass: 2
Flags: W
AnchorPoint: "Anchor-1" 367 0 basechar 0
AnchorPoint: "Anchor-0" 406 741 basechar 0
LayerCount: 2
Fore
SplineSet
350 321 m 1,0,-1
 175 0 l 1,1,-1
 29 0 l 1,2,-1
 29 55 l 1,3,-1
 39 55 l 2,4,5
 59 55 59 55 75 58 c 128,-1,6
 91 61 91 61 104 71 c 128,-1,7
 117 81 117 81 127 99 c 2,8,-1
 267 343 l 1,9,-1
 350 321 l 1,0,-1
491 64 m 2,10,-1
 491 650 l 1,11,-1
 370 650 l 2,12,13
 318 650 318 650 284 633 c 128,-1,14
 250 616 250 616 232.5 584 c 128,-1,15
 215 552 215 552 215 506 c 256,16,17
 215 460 215 460 232 427 c 128,-1,18
 249 394 249 394 284 376.5 c 128,-1,19
 319 359 319 359 373 359 c 2,20,-1
 506 359 l 1,21,-1
 506 300 l 1,22,-1
 319 300 l 1,23,-1
 294 308 l 1,24,25
 239 319 239 319 199 346.5 c 128,-1,26
 159 374 159 374 137 414.5 c 128,-1,27
 115 455 115 455 115 506 c 0,28,29
 115 569 115 569 145 615 c 128,-1,30
 175 661 175 661 231.5 685.5 c 128,-1,31
 288 710 288 710 366 710 c 2,32,-1
 680 710 l 1,33,-1
 680 656 l 1,34,-1
 669 656 l 2,35,36
 632 656 632 656 608 649 c 128,-1,37
 584 642 584 642 584 620 c 2,38,-1
 584 91 l 2,39,40
 584 69 584 69 608 62 c 128,-1,41
 632 55 632 55 669 55 c 2,42,-1
 680 55 l 1,43,-1
 680 0 l 1,44,-1
 389 0 l 1,45,-1
 389 55 l 1,46,-1
 405 55 l 2,47,48
 421 55 421 55 436 55.5 c 128,-1,49
 451 56 451 56 463.5 57 c 128,-1,50
 476 58 476 58 483.5 59.5 c 128,-1,51
 491 61 491 61 491 64 c 2,10,-1
EndSplineSet
EndChar

StartChar: Geupcyr
Encoding: 1168 1168 302
Width: 628
GlyphClass: 2
Flags: W
AnchorPoint: "Anchor-0" 298 741 basechar 0
LayerCount: 2
Fore
SplineSet
241 650 m 1,0,-1
 241 91 l 2,1,2
 241 75 241 75 254 67 c 128,-1,3
 267 59 267 59 288 57 c 128,-1,4
 309 55 309 55 331 55 c 2,5,-1
 355 55 l 1,6,-1
 355 0 l 1,7,-1
 53 0 l 1,8,-1
 53 55 l 1,9,-1
 64 55 l 2,10,11
 101 55 101 55 125 62 c 128,-1,12
 149 69 149 69 149 91 c 2,13,-1
 149 620 l 2,14,15
 149 642 149 642 125 649 c 128,-1,16
 101 656 101 656 64 656 c 2,17,-1
 53 656 l 1,18,-1
 53 710 l 1,19,-1
 395 710 l 2,20,21
 434 710 434 710 458.5 714.5 c 128,-1,22
 483 719 483 719 494.5 730 c 128,-1,23
 506 741 506 741 508 761 c 2,24,-1
 520 882 l 1,25,-1
 581 882 l 1,26,-1
 581 650 l 1,27,-1
 241 650 l 1,0,-1
EndSplineSet
EndChar

StartChar: Gestrokecyr
Encoding: 1170 1170 303
Width: 630
GlyphClass: 2
Flags: W
AnchorPoint: "Anchor-0" 322 741 basechar 0
LayerCount: 2
Fore
SplineSet
53 386 m 1,0,-1
 413 386 l 1,1,-1
 413 329 l 1,2,-1
 53 329 l 1,3,-1
 53 386 l 1,0,-1
241 650 m 1,4,-1
 241 91 l 2,5,6
 241 75 241 75 254 67 c 128,-1,7
 267 59 267 59 288 57 c 128,-1,8
 309 55 309 55 331 55 c 2,9,-1
 355 55 l 1,10,-1
 355 0 l 1,11,-1
 53 0 l 1,12,-1
 53 55 l 1,13,-1
 64 55 l 2,14,15
 101 55 101 55 125 62 c 128,-1,16
 149 69 149 69 149 91 c 2,17,-1
 149 620 l 2,18,19
 149 642 149 642 125 649 c 128,-1,20
 101 656 101 656 64 656 c 2,21,-1
 53 656 l 1,22,-1
 53 710 l 1,23,-1
 581 710 l 1,24,-1
 581 501 l 1,25,-1
 521 501 l 1,26,-1
 510 606 l 2,27,28
 508 624 508 624 495 633.5 c 128,-1,29
 482 643 482 643 455 646.5 c 128,-1,30
 428 650 428 650 385 650 c 2,31,-1
 241 650 l 1,4,-1
EndSplineSet
EndChar

StartChar: Zhetailcyr
Encoding: 1174 1174 304
Width: 1093
GlyphClass: 2
Flags: W
AnchorPoint: "Anchor-0" 540 741 basechar 0
LayerCount: 2
Fore
SplineSet
777 0 m 1,0,-1
 777 55 l 1,1,-1
 786 55 l 2,2,3
 806 55 806 55 825.5 56 c 128,-1,4
 845 57 845 57 858 59.5 c 128,-1,5
 871 62 871 62 871 65 c 2,6,-1
 632 345 l 1,7,-1
 632 369 l 1,8,-1
 882 645 l 2,9,10
 882 649 882 649 870 651 c 128,-1,11
 858 653 858 653 839.5 654.5 c 128,-1,12
 821 656 821 656 801 656 c 2,13,-1
 792 656 l 1,14,-1
 792 710 l 1,15,-1
 1044 710 l 1,16,-1
 1044 656 l 1,17,-1
 1020 656 l 2,18,19
 1003 656 1003 656 989.5 653.5 c 128,-1,20
 976 651 976 651 965 644.5 c 128,-1,21
 954 638 954 638 943 626 c 2,22,-1
 697 357 l 1,23,-1
 701 400 l 1,24,-1
 998 55 l 1,25,-1
 998 0 l 1,26,-1
 777 0 l 1,0,-1
311 0 m 1,27,-1
 23 0 l 1,28,-1
 23 55 l 1,29,-1
 37 55 l 2,30,31
 58 55 58 55 72 56.5 c 128,-1,32
 86 58 86 58 97 64 c 128,-1,33
 108 70 108 70 119 82 c 2,34,-1
 392 400 l 1,35,-1
 388 357 l 1,36,-1
 142 627 l 2,37,38
 132 638 132 638 120.5 644.5 c 128,-1,39
 109 651 109 651 95.5 653.5 c 128,-1,40
 82 656 82 656 65 656 c 2,41,-1
 42 656 l 1,42,-1
 42 710 l 1,43,-1
 297 710 l 1,44,-1
 297 656 l 1,45,-1
 288 656 l 2,46,47
 268 656 268 656 249.5 654.5 c 128,-1,48
 231 653 231 653 219 651 c 128,-1,49
 207 649 207 649 206 645 c 2,50,-1
 457 369 l 1,51,-1
 457 345 l 1,52,-1
 218 64 l 2,53,54
 218 62 218 62 231 59.5 c 128,-1,55
 244 57 244 57 263.5 56 c 128,-1,56
 283 55 283 55 302 55 c 2,57,-1
 311 55 l 1,58,-1
 311 0 l 1,27,-1
899 0 m 2,59,-1
 878 0 l 1,60,-1
 878 60 l 1,61,-1
 1088 60 l 1,62,-1
 1088 -172 l 1,63,-1
 1027 -172 l 1,64,-1
 1015 -51 l 2,65,66
 1013 -31 1013 -31 1001 -20 c 128,-1,67
 989 -9 989 -9 964.5 -4.5 c 128,-1,68
 940 0 940 0 899 0 c 2,59,-1
402 0 m 1,69,-1
 402 54 l 1,70,-1
 411 54 l 2,71,72
 425 54 425 54 440.5 55 c 128,-1,73
 456 56 456 56 469 57 c 128,-1,74
 482 58 482 58 490 59.5 c 128,-1,75
 498 61 498 61 498 64 c 2,76,-1
 498 646 l 2,77,78
 498 649 498 649 490 650.5 c 128,-1,79
 482 652 482 652 469 653.5 c 128,-1,80
 456 655 456 655 440.5 655.5 c 128,-1,81
 425 656 425 656 411 656 c 2,82,-1
 402 656 l 1,83,-1
 402 710 l 1,84,-1
 687 710 l 1,85,-1
 687 656 l 1,86,-1
 678 656 l 2,87,88
 664 656 664 656 648.5 655.5 c 128,-1,89
 633 655 633 655 620 653.5 c 128,-1,90
 607 652 607 652 599 650.5 c 128,-1,91
 591 649 591 649 591 646 c 2,92,-1
 591 64 l 2,93,94
 591 61 591 61 599 59.5 c 128,-1,95
 607 58 607 58 620 56.5 c 128,-1,96
 633 55 633 55 648.5 55 c 128,-1,97
 664 55 664 55 678 55 c 2,98,-1
 687 55 l 1,99,-1
 687 0 l 1,100,-1
 402 0 l 1,69,-1
EndSplineSet
EndChar

StartChar: Katailcyr
Encoding: 1178 1178 306
Width: 761
GlyphClass: 2
Flags: W
AnchorPoint: "Anchor-0" 390 741 basechar 0
LayerCount: 2
Fore
SplineSet
53 0 m 1,0,-1
 53 55 l 1,1,-1
 64 55 l 2,2,3
 101 55 101 55 125 62 c 128,-1,4
 149 69 149 69 149 91 c 2,5,-1
 149 620 l 2,6,7
 149 642 149 642 125 649 c 128,-1,8
 101 656 101 656 64 656 c 2,9,-1
 53 656 l 1,10,-1
 53 710 l 1,11,-1
 335 710 l 1,12,-1
 335 656 l 1,13,-1
 326 656 l 2,14,15
 313 656 313 656 298 655.5 c 128,-1,16
 283 655 283 655 270.5 653.5 c 128,-1,17
 258 652 258 652 250 650.5 c 128,-1,18
 242 649 242 649 242 646 c 2,19,-1
 242 64 l 2,20,21
 242 61 242 61 250 60 c 128,-1,22
 258 59 258 59 270.5 57.5 c 128,-1,23
 283 56 283 56 298 55.5 c 128,-1,24
 313 55 313 55 326 55 c 2,25,-1
 335 55 l 1,26,-1
 335 0 l 1,27,-1
 53 0 l 1,0,-1
443 0 m 1,28,-1
 443 55 l 1,29,-1
 452 55 l 2,30,31
 472 55 472 55 491.5 56 c 128,-1,32
 511 57 511 57 524 59.5 c 128,-1,33
 537 62 537 62 537 65 c 2,34,-1
 283 345 l 1,35,-1
 283 369 l 1,36,-1
 548 645 l 2,37,38
 548 649 548 649 536 651 c 128,-1,39
 524 653 524 653 505.5 654.5 c 128,-1,40
 487 656 487 656 467 656 c 2,41,-1
 458 656 l 1,42,-1
 458 710 l 1,43,-1
 711 710 l 1,44,-1
 711 656 l 1,45,-1
 687 656 l 2,46,47
 670 656 670 656 656.5 653 c 128,-1,48
 643 650 643 650 632 644 c 128,-1,49
 621 638 621 638 610 627 c 2,50,-1
 348 356 l 1,51,-1
 352 400 l 1,52,-1
 667 55 l 1,53,-1
 667 0 l 1,54,-1
 443 0 l 1,28,-1
566 0 m 2,55,-1
 546 0 l 1,56,-1
 546 60 l 1,57,-1
 756 60 l 1,58,-1
 756 -172 l 1,59,-1
 694 -172 l 1,60,-1
 682 -51 l 2,61,62
 681 -31 681 -31 669 -20 c 128,-1,63
 657 -9 657 -9 632 -4.5 c 128,-1,64
 607 0 607 0 566 0 c 2,55,-1
EndSplineSet
EndChar

StartChar: Kaverticalstrokecyr
Encoding: 1180 1180 307
Width: 844
GlyphClass: 2
Flags: W
AnchorPoint: "Anchor-0" 442 741 basechar 0
LayerCount: 2
Fore
SplineSet
335 171 m 1,0,-1
 335 544 l 1,1,-1
 395 544 l 1,2,-1
 395 171 l 1,3,-1
 335 171 l 1,0,-1
53 0 m 1,4,-1
 53 55 l 1,5,-1
 64 55 l 2,6,7
 101 55 101 55 125 62 c 128,-1,8
 149 69 149 69 149 91 c 2,9,-1
 149 620 l 2,10,11
 149 642 149 642 125 649 c 128,-1,12
 101 656 101 656 64 656 c 2,13,-1
 53 656 l 1,14,-1
 53 710 l 1,15,-1
 335 710 l 1,16,-1
 335 656 l 1,17,-1
 326 656 l 2,18,19
 313 656 313 656 298 655.5 c 128,-1,20
 283 655 283 655 270.5 653.5 c 128,-1,21
 258 652 258 652 250 650.5 c 128,-1,22
 242 649 242 649 242 646 c 2,23,-1
 242 64 l 2,24,25
 242 61 242 61 250 60 c 128,-1,26
 258 59 258 59 270.5 57.5 c 128,-1,27
 283 56 283 56 298 55.5 c 128,-1,28
 313 55 313 55 326 55 c 2,29,-1
 335 55 l 1,30,-1
 335 0 l 1,31,-1
 53 0 l 1,4,-1
535 0 m 1,32,-1
 535 55 l 1,33,-1
 544 55 l 2,34,35
 564 55 564 55 583.5 56 c 128,-1,36
 603 57 603 57 616 59.5 c 128,-1,37
 629 62 629 62 629 65 c 2,38,-1
 435 345 l 1,39,-1
 435 369 l 1,40,-1
 640 645 l 2,41,42
 640 649 640 649 628 651 c 128,-1,43
 616 653 616 653 597.5 654.5 c 128,-1,44
 579 656 579 656 559 656 c 2,45,-1
 550 656 l 1,46,-1
 550 710 l 1,47,-1
 798 710 l 1,48,-1
 798 656 l 1,49,-1
 775 656 l 2,50,51
 749 656 749 656 730.5 650.5 c 128,-1,52
 712 645 712 645 698 627 c 2,53,-1
 496 356 l 1,54,-1
 502 400 l 1,55,-1
 725 82 l 2,56,57
 735 69 735 69 746 63 c 128,-1,58
 757 57 757 57 772 56 c 128,-1,59
 787 55 787 55 807 55 c 2,60,-1
 821 55 l 1,61,-1
 821 0 l 1,62,-1
 535 0 l 1,32,-1
EndSplineSet
EndChar

StartChar: Kabashkcyr
Encoding: 1184 1184 308
Width: 898
GlyphClass: 2
Flags: W
AnchorPoint: "Anchor-0" 532 741 basechar 0
LayerCount: 2
Fore
SplineSet
580 0 m 1,0,-1
 580 55 l 1,1,-1
 589 55 l 2,2,3
 609 55 609 55 628.5 56 c 128,-1,4
 648 57 648 57 661 59.5 c 128,-1,5
 674 62 674 62 674 65 c 2,6,-1
 420 345 l 1,7,-1
 420 369 l 1,8,-1
 685 645 l 2,9,10
 685 649 685 649 673 651 c 128,-1,11
 661 653 661 653 642.5 654.5 c 128,-1,12
 624 656 624 656 604 656 c 2,13,-1
 595 656 l 1,14,-1
 595 710 l 1,15,-1
 848 710 l 1,16,-1
 848 656 l 1,17,-1
 824 656 l 2,18,19
 807 656 807 656 793.5 653 c 128,-1,20
 780 650 780 650 769 644 c 128,-1,21
 758 638 758 638 747 627 c 2,22,-1
 485 356 l 1,23,-1
 489 400 l 1,24,-1
 779 82 l 2,25,26
 790 70 790 70 801 64 c 128,-1,27
 812 58 812 58 826.5 56.5 c 128,-1,28
 841 55 841 55 861 55 c 2,29,-1
 875 55 l 1,30,-1
 875 0 l 1,31,-1
 580 0 l 1,0,-1
190 0 m 1,32,-1
 190 55 l 1,33,-1
 201 55 l 2,34,35
 238 55 238 55 262 62 c 128,-1,36
 286 69 286 69 286 91 c 2,37,-1
 286 651 l 1,38,-1
 249 651 l 2,39,40
 203 651 203 651 175 647 c 128,-1,41
 147 643 147 643 134 632 c 128,-1,42
 121 621 121 621 119 603 c 2,43,-1
 108 491 l 1,44,-1
 48 491 l 1,45,-1
 48 710 l 1,46,-1
 472 710 l 1,47,-1
 472 656 l 1,48,-1
 463 656 l 2,49,50
 446 656 446 656 426 655 c 128,-1,51
 406 654 406 654 392.5 652 c 128,-1,52
 379 650 379 650 379 646 c 2,53,-1
 379 64 l 2,54,55
 379 62 379 62 392.5 59.5 c 128,-1,56
 406 57 406 57 426 56 c 128,-1,57
 446 55 446 55 463 55 c 2,58,-1
 472 55 l 1,59,-1
 472 0 l 1,60,-1
 190 0 l 1,32,-1
EndSplineSet
EndChar

StartChar: Entailcyr
Encoding: 1186 1186 309
Width: 853
GlyphClass: 2
Flags: W
AnchorPoint: "Anchor-0" 427 741 basechar 0
LayerCount: 2
Fore
SplineSet
216 396 m 1,0,-1
 638 396 l 1,1,-1
 638 336 l 1,2,-1
 216 336 l 1,3,-1
 216 396 l 1,0,-1
53 0 m 1,4,-1
 53 55 l 1,5,-1
 64 55 l 2,6,7
 101 55 101 55 125 62 c 128,-1,8
 149 69 149 69 149 91 c 2,9,-1
 149 620 l 2,10,11
 149 642 149 642 125 649 c 128,-1,12
 101 656 101 656 64 656 c 2,13,-1
 53 656 l 1,14,-1
 53 710 l 1,15,-1
 338 710 l 1,16,-1
 338 656 l 1,17,-1
 329 656 l 2,18,19
 315 656 315 656 299.5 655.5 c 128,-1,20
 284 655 284 655 271 653.5 c 128,-1,21
 258 652 258 652 250 650.5 c 128,-1,22
 242 649 242 649 242 646 c 2,23,-1
 242 64 l 2,24,25
 242 61 242 61 250 59.5 c 128,-1,26
 258 58 258 58 271 56.5 c 128,-1,27
 284 55 284 55 299.5 55 c 128,-1,28
 315 55 315 55 329 55 c 2,29,-1
 338 55 l 1,30,-1
 338 0 l 1,31,-1
 53 0 l 1,4,-1
516 0 m 1,32,-1
 516 54 l 1,33,-1
 525 54 l 2,34,35
 539 54 539 54 554.5 55 c 128,-1,36
 570 56 570 56 583 57 c 128,-1,37
 596 58 596 58 604 59.5 c 128,-1,38
 612 61 612 61 612 64 c 2,39,-1
 612 646 l 2,40,41
 612 649 612 649 604 650.5 c 128,-1,42
 596 652 596 652 583 653.5 c 128,-1,43
 570 655 570 655 554.5 655.5 c 128,-1,44
 539 656 539 656 525 656 c 2,45,-1
 516 656 l 1,46,-1
 516 710 l 1,47,-1
 801 710 l 1,48,-1
 801 656 l 1,49,-1
 790 656 l 2,50,51
 753 656 753 656 729 649 c 128,-1,52
 705 642 705 642 705 620 c 2,53,-1
 705 0 l 1,54,-1
 516 0 l 1,32,-1
621 0 m 2,55,-1
 601 0 l 1,56,-1
 601 60 l 1,57,-1
 811 60 l 1,58,-1
 811 -172 l 1,59,-1
 749 -172 l 1,60,-1
 737 -51 l 2,61,62
 736 -31 736 -31 724 -20 c 128,-1,63
 712 -9 712 -9 687 -4.5 c 128,-1,64
 662 0 662 0 621 0 c 2,55,-1
EndSplineSet
EndChar

StartChar: Tetailcyr
Encoding: 1196 1196 311
Width: 704
GlyphClass: 2
Flags: W
AnchorPoint: "Anchor-0" 347 741 basechar 0
LayerCount: 2
Fore
SplineSet
306 91 m 2,0,-1
 306 651 l 1,1,-1
 249 651 l 2,2,3
 203 651 203 651 175 647 c 128,-1,4
 147 643 147 643 134 632 c 128,-1,5
 121 621 121 621 119 603 c 2,6,-1
 108 491 l 1,7,-1
 48 491 l 1,8,-1
 48 710 l 1,9,-1
 657 710 l 1,10,-1
 657 491 l 1,11,-1
 597 491 l 1,12,-1
 586 603 l 2,13,14
 584 621 584 621 570.5 632 c 128,-1,15
 557 643 557 643 529 647 c 128,-1,16
 501 651 501 651 456 651 c 2,17,-1
 399 651 l 1,18,-1
 399 0 l 1,19,-1
 200 0 l 1,20,-1
 200 55 l 1,21,-1
 218 55 l 2,22,23
 255 55 255 55 280.5 62 c 128,-1,24
 306 69 306 69 306 91 c 2,0,-1
325 0 m 2,25,-1
 286 0 l 1,26,-1
 286 60 l 1,27,-1
 515 60 l 1,28,-1
 515 -172 l 1,29,-1
 453 -172 l 1,30,-1
 441 -51 l 2,31,32
 440 -31 440 -31 428 -20 c 128,-1,33
 416 -9 416 -9 391 -4.5 c 128,-1,34
 366 0 366 0 325 0 c 2,25,-1
EndSplineSet
EndChar

StartChar: Ustraightstrokecyr
Encoding: 1200 1200 313
Width: 703
GlyphClass: 2
Flags: W
AnchorPoint: "Anchor-1" 352 0 basechar 0
AnchorPoint: "Anchor-0" 354 741 basechar 0
LayerCount: 2
Fore
SplineSet
163 282 m 1,0,-1
 546 282 l 1,1,-1
 546 225 l 1,2,-1
 163 225 l 1,3,-1
 163 282 l 1,0,-1
308 312 m 1,4,-1
 318 267 l 1,5,-1
 105 626 l 2,6,7
 96 640 96 640 85.5 646.5 c 128,-1,8
 75 653 75 653 61.5 654.5 c 128,-1,9
 48 656 48 656 30 656 c 2,10,-1
 21 656 l 1,11,-1
 21 710 l 1,12,-1
 279 710 l 1,13,-1
 279 656 l 1,14,-1
 262 656 l 2,15,16
 245 656 245 656 228 654.5 c 128,-1,17
 211 653 211 653 198.5 651 c 128,-1,18
 186 649 186 649 186 645 c 2,19,-1
 379 314 l 1,20,-1
 356 316 l 1,21,-1
 535 635 l 2,22,23
 535 642 535 642 523 646.5 c 128,-1,24
 511 651 511 651 493 653.5 c 128,-1,25
 475 656 475 656 458 656 c 2,26,-1
 445 656 l 1,27,-1
 445 710 l 1,28,-1
 682 710 l 1,29,-1
 682 656 l 1,30,-1
 673 656 l 2,31,32
 656 656 656 656 641.5 652.5 c 128,-1,33
 627 649 627 649 615 639.5 c 128,-1,34
 603 630 603 630 592 611 c 2,35,-1
 391 266 l 1,36,-1
 401 312 l 1,37,-1
 401 91 l 2,38,39
 401 69 401 69 425 62 c 128,-1,40
 449 55 449 55 487 55 c 2,41,-1
 506 55 l 1,42,-1
 506 0 l 1,43,-1
 203 0 l 1,44,-1
 203 55 l 1,45,-1
 221 55 l 2,46,47
 259 55 259 55 283.5 62 c 128,-1,48
 308 69 308 69 308 91 c 2,49,-1
 308 312 l 1,4,-1
EndSplineSet
EndChar

StartChar: Xatailcyr
Encoding: 1202 1202 314
Width: 756
GlyphClass: 2
Flags: W
AnchorPoint: "Anchor-0" 386 741 basechar 0
LayerCount: 2
Fore
SplineSet
44 656 m 1,0,-1
 44 710 l 1,1,-1
 320 710 l 1,2,-1
 320 656 l 1,3,-1
 303 656 l 2,4,5
 285 656 285 656 266 655 c 128,-1,6
 247 654 247 654 234 652 c 128,-1,7
 221 650 221 650 221 646 c 2,8,-1
 407 390 l 1,9,-1
 414 388 l 1,10,-1
 657 55 l 1,11,-1
 657 0 l 1,12,-1
 446 0 l 1,13,-1
 446 55 l 1,14,-1
 463 55 l 2,15,16
 481 55 481 55 500 55.5 c 128,-1,17
 519 56 519 56 532 58.5 c 128,-1,18
 545 61 545 61 545 64 c 2,19,-1
 346 337 l 1,20,-1
 339 340 l 1,21,-1
 134 623 l 2,22,23
 117 646 117 646 99.5 651 c 128,-1,24
 82 656 82 656 54 656 c 2,25,-1
 44 656 l 1,0,-1
29 0 m 1,26,-1
 29 55 l 1,27,-1
 44 55 l 2,28,29
 71 55 71 55 90.5 64 c 128,-1,30
 110 73 110 73 130 101 c 2,31,-1
 333 381 l 1,32,-1
 373 336 l 1,33,-1
 184 72 l 2,34,35
 184 67 184 67 197 63 c 128,-1,36
 210 59 210 59 229.5 57 c 128,-1,37
 249 55 249 55 267 55 c 2,38,-1
 284 55 l 1,39,-1
 284 0 l 1,40,-1
 29 0 l 1,26,-1
420 355 m 1,41,-1
 379 397 l 1,42,-1
 555 638 l 2,43,44
 555 644 555 644 542 648 c 128,-1,45
 529 652 529 652 510 654 c 128,-1,46
 491 656 491 656 472 656 c 2,47,-1
 457 656 l 1,48,-1
 457 710 l 1,49,-1
 708 710 l 1,50,-1
 708 656 l 1,51,-1
 698 656 l 2,52,53
 670 656 670 656 650 647 c 128,-1,54
 630 638 630 638 609 611 c 2,55,-1
 420 355 l 1,41,-1
559 0 m 2,56,-1
 538 0 l 1,57,-1
 538 60 l 1,58,-1
 749 60 l 1,59,-1
 749 -172 l 1,60,-1
 687 -172 l 1,61,-1
 675 -51 l 2,62,63
 674 -31 674 -31 662 -20 c 128,-1,64
 650 -9 650 -9 625 -4.5 c 128,-1,65
 600 0 600 0 559 0 c 2,56,-1
EndSplineSet
EndChar

StartChar: Chetailcyr
Encoding: 1206 1206 315
Width: 798
GlyphClass: 2
Flags: W
AnchorPoint: "Anchor-0" 395 741 basechar 0
LayerCount: 2
Fore
SplineSet
369 280 m 0,0,1
 282 280 282 280 230.5 302.5 c 128,-1,2
 179 325 179 325 156.5 374 c 128,-1,3
 134 423 134 423 134 502 c 2,4,-1
 134 620 l 2,5,6
 134 642 134 642 110 649 c 128,-1,7
 86 656 86 656 49 656 c 2,8,-1
 38 656 l 1,9,-1
 38 710 l 1,10,-1
 323 710 l 1,11,-1
 323 656 l 1,12,-1
 314 656 l 2,13,14
 295 656 295 656 275 655 c 128,-1,15
 255 654 255 654 241 652 c 128,-1,16
 227 650 227 650 227 646 c 2,17,-1
 227 507 l 2,18,19
 227 446 227 446 240.5 409.5 c 128,-1,20
 254 373 254 373 285 356.5 c 128,-1,21
 316 340 316 340 369 340 c 0,22,23
 427 340 427 340 488 353 c 128,-1,24
 549 366 549 366 604 400 c 1,25,-1
 604 340 l 1,26,27
 549 309 549 309 487.5 294.5 c 128,-1,28
 426 280 426 280 369 280 c 0,0,1
461 0 m 1,29,-1
 461 55 l 1,30,-1
 470 55 l 2,31,32
 489 55 489 55 509 55.5 c 128,-1,33
 529 56 529 56 543 58.5 c 128,-1,34
 557 61 557 61 557 64 c 2,35,-1
 557 646 l 2,36,37
 557 650 557 650 543 652 c 128,-1,38
 529 654 529 654 509 655 c 128,-1,39
 489 656 489 656 470 656 c 2,40,-1
 461 656 l 1,41,-1
 461 710 l 1,42,-1
 746 710 l 1,43,-1
 746 656 l 1,44,-1
 735 656 l 2,45,46
 698 656 698 656 674 649 c 128,-1,47
 650 642 650 642 650 620 c 2,48,-1
 650 0 l 1,49,-1
 461 0 l 1,29,-1
566 0 m 2,50,-1
 546 0 l 1,51,-1
 566 60 l 1,52,-1
 756 60 l 1,53,-1
 756 -172 l 1,54,-1
 694 -172 l 1,55,-1
 682 -51 l 2,56,57
 681 -31 681 -31 669 -20 c 128,-1,58
 657 -9 657 -9 632 -4.5 c 128,-1,59
 607 0 607 0 566 0 c 2,50,-1
EndSplineSet
EndChar

StartChar: Chevertcyr
Encoding: 1208 1208 316
Width: 818
GlyphClass: 2
Flags: W
AnchorPoint: "Anchor-0" 403 741 basechar 0
LayerCount: 2
Fore
SplineSet
481 0 m 1,0,-1
 481 55 l 1,1,-1
 490 55 l 2,2,3
 509 55 509 55 529 55.5 c 128,-1,4
 549 56 549 56 563 58.5 c 128,-1,5
 577 61 577 61 577 64 c 2,6,-1
 577 646 l 2,7,8
 577 650 577 650 563 652 c 128,-1,9
 549 654 549 654 529 655 c 128,-1,10
 509 656 509 656 490 656 c 2,11,-1
 481 656 l 1,12,-1
 481 710 l 1,13,-1
 766 710 l 1,14,-1
 766 656 l 1,15,-1
 755 656 l 2,16,17
 718 656 718 656 694 649 c 128,-1,18
 670 642 670 642 670 620 c 2,19,-1
 670 91 l 2,20,21
 670 69 670 69 694 62 c 128,-1,22
 718 55 718 55 755 55 c 2,23,-1
 766 55 l 1,24,-1
 766 0 l 1,25,-1
 481 0 l 1,0,-1
379 280 m 0,26,27
 289 280 289 280 235 302.5 c 128,-1,28
 181 325 181 325 157.5 374 c 128,-1,29
 134 423 134 423 134 502 c 2,30,-1
 134 620 l 2,31,32
 134 642 134 642 110 649 c 128,-1,33
 86 656 86 656 49 656 c 2,34,-1
 38 656 l 1,35,-1
 38 710 l 1,36,-1
 323 710 l 1,37,-1
 323 656 l 1,38,-1
 314 656 l 2,39,40
 295 656 295 656 275 655 c 128,-1,41
 255 654 255 654 241 652 c 128,-1,42
 227 650 227 650 227 646 c 2,43,-1
 227 507 l 2,44,45
 227 446 227 446 241.5 409.5 c 128,-1,46
 256 373 256 373 289.5 356.5 c 128,-1,47
 323 340 323 340 379 340 c 0,48,49
 439 340 439 340 503.5 352.5 c 128,-1,50
 568 365 568 365 624 400 c 1,51,-1
 624 340 l 1,52,53
 568 307 568 307 503 293.5 c 128,-1,54
 438 280 438 280 379 280 c 0,26,27
372 158 m 1,55,-1
 372 531 l 1,56,-1
 432 531 l 1,57,-1
 432 158 l 1,58,-1
 372 158 l 1,55,-1
EndSplineSet
EndChar

StartChar: Shhacyr
Encoding: 1210 1210 317
Width: 796
GlyphClass: 1
Flags: W
LayerCount: 2
Fore
SplineSet
338 710 m 1,0,-1
 338 656 l 1,1,-1
 329 656 l 2,2,3
 310 656 310 656 290 655 c 128,-1,4
 270 654 270 654 256 652 c 128,-1,5
 242 650 242 650 242 646 c 2,6,-1
 242 64 l 2,7,8
 242 61 242 61 256 58.5 c 128,-1,9
 270 56 270 56 290 55.5 c 128,-1,10
 310 55 310 55 329 55 c 2,11,-1
 338 55 l 1,12,-1
 338 0 l 1,13,-1
 53 0 l 1,14,-1
 53 55 l 1,15,-1
 64 55 l 2,16,17
 101 55 101 55 125 62 c 128,-1,18
 149 69 149 69 149 91 c 2,19,-1
 149 620 l 2,20,21
 149 642 149 642 125 649 c 128,-1,22
 101 656 101 656 64 656 c 2,23,-1
 53 656 l 1,24,-1
 53 710 l 1,25,-1
 338 710 l 1,0,-1
429 430 m 0,26,27
 516 430 516 430 568 407.5 c 128,-1,28
 620 385 620 385 642.5 336.5 c 128,-1,29
 665 288 665 288 665 209 c 2,30,-1
 665 91 l 2,31,32
 665 69 665 69 689 62 c 128,-1,33
 713 55 713 55 750 55 c 2,34,-1
 761 55 l 1,35,-1
 761 0 l 1,36,-1
 476 0 l 1,37,-1
 476 55 l 1,38,-1
 485 55 l 2,39,40
 504 55 504 55 524 56 c 128,-1,41
 544 57 544 57 558 59.5 c 128,-1,42
 572 62 572 62 572 65 c 2,43,-1
 572 204 l 2,44,45
 572 265 572 265 558.5 301.5 c 128,-1,46
 545 338 545 338 514 354 c 128,-1,47
 483 370 483 370 429 370 c 0,48,49
 371 370 371 370 310 357.5 c 128,-1,50
 249 345 249 345 195 311 c 1,51,-1
 195 372 l 1,52,53
 249 403 249 403 310.5 416.5 c 128,-1,54
 372 430 372 430 429 430 c 0,26,27
EndSplineSet
EndChar

StartChar: Obarcyr
Encoding: 1256 1256 320
Width: 813
GlyphClass: 2
Flags: W
AnchorPoint: "Anchor-1" 402 0 basechar 0
AnchorPoint: "Anchor-0" 402 741 basechar 0
LayerCount: 2
Fore
SplineSet
102 396 m 1,0,-1
 713 396 l 1,1,-1
 713 336 l 1,2,-1
 102 336 l 1,3,-1
 102 396 l 1,0,-1
407 -17 m 256,4,5
 330 -17 330 -17 266 8.5 c 128,-1,6
 202 34 202 34 154.5 82.5 c 128,-1,7
 107 131 107 131 81 200 c 128,-1,8
 55 269 55 269 55 355 c 0,9,10
 55 442 55 442 81 511 c 128,-1,11
 107 580 107 580 154.5 628.5 c 128,-1,12
 202 677 202 677 266 702.5 c 128,-1,13
 330 728 330 728 407 728 c 256,14,15
 484 728 484 728 548 702.5 c 128,-1,16
 612 677 612 677 659.5 628.5 c 128,-1,17
 707 580 707 580 733 511 c 128,-1,18
 759 442 759 442 759 355 c 0,19,20
 759 269 759 269 733 200 c 128,-1,21
 707 131 707 131 659.5 82.5 c 128,-1,22
 612 34 612 34 548 8.5 c 128,-1,23
 484 -17 484 -17 407 -17 c 256,4,5
407 45 m 256,24,25
 465 45 465 45 511.5 65 c 128,-1,26
 558 85 558 85 591 124 c 128,-1,27
 624 163 624 163 641.5 221.5 c 128,-1,28
 659 280 659 280 659 355 c 0,29,30
 659 431 659 431 641.5 489 c 128,-1,31
 624 547 624 547 591 586.5 c 128,-1,32
 558 626 558 626 511.5 646 c 128,-1,33
 465 666 465 666 407 666 c 256,34,35
 349 666 349 666 302 646 c 128,-1,36
 255 626 255 626 222.5 586.5 c 128,-1,37
 190 547 190 547 172.5 489 c 128,-1,38
 155 431 155 431 155 355 c 0,39,40
 155 280 155 280 172.5 221.5 c 128,-1,41
 190 163 190 163 222.5 124 c 128,-1,42
 255 85 255 85 302 65 c 128,-1,43
 349 45 349 45 407 45 c 256,24,25
EndSplineSet
EndChar

StartChar: Hastrokecyr
Encoding: 1278 1278 321
Width: 756
GlyphClass: 2
Flags: W
AnchorPoint: "Anchor-1" 359 0 basechar 0
AnchorPoint: "Anchor-0" 386 741 basechar 0
LayerCount: 2
Fore
SplineSet
174 397 m 1,0,-1
 578 397 l 1,1,-1
 578 340 l 1,2,-1
 174 340 l 1,3,-1
 174 397 l 1,0,-1
44 656 m 1,4,-1
 44 710 l 1,5,-1
 320 710 l 1,6,-1
 320 656 l 1,7,-1
 303 656 l 2,8,9
 285 656 285 656 266 655 c 128,-1,10
 247 654 247 654 234 652 c 128,-1,11
 221 650 221 650 221 646 c 2,12,-1
 407 390 l 1,13,-1
 412 388 l 1,14,-1
 632 89 l 2,15,16
 649 66 649 66 666.5 60.5 c 128,-1,17
 684 55 684 55 712 55 c 2,18,-1
 728 55 l 1,19,-1
 728 0 l 1,20,-1
 446 0 l 1,21,-1
 446 55 l 1,22,-1
 463 55 l 2,23,24
 481 55 481 55 500 55.5 c 128,-1,25
 519 56 519 56 532 58.5 c 128,-1,26
 545 61 545 61 545 64 c 2,27,-1
 346 337 l 1,28,-1
 341 340 l 1,29,-1
 134 623 l 2,30,31
 117 646 117 646 99.5 651 c 128,-1,32
 82 656 82 656 54 656 c 2,33,-1
 44 656 l 1,4,-1
29 0 m 1,34,-1
 29 55 l 1,35,-1
 44 55 l 2,36,37
 71 55 71 55 90.5 64 c 128,-1,38
 110 73 110 73 130 101 c 2,39,-1
 336 381 l 1,40,-1
 373 336 l 1,41,-1
 184 72 l 2,42,43
 184 67 184 67 197 63 c 128,-1,44
 210 59 210 59 229.5 57 c 128,-1,45
 249 55 249 55 267 55 c 2,46,-1
 284 55 l 1,47,-1
 284 0 l 1,48,-1
 29 0 l 1,34,-1
418 355 m 1,49,-1
 379 397 l 1,50,-1
 555 638 l 2,51,52
 555 644 555 644 542 648 c 128,-1,53
 529 652 529 652 510 654 c 128,-1,54
 491 656 491 656 472 656 c 2,55,-1
 457 656 l 1,56,-1
 457 710 l 1,57,-1
 708 710 l 1,58,-1
 708 656 l 1,59,-1
 698 656 l 2,60,61
 670 656 670 656 650 647 c 128,-1,62
 630 638 630 638 609 611 c 2,63,-1
 418 355 l 1,49,-1
EndSplineSet
EndChar

StartChar: a
Encoding: 97 97 322
Width: 583
GlyphClass: 2
Flags: W
AnchorPoint: "Anchor-2" 438 -5 basechar 0
AnchorPoint: "Anchor-1" 300 0 basechar 0
AnchorPoint: "Anchor-0" 270 537 basechar 0
LayerCount: 2
Fore
SplineSet
407 327 m 1,0,-1
 407 274 l 1,1,2
 346 266 346 266 302 256 c 128,-1,3
 258 246 258 246 229 234 c 128,-1,4
 200 222 200 222 183 207 c 128,-1,5
 166 192 166 192 159 173 c 128,-1,6
 152 154 152 154 152 132 c 0,7,8
 152 104 152 104 163.5 85 c 128,-1,9
 175 66 175 66 196 56.5 c 128,-1,10
 217 47 217 47 245 47 c 0,11,12
 277 47 277 47 304 62 c 128,-1,13
 331 77 331 77 356 107 c 128,-1,14
 381 137 381 137 405 182 c 1,15,-1
 406 123 l 1,16,17
 386 82 386 82 359.5 52 c 128,-1,18
 333 22 333 22 299.5 5.5 c 128,-1,19
 266 -11 266 -11 224 -11 c 0,20,21
 176 -11 176 -11 139 5.5 c 128,-1,22
 102 22 102 22 81 54 c 128,-1,23
 60 86 60 86 60 131 c 0,24,25
 60 173 60 173 79 204 c 128,-1,26
 98 235 98 235 139.5 258 c 128,-1,27
 181 281 181 281 247 298 c 128,-1,28
 313 315 313 315 407 327 c 1,0,-1
405 0 m 1,29,-1
 393 116 l 1,30,-1
 388 122 l 1,31,-1
 388 383 l 2,32,33
 388 421 388 421 378 444 c 128,-1,34
 368 467 368 467 344.5 477 c 128,-1,35
 321 487 321 487 281 487 c 0,36,37
 221 487 221 487 183 470 c 128,-1,38
 145 453 145 453 126 434 c 1,39,40
 126 442 126 442 130 450.5 c 128,-1,41
 134 459 134 459 141 466.5 c 128,-1,42
 148 474 148 474 157.5 479 c 128,-1,43
 167 484 167 484 179 486 c 1,44,-1
 179 370 l 1,45,-1
 91 370 l 1,46,-1
 91 492 l 1,47,48
 105 503 105 503 131.5 515.5 c 128,-1,49
 158 528 158 528 197 537.5 c 128,-1,50
 236 547 236 547 285 547 c 0,51,52
 325 547 325 547 360 539 c 128,-1,53
 395 531 395 531 421 513 c 128,-1,54
 447 495 447 495 462 466 c 128,-1,55
 477 437 477 437 477 395 c 2,56,-1
 477 93 l 2,57,58
 477 79 477 79 487 71 c 128,-1,59
 497 63 497 63 515 59.5 c 128,-1,60
 533 56 533 56 559 53 c 2,61,-1
 564 52 l 1,62,-1
 564 0 l 1,63,-1
 405 0 l 1,29,-1
EndSplineSet
Substitution2: "'ss06' Style Set 6 lookup 66 subtable" a.alt
EndChar

StartChar: aogonek
Encoding: 261 261 331
Width: 583
GlyphClass: 1
Flags: W
LayerCount: 2
Fore
SplineSet
261 -153 m 0,0,1
 261 -128 261 -128 271.5 -107.5 c 128,-1,2
 282 -87 282 -87 304.5 -66 c 128,-1,3
 327 -45 327 -45 362.5 -20 c 128,-1,4
 398 5 398 5 448 36 c 1,5,-1
 477 7 l 1,6,7
 440 -19 440 -19 416.5 -40 c 128,-1,8
 393 -61 393 -61 380 -79 c 128,-1,9
 367 -97 367 -97 362 -112.5 c 128,-1,10
 357 -128 357 -128 357 -143 c 0,11,12
 357 -166 357 -166 369.5 -177.5 c 128,-1,13
 382 -189 382 -189 402 -189 c 0,14,15
 427 -189 427 -189 444.5 -176.5 c 128,-1,16
 462 -164 462 -164 474 -151 c 1,17,-1
 507 -186 l 1,18,19
 485 -211 485 -211 456 -227.5 c 128,-1,20
 427 -244 427 -244 380 -244 c 0,21,22
 329 -244 329 -244 295 -221 c 128,-1,23
 261 -198 261 -198 261 -153 c 0,0,1
564 0 m 1,24,-1
 405 0 l 1,25,-1
 393 116 l 1,26,-1
 388 122 l 1,27,-1
 388 383 l 2,28,29
 388 421 388 421 378 444 c 128,-1,30
 368 467 368 467 344.5 477 c 128,-1,31
 321 487 321 487 281 487 c 0,32,33
 221 487 221 487 183 470 c 128,-1,34
 145 453 145 453 126 434 c 1,35,36
 126 442 126 442 130 450.5 c 128,-1,37
 134 459 134 459 141 466.5 c 128,-1,38
 148 474 148 474 157.5 479 c 128,-1,39
 167 484 167 484 179 486 c 1,40,-1
 179 370 l 1,41,-1
 91 370 l 1,42,-1
 91 492 l 1,43,44
 105 503 105 503 131.5 515.5 c 128,-1,45
 158 528 158 528 197 537.5 c 128,-1,46
 236 547 236 547 285 547 c 0,47,48
 325 547 325 547 360 539 c 128,-1,49
 395 531 395 531 421 513 c 128,-1,50
 447 495 447 495 462 466 c 128,-1,51
 477 437 477 437 477 395 c 2,52,-1
 477 93 l 2,53,54
 477 79 477 79 487 71 c 128,-1,55
 497 63 497 63 515 59.5 c 128,-1,56
 533 56 533 56 559 53 c 2,57,-1
 564 52 l 1,58,-1
 564 0 l 1,24,-1
60 131 m 0,59,60
 60 173 60 173 79 204 c 128,-1,61
 98 235 98 235 139.5 258 c 128,-1,62
 181 281 181 281 247 298 c 128,-1,63
 313 315 313 315 407 327 c 1,64,-1
 407 274 l 1,65,66
 346 266 346 266 302 256 c 128,-1,67
 258 246 258 246 229 234 c 128,-1,68
 200 222 200 222 183 207 c 128,-1,69
 166 192 166 192 159 173 c 128,-1,70
 152 154 152 154 152 132 c 0,71,72
 152 104 152 104 163.5 85 c 128,-1,73
 175 66 175 66 196 56.5 c 128,-1,74
 217 47 217 47 245 47 c 0,75,76
 277 47 277 47 304 62 c 128,-1,77
 331 77 331 77 356 107 c 128,-1,78
 381 137 381 137 405 182 c 1,79,-1
 406 123 l 1,80,81
 386 82 386 82 359.5 52 c 128,-1,82
 333 22 333 22 299.5 5.5 c 128,-1,83
 266 -11 266 -11 224 -11 c 0,84,85
 176 -11 176 -11 139 5.5 c 128,-1,86
 102 22 102 22 81 54 c 128,-1,87
 60 86 60 86 60 131 c 0,59,60
EndSplineSet
Substitution2: "'ss06' Style Set 6 lookup 66 subtable" aogonek.alt
EndChar

StartChar: acaron
Encoding: 462 462 332
Width: 583
GlyphClass: 1
Flags: W
LayerCount: 2
Fore
SplineSet
249 611 m 1,0,-1
 321 611 l 1,1,-1
 443 776 l 1,2,-1
 443 791 l 1,3,-1
 407 791 l 1,4,-1
 254 656 l 1,5,-1
 323 658 l 1,6,-1
 172 791 l 1,7,-1
 126 791 l 1,8,-1
 126 776 l 1,9,-1
 249 611 l 1,0,-1
407 327 m 1,10,-1
 407 274 l 1,11,12
 346 266 346 266 302 256 c 128,-1,13
 258 246 258 246 229 234 c 128,-1,14
 200 222 200 222 183 207 c 128,-1,15
 166 192 166 192 159 173 c 128,-1,16
 152 154 152 154 152 132 c 0,17,18
 152 104 152 104 163.5 85 c 128,-1,19
 175 66 175 66 196 56.5 c 128,-1,20
 217 47 217 47 245 47 c 0,21,22
 277 47 277 47 304 62 c 128,-1,23
 331 77 331 77 356 107 c 128,-1,24
 381 137 381 137 405 182 c 1,25,-1
 406 123 l 1,26,27
 386 82 386 82 359.5 52 c 128,-1,28
 333 22 333 22 299.5 5.5 c 128,-1,29
 266 -11 266 -11 224 -11 c 0,30,31
 176 -11 176 -11 139 5.5 c 128,-1,32
 102 22 102 22 81 54 c 128,-1,33
 60 86 60 86 60 131 c 0,34,35
 60 173 60 173 79 204 c 128,-1,36
 98 235 98 235 139.5 258 c 128,-1,37
 181 281 181 281 247 298 c 128,-1,38
 313 315 313 315 407 327 c 1,10,-1
405 0 m 1,39,-1
 393 116 l 1,40,-1
 388 122 l 1,41,-1
 388 383 l 2,42,43
 388 421 388 421 378 444 c 128,-1,44
 368 467 368 467 344.5 477 c 128,-1,45
 321 487 321 487 281 487 c 0,46,47
 221 487 221 487 183 470 c 128,-1,48
 145 453 145 453 126 434 c 1,49,50
 126 442 126 442 130 450.5 c 128,-1,51
 134 459 134 459 141 466.5 c 128,-1,52
 148 474 148 474 157.5 479 c 128,-1,53
 167 484 167 484 179 486 c 1,54,-1
 179 370 l 1,55,-1
 91 370 l 1,56,-1
 91 492 l 1,57,58
 105 503 105 503 131.5 515.5 c 128,-1,59
 158 528 158 528 197 537.5 c 128,-1,60
 236 547 236 547 285 547 c 0,61,62
 325 547 325 547 360 539 c 128,-1,63
 395 531 395 531 421 513 c 128,-1,64
 447 495 447 495 462 466 c 128,-1,65
 477 437 477 437 477 395 c 2,66,-1
 477 93 l 2,67,68
 477 79 477 79 487 71 c 128,-1,69
 497 63 497 63 515 59.5 c 128,-1,70
 533 56 533 56 559 53 c 2,71,-1
 564 52 l 1,72,-1
 564 0 l 1,73,-1
 405 0 l 1,39,-1
EndSplineSet
Substitution2: "'ss06' Style Set 6 lookup 66 subtable" acaron.alt
EndChar

StartChar: adblgrave
Encoding: 513 513 334
Width: 583
GlyphClass: 1
Flags: W
LayerCount: 2
Fore
SplineSet
378 760 m 2,0,-1
 405 638 l 1,1,-1
 405 615 l 1,2,-1
 375 615 l 1,3,-1
 301 708 l 2,4,5
 287 726 287 726 279 741 c 128,-1,6
 271 756 271 756 271 772 c 0,7,8
 271 791 271 791 284 804 c 128,-1,9
 297 817 297 817 319 817 c 0,10,11
 343 817 343 817 357 802.5 c 128,-1,12
 371 788 371 788 378 760 c 2,0,-1
201 760 m 2,13,-1
 229 638 l 1,14,-1
 229 615 l 1,15,-1
 198 615 l 1,16,-1
 124 708 l 2,17,18
 110 726 110 726 102 741 c 128,-1,19
 94 756 94 756 94 772 c 0,20,21
 94 791 94 791 107 804 c 128,-1,22
 120 817 120 817 142 817 c 0,23,24
 166 817 166 817 180 802.5 c 128,-1,25
 194 788 194 788 201 760 c 2,13,-1
407 327 m 1,26,-1
 407 274 l 1,27,28
 346 266 346 266 302 256 c 128,-1,29
 258 246 258 246 229 234 c 128,-1,30
 200 222 200 222 183 207 c 128,-1,31
 166 192 166 192 159 173 c 128,-1,32
 152 154 152 154 152 132 c 0,33,34
 152 104 152 104 163.5 85 c 128,-1,35
 175 66 175 66 196 56.5 c 128,-1,36
 217 47 217 47 245 47 c 0,37,38
 277 47 277 47 304 62 c 128,-1,39
 331 77 331 77 356 107 c 128,-1,40
 381 137 381 137 405 182 c 1,41,-1
 406 123 l 1,42,43
 386 82 386 82 359.5 52 c 128,-1,44
 333 22 333 22 299.5 5.5 c 128,-1,45
 266 -11 266 -11 224 -11 c 0,46,47
 176 -11 176 -11 139 5.5 c 128,-1,48
 102 22 102 22 81 54 c 128,-1,49
 60 86 60 86 60 131 c 0,50,51
 60 173 60 173 79 204 c 128,-1,52
 98 235 98 235 139.5 258 c 128,-1,53
 181 281 181 281 247 298 c 128,-1,54
 313 315 313 315 407 327 c 1,26,-1
405 0 m 1,55,-1
 393 116 l 1,56,-1
 388 122 l 1,57,-1
 388 383 l 2,58,59
 388 421 388 421 378 444 c 128,-1,60
 368 467 368 467 344.5 477 c 128,-1,61
 321 487 321 487 281 487 c 0,62,63
 221 487 221 487 183 470 c 128,-1,64
 145 453 145 453 126 434 c 1,65,66
 126 442 126 442 130 450.5 c 128,-1,67
 134 459 134 459 141 466.5 c 128,-1,68
 148 474 148 474 157.5 479 c 128,-1,69
 167 484 167 484 179 486 c 1,70,-1
 179 370 l 1,71,-1
 91 370 l 1,72,-1
 91 492 l 1,73,74
 105 503 105 503 131.5 515.5 c 128,-1,75
 158 528 158 528 197 537.5 c 128,-1,76
 236 547 236 547 285 547 c 0,77,78
 325 547 325 547 360 539 c 128,-1,79
 395 531 395 531 421 513 c 128,-1,80
 447 495 447 495 462 466 c 128,-1,81
 477 437 477 437 477 395 c 2,82,-1
 477 93 l 2,83,84
 477 79 477 79 487 71 c 128,-1,85
 497 63 497 63 515 59.5 c 128,-1,86
 533 56 533 56 559 53 c 2,87,-1
 564 52 l 1,88,-1
 564 0 l 1,89,-1
 405 0 l 1,55,-1
EndSplineSet
Substitution2: "'ss06' Style Set 6 lookup 66 subtable" adblgrave.alt
EndChar

StartChar: ainvertedbreve
Encoding: 515 515 335
Width: 583
GlyphClass: 1
Flags: W
LayerCount: 2
Fore
SplineSet
281 786 m 0,0,1
 235 786 235 786 202.5 770 c 128,-1,2
 170 754 170 754 152.5 718.5 c 128,-1,3
 135 683 135 683 134 624 c 1,4,-1
 194 624 l 1,5,6
 196 662 196 662 204.5 681.5 c 128,-1,7
 213 701 213 701 231 708 c 128,-1,8
 249 715 249 715 278 715 c 0,9,10
 308 715 308 715 326 708 c 128,-1,11
 344 701 344 701 353 681.5 c 128,-1,12
 362 662 362 662 364 624 c 1,13,-1
 429 624 l 1,14,15
 428 683 428 683 410.5 718.5 c 128,-1,16
 393 754 393 754 360.5 770 c 128,-1,17
 328 786 328 786 281 786 c 0,0,1
407 327 m 1,18,-1
 407 274 l 1,19,20
 346 266 346 266 302 256 c 128,-1,21
 258 246 258 246 229 234 c 128,-1,22
 200 222 200 222 183 207 c 128,-1,23
 166 192 166 192 159 173 c 128,-1,24
 152 154 152 154 152 132 c 0,25,26
 152 104 152 104 163.5 85 c 128,-1,27
 175 66 175 66 196 56.5 c 128,-1,28
 217 47 217 47 245 47 c 0,29,30
 277 47 277 47 304 62 c 128,-1,31
 331 77 331 77 356 107 c 128,-1,32
 381 137 381 137 405 182 c 1,33,-1
 406 123 l 1,34,35
 386 82 386 82 359.5 52 c 128,-1,36
 333 22 333 22 299.5 5.5 c 128,-1,37
 266 -11 266 -11 224 -11 c 0,38,39
 176 -11 176 -11 139 5.5 c 128,-1,40
 102 22 102 22 81 54 c 128,-1,41
 60 86 60 86 60 131 c 0,42,43
 60 173 60 173 79 204 c 128,-1,44
 98 235 98 235 139.5 258 c 128,-1,45
 181 281 181 281 247 298 c 128,-1,46
 313 315 313 315 407 327 c 1,18,-1
405 0 m 1,47,-1
 393 116 l 1,48,-1
 388 122 l 1,49,-1
 388 383 l 2,50,51
 388 421 388 421 378 444 c 128,-1,52
 368 467 368 467 344.5 477 c 128,-1,53
 321 487 321 487 281 487 c 0,54,55
 221 487 221 487 183 470 c 128,-1,56
 145 453 145 453 126 434 c 1,57,58
 126 442 126 442 130 450.5 c 128,-1,59
 134 459 134 459 141 466.5 c 128,-1,60
 148 474 148 474 157.5 479 c 128,-1,61
 167 484 167 484 179 486 c 1,62,-1
 179 370 l 1,63,-1
 91 370 l 1,64,-1
 91 492 l 1,65,66
 105 503 105 503 131.5 515.5 c 128,-1,67
 158 528 158 528 197 537.5 c 128,-1,68
 236 547 236 547 285 547 c 0,69,70
 325 547 325 547 360 539 c 128,-1,71
 395 531 395 531 421 513 c 128,-1,72
 447 495 447 495 462 466 c 128,-1,73
 477 437 477 437 477 395 c 2,74,-1
 477 93 l 2,75,76
 477 79 477 79 487 71 c 128,-1,77
 497 63 497 63 515 59.5 c 128,-1,78
 533 56 533 56 559 53 c 2,79,-1
 564 52 l 1,80,-1
 564 0 l 1,81,-1
 405 0 l 1,47,-1
EndSplineSet
Substitution2: "'ss06' Style Set 6 lookup 66 subtable" ainvertedbreve.alt
EndChar

StartChar: b
Encoding: 98 98 348
Width: 670
GlyphClass: 2
Flags: W
AnchorPoint: "Anchor-1" 349 0 basechar 0
AnchorPoint: "Anchor-0" 329 755 basechar 0
LayerCount: 2
Fore
SplineSet
375 -11 m 0,0,1
 332 -11 332 -11 297 4 c 128,-1,2
 262 19 262 19 233.5 47.5 c 128,-1,3
 205 76 205 76 180 117 c 1,4,-1
 183 181 l 1,5,6
 209 138 209 138 237.5 108.5 c 128,-1,7
 266 79 266 79 298.5 64.5 c 128,-1,8
 331 50 331 50 371 50 c 0,9,10
 410 50 410 50 439.5 64.5 c 128,-1,11
 469 79 469 79 488.5 107.5 c 128,-1,12
 508 136 508 136 518 177 c 128,-1,13
 528 218 528 218 528 271 c 0,14,15
 528 323 528 323 519 362.5 c 128,-1,16
 510 402 510 402 491.5 429.5 c 128,-1,17
 473 457 473 457 444.5 471 c 128,-1,18
 416 485 416 485 377 485 c 0,19,20
 335 485 335 485 301 470.5 c 128,-1,21
 267 456 267 456 238 427 c 128,-1,22
 209 398 209 398 182 353 c 1,23,-1
 180 414 l 1,24,25
 207 456 207 456 236.5 486 c 128,-1,26
 266 516 266 516 302 531.5 c 128,-1,27
 338 547 338 547 385 547 c 0,28,29
 460 547 460 547 513 512 c 128,-1,30
 566 477 566 477 594 415.5 c 128,-1,31
 622 354 622 354 622 271 c 0,32,33
 622 189 622 189 592.5 125.5 c 128,-1,34
 563 62 563 62 508 25.5 c 128,-1,35
 453 -11 453 -11 375 -11 c 0,0,1
110 659 m 2,36,37
 110 674 110 674 101.5 681.5 c 128,-1,38
 93 689 93 689 76 694 c 128,-1,39
 59 699 59 699 32 704 c 2,40,-1
 22 706 l 1,41,-1
 22 758 l 1,42,-1
 199 758 l 1,43,-1
 199 121 l 1,44,-1
 194 114 l 1,45,-1
 170 -12 l 1,46,-1
 110 -12 l 1,47,-1
 110 659 l 2,36,37
EndSplineSet
EndChar

StartChar: c
Encoding: 99 99 349
Width: 576
GlyphClass: 2
Flags: W
AnchorPoint: "Anchor-1" 319 0 basechar 0
AnchorPoint: "Anchor-0" 308 537 basechar 0
LayerCount: 2
Fore
SplineSet
324 49 m 0,0,1
 368 49 368 49 399.5 64 c 128,-1,2
 431 79 431 79 453.5 102.5 c 128,-1,3
 476 126 476 126 493 152 c 1,4,-1
 540 113 l 1,5,6
 520 77 520 77 488.5 48.5 c 128,-1,7
 457 20 457 20 415.5 4.5 c 128,-1,8
 374 -11 374 -11 322 -11 c 0,9,10
 237 -11 237 -11 175.5 23.5 c 128,-1,11
 114 58 114 58 81 120.5 c 128,-1,12
 48 183 48 183 48 268 c 0,13,14
 48 354 48 354 82 416.5 c 128,-1,15
 116 479 116 479 178.5 513 c 128,-1,16
 241 547 241 547 327 547 c 0,17,18
 379 547 379 547 419 538 c 128,-1,19
 459 529 459 529 486 517.5 c 128,-1,20
 513 506 513 506 525 497 c 1,21,-1
 525 345 l 1,22,-1
 435 345 l 1,23,-1
 435 474 l 1,24,25
 445 473 445 473 454 469.5 c 128,-1,26
 463 466 463 466 469 460 c 128,-1,27
 475 454 475 454 478 447 c 128,-1,28
 481 440 481 440 481 432 c 1,29,30
 459 455 459 455 418 470.5 c 128,-1,31
 377 486 377 486 327 486 c 0,32,33
 264 486 264 486 223 460.5 c 128,-1,34
 182 435 182 435 162 386 c 128,-1,35
 142 337 142 337 142 268 c 0,36,37
 142 215 142 215 153 174 c 128,-1,38
 164 133 164 133 186.5 105 c 128,-1,39
 209 77 209 77 243 63 c 128,-1,40
 277 49 277 49 324 49 c 0,0,1
EndSplineSet
EndChar

StartChar: ccaron
Encoding: 269 269 354
Width: 576
GlyphClass: 1
Flags: W
LayerCount: 2
Fore
SplineSet
274 613 m 1,0,-1
 346 613 l 1,1,-1
 468 778 l 1,2,-1
 468 793 l 1,3,-1
 432 793 l 1,4,-1
 279 657 l 1,5,-1
 349 660 l 1,6,-1
 198 793 l 1,7,-1
 152 793 l 1,8,-1
 152 778 l 1,9,-1
 274 613 l 1,0,-1
324 49 m 0,10,11
 368 49 368 49 399.5 64 c 128,-1,12
 431 79 431 79 453.5 102.5 c 128,-1,13
 476 126 476 126 493 152 c 1,14,-1
 540 113 l 1,15,16
 520 77 520 77 488.5 48.5 c 128,-1,17
 457 20 457 20 415.5 4.5 c 128,-1,18
 374 -11 374 -11 322 -11 c 0,19,20
 237 -11 237 -11 175.5 23.5 c 128,-1,21
 114 58 114 58 81 120.5 c 128,-1,22
 48 183 48 183 48 268 c 0,23,24
 48 354 48 354 82 416.5 c 128,-1,25
 116 479 116 479 178.5 513 c 128,-1,26
 241 547 241 547 327 547 c 0,27,28
 379 547 379 547 419 538 c 128,-1,29
 459 529 459 529 486 517.5 c 128,-1,30
 513 506 513 506 525 497 c 1,31,-1
 525 345 l 1,32,-1
 435 345 l 1,33,-1
 435 474 l 1,34,35
 445 473 445 473 454 469.5 c 128,-1,36
 463 466 463 466 469 460 c 128,-1,37
 475 454 475 454 478 447 c 128,-1,38
 481 440 481 440 481 432 c 1,39,40
 459 455 459 455 418 470.5 c 128,-1,41
 377 486 377 486 327 486 c 0,42,43
 264 486 264 486 223 460.5 c 128,-1,44
 182 435 182 435 162 386 c 128,-1,45
 142 337 142 337 142 268 c 0,46,47
 142 215 142 215 153 174 c 128,-1,48
 164 133 164 133 186.5 105 c 128,-1,49
 209 77 209 77 243 63 c 128,-1,50
 277 49 277 49 324 49 c 0,10,11
EndSplineSet
EndChar

StartChar: d
Encoding: 100 100 356
Width: 673
GlyphClass: 2
Flags: W
AnchorPoint: "Anchor-2" 638 735 basechar 0
AnchorPoint: "Anchor-1" 314 0 basechar 0
LayerCount: 2
Fore
SplineSet
561 93 m 2,0,1
 561 71 561 71 583.5 64 c 128,-1,2
 606 57 606 57 643 53 c 2,3,-1
 648 52 l 1,4,-1
 648 0 l 1,5,-1
 488 0 l 1,6,-1
 476 117 l 1,7,-1
 472 118 l 1,8,-1
 472 659 l 2,9,10
 472 674 472 674 463.5 681.5 c 128,-1,11
 455 689 455 689 437.5 694 c 128,-1,12
 420 699 420 699 393 704 c 2,13,-1
 383 706 l 1,14,-1
 383 758 l 1,15,-1
 561 758 l 1,16,-1
 561 93 l 2,0,1
296 547 m 0,17,18
 340 547 340 547 374.5 532 c 128,-1,19
 409 517 409 517 437.5 489 c 128,-1,20
 466 461 466 461 490 419 c 1,21,-1
 487 353 l 1,22,23
 462 398 462 398 434 427.5 c 128,-1,24
 406 457 406 457 373.5 471 c 128,-1,25
 341 485 341 485 301 485 c 0,26,27
 262 485 262 485 232 470.5 c 128,-1,28
 202 456 202 456 182 428 c 128,-1,29
 162 400 162 400 152 358.5 c 128,-1,30
 142 317 142 317 142 264 c 0,31,32
 142 213 142 213 151.5 173 c 128,-1,33
 161 133 161 133 179.5 105.5 c 128,-1,34
 198 78 198 78 227 64 c 128,-1,35
 256 50 256 50 295 50 c 0,36,37
 337 50 337 50 371 64.5 c 128,-1,38
 405 79 405 79 434 108.5 c 128,-1,39
 463 138 463 138 489 182 c 1,40,-1
 490 121 l 1,41,42
 464 79 464 79 435 49.5 c 128,-1,43
 406 20 406 20 369.5 4.5 c 128,-1,44
 333 -11 333 -11 287 -11 c 0,45,46
 211 -11 211 -11 158 23.5 c 128,-1,47
 105 58 105 58 76.5 120 c 128,-1,48
 48 182 48 182 48 264 c 0,49,50
 48 347 48 347 77.5 410.5 c 128,-1,51
 107 474 107 474 163 510.5 c 128,-1,52
 219 547 219 547 296 547 c 0,17,18
EndSplineSet
EndChar

StartChar: e
Encoding: 101 101 360
Width: 576
GlyphClass: 2
Flags: W
AnchorPoint: "Anchor-2" 456 1 basechar 0
AnchorPoint: "Anchor-1" 316 0 basechar 0
AnchorPoint: "Anchor-0" 294 537 basechar 0
LayerCount: 2
Fore
SplineSet
139 263 m 0,0,1
 139 205 139 205 152.5 164 c 128,-1,2
 166 123 166 123 191 98 c 128,-1,3
 216 73 216 73 248.5 61 c 128,-1,4
 281 49 281 49 319 49 c 0,5,6
 361 49 361 49 392 64 c 128,-1,7
 423 79 423 79 445.5 102 c 128,-1,8
 468 125 468 125 484 151 c 1,9,-1
 532 112 l 1,10,11
 513 77 513 77 482 48.5 c 128,-1,12
 451 20 451 20 409.5 4.5 c 128,-1,13
 368 -11 368 -11 317 -11 c 0,14,15
 241 -11 241 -11 180 21 c 128,-1,16
 119 53 119 53 83.5 115 c 128,-1,17
 48 177 48 177 48 264 c 0,18,19
 48 349 48 349 80.5 412.5 c 128,-1,20
 113 476 113 476 169.5 511.5 c 128,-1,21
 226 547 226 547 299 547 c 0,22,23
 358 547 358 547 401 528 c 128,-1,24
 444 509 444 509 473 471 c 128,-1,25
 502 433 502 433 517 376 c 128,-1,26
 532 319 532 319 532 243 c 1,27,-1
 118 243 l 1,28,-1
 118 301 l 1,29,-1
 466 301 l 1,30,-1
 440 279 l 1,31,32
 438 336 438 336 429.5 375.5 c 128,-1,33
 421 415 421 415 404.5 439.5 c 128,-1,34
 388 464 388 464 362 475 c 128,-1,35
 336 486 336 486 299 486 c 0,36,37
 264 486 264 486 234.5 472.5 c 128,-1,38
 205 459 205 459 183.5 431 c 128,-1,39
 162 403 162 403 150.5 361 c 128,-1,40
 139 319 139 319 139 263 c 0,0,1
EndSplineSet
EndChar

StartChar: eogonek
Encoding: 281 281 368
Width: 576
GlyphClass: 1
Flags: W
LayerCount: 2
Fore
SplineSet
402 37 m 1,0,-1
 409 5 l 1,1,2
 388 -3 388 -3 365.5 -7 c 128,-1,3
 343 -11 343 -11 317 -11 c 0,4,5
 241 -11 241 -11 180 21 c 128,-1,6
 119 53 119 53 83.5 115 c 128,-1,7
 48 177 48 177 48 264 c 0,8,9
 48 349 48 349 80.5 412.5 c 128,-1,10
 113 476 113 476 169.5 511.5 c 128,-1,11
 226 547 226 547 299 547 c 0,12,13
 358 547 358 547 401 528 c 128,-1,14
 444 509 444 509 473 471 c 128,-1,15
 502 433 502 433 517 376 c 128,-1,16
 532 319 532 319 532 243 c 1,17,-1
 112 243 l 1,18,-1
 111 301 l 1,19,-1
 466 301 l 1,20,-1
 440 279 l 1,21,22
 438 336 438 336 429.5 375.5 c 128,-1,23
 421 415 421 415 404.5 439.5 c 128,-1,24
 388 464 388 464 362 475 c 128,-1,25
 336 486 336 486 299 486 c 0,26,27
 264 486 264 486 234.5 472.5 c 128,-1,28
 205 459 205 459 183.5 431 c 128,-1,29
 162 403 162 403 150.5 361 c 128,-1,30
 139 319 139 319 139 263 c 0,31,32
 139 205 139 205 152.5 164 c 128,-1,33
 166 123 166 123 191 98 c 128,-1,34
 216 73 216 73 248.5 61 c 128,-1,35
 281 49 281 49 319 49 c 0,36,37
 361 49 361 49 392 64 c 128,-1,38
 423 79 423 79 445.5 102 c 128,-1,39
 468 125 468 125 484 151 c 1,40,-1
 532 112 l 1,41,42
 520 89 520 89 503 69.5 c 128,-1,43
 486 50 486 50 457 29 c 256,44,45
 428 8 428 8 401.5 -13 c 128,-1,46
 375 -34 375 -34 354.5 -55 c 128,-1,47
 334 -76 334 -76 323 -98 c 128,-1,48
 312 -120 312 -120 312 -143 c 256,49,50
 312 -166 312 -166 324 -177.5 c 128,-1,51
 336 -189 336 -189 357 -189 c 0,52,53
 381 -189 381 -189 399 -176.5 c 128,-1,54
 417 -164 417 -164 428 -151 c 1,55,-1
 462 -186 l 1,56,57
 439 -211 439 -211 410 -227.5 c 128,-1,58
 381 -244 381 -244 334 -244 c 0,59,60
 301 -244 301 -244 274 -233.5 c 128,-1,61
 247 -223 247 -223 231.5 -203 c 128,-1,62
 216 -183 216 -183 216 -153 c 0,63,64
 216 -128 216 -128 226.5 -107 c 128,-1,65
 237 -86 237 -86 259 -65 c 128,-1,66
 281 -44 281 -44 317 -19 c 128,-1,67
 353 6 353 6 402 37 c 1,0,-1
EndSplineSet
EndChar

StartChar: ecaron
Encoding: 283 283 369
Width: 576
GlyphClass: 1
Flags: W
LayerCount: 2
Fore
SplineSet
255 613 m 1,0,-1
 327 613 l 1,1,-1
 449 778 l 1,2,-1
 449 793 l 1,3,-1
 413 793 l 1,4,-1
 260 657 l 1,5,-1
 330 660 l 1,6,-1
 179 793 l 1,7,-1
 133 793 l 1,8,-1
 133 778 l 1,9,-1
 255 613 l 1,0,-1
139 263 m 0,10,11
 139 205 139 205 152.5 164 c 128,-1,12
 166 123 166 123 191 98 c 128,-1,13
 216 73 216 73 248.5 61 c 128,-1,14
 281 49 281 49 319 49 c 0,15,16
 361 49 361 49 392 64 c 128,-1,17
 423 79 423 79 445.5 102 c 128,-1,18
 468 125 468 125 484 151 c 1,19,-1
 532 112 l 1,20,21
 513 77 513 77 482 48.5 c 128,-1,22
 451 20 451 20 409.5 4.5 c 128,-1,23
 368 -11 368 -11 317 -11 c 0,24,25
 241 -11 241 -11 180 21 c 128,-1,26
 119 53 119 53 83.5 115 c 128,-1,27
 48 177 48 177 48 264 c 0,28,29
 48 349 48 349 80.5 412.5 c 128,-1,30
 113 476 113 476 169.5 511.5 c 128,-1,31
 226 547 226 547 299 547 c 0,32,33
 358 547 358 547 401 528 c 128,-1,34
 444 509 444 509 473 471 c 128,-1,35
 502 433 502 433 517 376 c 128,-1,36
 532 319 532 319 532 243 c 1,37,-1
 118 243 l 1,38,-1
 118 301 l 1,39,-1
 466 301 l 1,40,-1
 440 279 l 1,41,42
 438 336 438 336 429.5 375.5 c 128,-1,43
 421 415 421 415 404.5 439.5 c 128,-1,44
 388 464 388 464 362 475 c 128,-1,45
 336 486 336 486 299 486 c 0,46,47
 264 486 264 486 234.5 472.5 c 128,-1,48
 205 459 205 459 183.5 431 c 128,-1,49
 162 403 162 403 150.5 361 c 128,-1,50
 139 319 139 319 139 263 c 0,10,11
EndSplineSet
EndChar

